<?xml version="1.0" encoding="UTF-8" standalone="no"?>
<!DOCTYPE svg PUBLIC "-//W3C//DTD SVG 1.1//EN" "http://www.w3.org/Graphics/SVG/1.1/DTD/svg11.dtd">
<!-- Generated by Microsoft Visio, SVG Export X25552-VM to VM.svg Page-1 -->
<svg xmlns="http://www.w3.org/2000/svg" xmlns:xlink="http://www.w3.org/1999/xlink" xmlns:ev="http://www.w3.org/2001/xml-events"
		xmlns:v="http://schemas.microsoft.com/visio/2003/SVGExtensions/" width="5.48958in" height="3.37332in"
		viewBox="0 0 395.25 242.879" xml:space="preserve" color-interpolation-filters="sRGB" class="st18">
	<v:documentProperties v:langID="1033" v:viewMarkup="false">
		<v:userDefs>
			<v:ud v:nameU="msvConvertTheme"/>
		</v:userDefs>
	</v:documentProperties>

	<style type="text/css">
	<![CDATA[
		.st1 {fill:none;stroke:#000000;stroke-linecap:butt;stroke-width:1}
		.st2 {fill:#000000;font-family:Roboto;font-size:0.833336em;font-weight:bold}
		.st3 {stroke:#7f7f7f;stroke-dasharray:1,2;stroke-linecap:butt;stroke-width:1}
		.st4 {fill:#262626;stroke:#000000;stroke-linecap:butt;stroke-width:1}
		.st5 {fill:#ffffff;font-family:Roboto;font-size:0.666664em}
		.st6 {fill:#595959;stroke:#000000;stroke-linecap:butt;stroke-width:1}
		.st7 {fill:#a5a5a5;stroke:#000000;stroke-width:1}
		.st8 {fill:none;stroke:none;stroke-linecap:butt;stroke-width:1}
		.st9 {fill:#000000;font-family:Roboto;font-size:0.499992em}
		.st10 {fill:#bfbfbf;stroke:#000000;stroke-linecap:butt;stroke-width:1}
		.st11 {fill:#000000;font-family:Roboto;font-size:0.666664em}
		.st12 {fill:#000000;font-family:Roboto;font-size:0.666664em;font-weight:bold}
		.st13 {fill:#ffffff}
		.st14 {stroke:none;stroke-linecap:round;stroke-linejoin:round;stroke-width:0.75}
		.st15 {fill:#000000;font-family:Roboto;font-size:0.416656em}
		.st16 {marker-end:url(#mrkr13-90);marker-start:url(#mrkr13-88);stroke:#ff3399;stroke-linecap:butt;stroke-width:0.5}
		.st17 {fill:#ff3399;fill-opacity:1;stroke:#ff3399;stroke-opacity:1;stroke-width:0.21739130434783}
		.st18 {fill:none;fill-rule:evenodd;font-size:12px;overflow:visible;stroke-linecap:square;stroke-miterlimit:3}
	]]>
	</style>

	<defs id="Markers">
		<g id="lend13">
			<path d="M 3 1 L 0 0 L 3 -1 L 3 1 " style="stroke:none"/>
		</g>
		<marker id="mrkr13-88" class="st17" v:arrowType="13" v:arrowSize="1" v:setback="13.08" refX="13.08" orient="auto"
				markerUnits="strokeWidth" overflow="visible">
			<use xlink:href="#lend13" transform="scale(4.6) "/>
		</marker>
		<marker id="mrkr13-90" class="st17" v:arrowType="13" v:arrowSize="1" v:setback="13.8" refX="-13.8" orient="auto"
				markerUnits="strokeWidth" overflow="visible">
			<use xlink:href="#lend13" transform="scale(-4.6,-4.6) "/>
		</marker>
	</defs>
	<g v:mID="0" v:index="1" v:groupContext="foregroundPage">
		<title>Page-1</title>
		<v:pageProperties v:drawingScale="1" v:pageScale="1" v:drawingUnits="0" v:shadowOffsetX="0" v:shadowOffsetY="0"/>
		<v:layer v:name="Connector" v:index="0"/>
		<g id="shape2-1" v:mID="2" v:groupContext="shape" transform="translate(3.66667,-10.3793)">
			<title>Rounded rectangle.2</title>
			<desc>U25N</desc>
			<v:userDefs>
				<v:ud v:nameU="visVersion" v:val="VT0(14):26"/>
			</v:userDefs>
			<v:textBlock v:margins="rect(4,4,4,4)" v:verticalAlign="0"/>
			<v:textRect cx="171" cy="182.411" width="342" height="120.938"/>
			<rect x="0" y="121.942" width="342" height="120.938" rx="9" ry="9" class="st1"/>
			<text x="312.88" y="134.94" class="st2" v:langID="1033"><v:paragraph v:horizAlign="2"/><v:tabList/>U25N</text>		</g>
		<g id="shape3-4" v:mID="3" v:groupContext="shape" v:layerMember="0" transform="translate(84.0982,-20.5043)">
			<title>Sheet.3</title>
			<path d="M7.2 242.88 L7.2 148.14" class="st3"/>
		</g>
		<g id="shape4-7" v:mID="4" v:groupContext="shape" v:layerMember="0" transform="translate(363.667,-135.929)">
			<title>Sheet.4</title>
			<path d="M0 235.68 L-362.67 235.68" class="st3"/>
		</g>
		<g id="shape5-10" v:mID="5" v:groupContext="shape" v:layerMember="0" transform="translate(363.667,-169.638)">
			<title>Sheet.5</title>
			<path d="M0 235.68 L-362.67 235.68" class="st3"/>
		</g>
		<g id="shape8-13" v:mID="8" v:groupContext="shape" transform="translate(39.6667,-80.6918)">
			<title>Rounded rectangle.8</title>
			<desc>Port1</desc>
			<v:userDefs>
				<v:ud v:nameU="visVersion" v:val="VT0(14):26"/>
			</v:userDefs>
			<v:textBlock v:margins="rect(0,0,0,0)"/>
			<v:textRect cx="16.3125" cy="230.317" width="32.63" height="25.125"/>
			<rect x="0" y="217.754" width="32.625" height="25.125" rx="2.7" ry="2.7" class="st4"/>
			<text x="6.6" y="232.72" class="st5" v:langID="1033"><v:paragraph v:horizAlign="1"/><v:tabList/>Port1</text>		</g>
		<g id="shape9-16" v:mID="9" v:groupContext="shape" transform="translate(112.792,-80.4106)">
			<title>Rounded rectangle.6</title>
			<desc>MAC3</desc>
			<v:userDefs>
				<v:ud v:nameU="visVersion" v:val="VT0(14):26"/>
			</v:userDefs>
			<v:textBlock v:margins="rect(0,0,0,0)"/>
			<v:textRect cx="21.9375" cy="230.036" width="43.88" height="25.6875"/>
			<rect x="0" y="217.192" width="43.875" height="25.6875" rx="2.7" ry="2.7" class="st6"/>
			<text x="10.99" y="232.44" class="st5" v:langID="1033"><v:paragraph v:horizAlign="1"/><v:tabList/>MAC3</text>		</g>
		<g id="shape10-19" v:mID="10" v:groupContext="shape" v:layerMember="0" transform="translate(72.2917,-86.8793)">
			<title>1-D double.528</title>
			<v:userDefs>
				<v:ud v:nameU="visVersion" v:val="VT0(14):26"/>
			</v:userDefs>
			<path d="M6.38 232.68 L6.38 230.13 L0 236.5 L6.38 242.88 L6.38 240.33 L30.75 240.33 L30.75 242.88 L37.12 236.5 L30.75
						 230.13 L30.75 232.68 L6.38 232.68 Z" class="st7"/>
		</g>
		<g id="shape11-21" v:mID="11" v:groupContext="shape" transform="translate(39.6667,-25.9418)">
			<title>Rounded rectangle.7</title>
			<desc>Port0</desc>
			<v:userDefs>
				<v:ud v:nameU="visVersion" v:val="VT0(14):26"/>
			</v:userDefs>
			<v:textBlock v:margins="rect(0,0,0,0)"/>
			<v:textRect cx="16.3125" cy="230.317" width="32.63" height="25.125"/>
			<rect x="0" y="217.754" width="32.625" height="25.125" rx="2.7" ry="2.7" class="st4"/>
			<text x="6.6" y="232.72" class="st5" v:langID="1033"><v:paragraph v:horizAlign="1"/><v:tabList/>Port0</text>		</g>
		<g id="shape12-24" v:mID="12" v:groupContext="shape" transform="translate(112.792,-25.6606)">
			<title>Rounded rectangle.12</title>
			<desc>MAC2</desc>
			<v:userDefs>
				<v:ud v:nameU="visVersion" v:val="VT0(14):26"/>
			</v:userDefs>
			<v:textBlock v:margins="rect(0,0,0,0)"/>
			<v:textRect cx="21.9375" cy="230.036" width="43.88" height="25.6875"/>
			<rect x="0" y="217.192" width="43.875" height="25.6875" rx="2.7" ry="2.7" class="st6"/>
			<text x="10.99" y="232.44" class="st5" v:langID="1033"><v:paragraph v:horizAlign="1"/><v:tabList/>MAC2</text>		</g>
		<g id="shape13-27" v:mID="13" v:groupContext="shape" v:layerMember="0" transform="translate(72.2917,-32.1293)">
			<title>1-D double.9</title>
			<v:userDefs>
				<v:ud v:nameU="visVersion" v:val="VT0(14):26"/>
			</v:userDefs>
			<path d="M6.38 232.68 L6.38 230.13 L0 236.5 L6.38 242.88 L6.38 240.33 L34.12 240.33 L34.12 242.88 L40.5 236.5 L34.12
						 230.13 L34.12 232.68 L6.38 232.68 Z" class="st7"/>
		</g>
		<g id="shape14-29" v:mID="14" v:groupContext="shape" transform="translate(93.6667,-58.7543)">
			<title>Rounded rectangle.14</title>
			<desc>2x 10/25G</desc>
			<v:userDefs>
				<v:ud v:nameU="visVersion" v:val="VT0(14):26"/>
			</v:userDefs>
			<v:textBlock v:margins="rect(4,4,4,4)"/>
			<v:textRect cx="24.1875" cy="236.129" width="48.38" height="13.5"/>
			<rect x="0" y="229.379" width="48.375" height="13.5" rx="4.5" ry="4.5" class="st8"/>
			<text x="4" y="237.93" class="st9" v:langID="1033"><v:paragraph/><v:tabList/>2x 10/25G</text>		</g>
		<g id="shape15-32" v:mID="15" v:groupContext="shape" transform="translate(33.4792,-58.7543)">
			<title>Rounded rectangle.11</title>
			<desc>X2</desc>
			<v:userDefs>
				<v:ud v:nameU="visVersion" v:val="VT0(14):26"/>
			</v:userDefs>
			<v:textBlock v:margins="rect(4,4,4,4)"/>
			<v:textRect cx="13.7812" cy="236.129" width="27.57" height="13.5"/>
			<rect x="0" y="229.379" width="27.5625" height="13.5" rx="4.5" ry="4.5" class="st8"/>
			<text x="7.74" y="239.13" class="st2" v:langID="1033"><v:paragraph v:horizAlign="1"/><v:tabList/>X2</text>		</g>
		<g id="shape16-35" v:mID="16" v:groupContext="shape" transform="translate(178.042,-26.1293)">
			<title>Rounded rectangle.10</title>
			<desc>FPGA</desc>
			<v:userDefs>
				<v:ud v:nameU="visVersion" v:val="VT0(14):26"/>
			</v:userDefs>
			<v:textBlock v:margins="rect(4,4,4,4)"/>
			<v:textRect cx="53.7187" cy="200.692" width="107.44" height="84.375"/>
			<rect x="0" y="158.504" width="107.437" height="84.375" rx="9" ry="9" class="st1"/>
			<text x="40.98" y="203.69" class="st2" v:langID="1033"><v:paragraph v:horizAlign="1"/><v:tabList/>FPGA</text>		</g>
		<g id="shape17-38" v:mID="17" v:groupContext="shape" transform="translate(337.792,-80.4106)">
			<title>Rounded rectangle.13</title>
			<desc>MAC1</desc>
			<v:userDefs>
				<v:ud v:nameU="visVersion" v:val="VT0(14):26"/>
			</v:userDefs>
			<v:textBlock v:margins="rect(0,0,0,0)"/>
			<v:textRect cx="21.9375" cy="230.036" width="43.88" height="25.6875"/>
			<rect x="0" y="217.192" width="43.875" height="25.6875" rx="2.7" ry="2.7" class="st6"/>
			<text x="10.99" y="232.44" class="st5" v:langID="1033"><v:paragraph v:horizAlign="1"/><v:tabList/>MAC1</text>		</g>
		<g id="shape18-41" v:mID="18" v:groupContext="shape" transform="translate(337.792,-25.6606)">
			<title>Rounded rectangle.18</title>
			<desc>MAC0</desc>
			<v:userDefs>
				<v:ud v:nameU="visVersion" v:val="VT0(14):26"/>
			</v:userDefs>
			<v:textBlock v:margins="rect(0,0,0,0)"/>
			<v:textRect cx="21.9375" cy="230.036" width="43.88" height="25.6875"/>
			<rect x="0" y="217.192" width="43.875" height="25.6875" rx="2.7" ry="2.7" class="st6"/>
			<text x="10.99" y="232.44" class="st5" v:langID="1033"><v:paragraph v:horizAlign="1"/><v:tabList/>MAC0</text>		</g>
		<g id="shape20-44" v:mID="20" v:groupContext="shape" transform="translate(5.61667,-191.204)">
			<title>Rounded rectangle.527</title>
			<desc>VM0</desc>
			<v:userDefs>
				<v:ud v:nameU="visVersion" v:val="VT0(14):26"/>
			</v:userDefs>
			<v:textBlock v:margins="rect(4,4,4,4)"/>
			<v:textRect cx="13.5717" cy="232.022" width="27.15" height="21.7147"/>
			<rect x="0" y="221.165" width="27.1433" height="21.7147" rx="4.5" ry="4.5" class="st10"/>
			<text x="7.36" y="233.82" class="st9" v:langID="1033"><v:paragraph v:horizAlign="1"/><v:tabList/>VM0</text>		</g>
		<g id="shape21-47" v:mID="21" v:groupContext="shape" transform="translate(50.4,-191.204)">
			<title>Rounded rectangle.21</title>
			<desc>VM1</desc>
			<v:userDefs>
				<v:ud v:nameU="visVersion" v:val="VT0(14):26"/>
			</v:userDefs>
			<v:textBlock v:margins="rect(4,4,4,4)"/>
			<v:textRect cx="13.1967" cy="232.322" width="26.4" height="21.1147"/>
			<rect x="0" y="221.765" width="26.3933" height="21.1147" rx="4.5" ry="4.5" class="st10"/>
			<text x="6.98" y="234.12" class="st9" v:langID="1033"><v:paragraph v:horizAlign="1"/><v:tabList/>VM1</text>		</g>
		<g id="shape22-50" v:mID="22" v:groupContext="shape" transform="translate(6.47917,-235.129)">
			<title>Rounded rectangle.22</title>
			<desc>SRIOV</desc>
			<v:userDefs>
				<v:ud v:nameU="visVersion" v:val="VT0(14):26"/>
			</v:userDefs>
			<v:textBlock v:margins="rect(4,4,4,4)"/>
			<v:textRect cx="15.1875" cy="239.504" width="30.38" height="6.75"/>
			<rect x="0" y="236.129" width="30.375" height="6.75" rx="3.375" ry="3.375" class="st8"/>
			<text x="4" y="241.3" class="st9" v:langID="1033"><v:paragraph/><v:tabList/>SRIOV</text>		</g>
		<g id="shape23-53" v:mID="23" v:groupContext="shape" transform="translate(311.917,-181.838)">
			<title>Rounded rectangle.23</title>
			<desc>User Space</desc>
			<v:userDefs>
				<v:ud v:nameU="visVersion" v:val="VT0(14):26"/>
			</v:userDefs>
			<v:textBlock v:margins="rect(4,4,4,4)"/>
			<v:textRect cx="25.9167" cy="239.504" width="51.84" height="6.75"/>
			<rect x="0" y="236.129" width="51.8333" height="6.75" rx="3.375" ry="3.375" class="st8"/>
			<text x="7.58" y="241.9" class="st11" v:langID="1033"><v:paragraph v:horizAlign="2"/><v:tabList/>User Space</text>		</g>
		<g id="shape24-56" v:mID="24" v:groupContext="shape" transform="translate(305.729,-148.754)">
			<title>Rounded rectangle.24</title>
			<desc>Kernel Space</desc>
			<v:userDefs>
				<v:ud v:nameU="visVersion" v:val="VT0(14):26"/>
			</v:userDefs>
			<v:textBlock v:margins="rect(4,4,4,4)"/>
			<v:textRect cx="29.0104" cy="239.504" width="58.03" height="6.75"/>
			<rect x="0" y="236.129" width="58.0208" height="6.75" rx="3.375" ry="3.375" class="st8"/>
			<text x="7.47" y="241.9" class="st11" v:langID="1033"><v:paragraph v:horizAlign="2"/><v:tabList/>Kernel Space</text>		</g>
		<g id="shape25-59" v:mID="25" v:groupContext="shape" transform="translate(344,-61.0043)">
			<title>Rounded rectangle.25</title>
			<desc>2x 10/25G</desc>
			<v:userDefs>
				<v:ud v:nameU="visVersion" v:val="VT0(14):26"/>
			</v:userDefs>
			<v:textBlock v:margins="rect(4,4,4,4)"/>
			<v:textRect cx="24.1875" cy="236.129" width="48.38" height="13.5"/>
			<rect x="0" y="229.379" width="48.375" height="13.5" rx="4.5" ry="4.5" class="st8"/>
			<text x="4" y="237.93" class="st9" v:langID="1033"><v:paragraph/><v:tabList/>2x 10/25G</text>		</g>
		<g id="shape26-62" v:mID="26" v:groupContext="shape" transform="translate(1,-146.857)">
			<title>Rounded rectangle.36</title>
			<desc>sfc.ko</desc>
			<v:userDefs>
				<v:ud v:nameU="visVersion" v:val="VT0(14):26"/>
			</v:userDefs>
			<v:textBlock v:margins="rect(4,4,4,4)"/>
			<v:textRect cx="29.0104" cy="239.504" width="58.03" height="6.75"/>
			<rect x="0" y="236.129" width="58.0208" height="6.75" rx="3.375" ry="3.375" class="st8"/>
			<text x="4" y="241.9" class="st11" v:langID="1033"><v:paragraph/><v:tabList/>sfc.ko</text>		</g>
		<g id="shape27-65" v:mID="27" v:groupContext="shape" transform="translate(160.616,-163.391)">
			<title>Rounded rectangle.37</title>
			<desc>openvswitch.ko</desc>
			<v:userDefs>
				<v:ud v:nameU="visVersion" v:val="VT0(14):26"/>
			</v:userDefs>
			<v:textBlock v:margins="rect(4,4,4,4)"/>
			<v:textRect cx="33.5104" cy="239.504" width="67.03" height="6.75"/>
			<rect x="0" y="236.129" width="67.0208" height="6.75" rx="3.375" ry="3.375" class="st8"/>
			<text x="5.72" y="241.9" class="st11" v:langID="1033"><v:paragraph v:horizAlign="1"/><v:tabList/>openvswitch.ko</text>		</g>
		<g id="shape28-68" v:mID="28" v:groupContext="shape" transform="translate(169.616,-196.016)">
			<title>Rounded rectangle.38</title>
			<desc>vswitchd</desc>
			<v:userDefs>
				<v:ud v:nameU="visVersion" v:val="VT0(14):26"/>
			</v:userDefs>
			<v:textBlock v:margins="rect(4,4,4,4)"/>
			<v:textRect cx="33.5104" cy="239.504" width="67.03" height="6.75"/>
			<rect x="0" y="236.129" width="67.0208" height="6.75" rx="3.375" ry="3.375" class="st8"/>
			<text x="17.5" y="241.9" class="st12" v:langID="1033"><v:paragraph v:horizAlign="1"/><v:tabList/>vswitchd</text>		</g>
		<g id="shape30-71" v:mID="30" v:groupContext="shape" transform="translate(88.8067,-191.188)">
			<title>Rounded rectangle.30</title>
			<desc>VM2</desc>
			<v:userDefs>
				<v:ud v:nameU="visVersion" v:val="VT0(14):26"/>
			</v:userDefs>
			<v:textBlock v:margins="rect(4,4,4,4)"/>
			<v:textRect cx="13.1967" cy="232.322" width="26.4" height="21.1147"/>
			<rect x="0" y="221.765" width="26.3933" height="21.1147" rx="4.5" ry="4.5" class="st10"/>
			<text x="6.98" y="234.12" class="st9" v:langID="1033"><v:paragraph v:horizAlign="1"/><v:tabList/>VM2</text>		</g>
		<g id="shape31-74" v:mID="31" v:groupContext="shape" transform="translate(122.282,-191.188)">
			<title>Rounded rectangle.31</title>
			<desc>VM3</desc>
			<v:userDefs>
				<v:ud v:nameU="visVersion" v:val="VT0(14):26"/>
			</v:userDefs>
			<v:textBlock v:margins="rect(4,4,4,4)"/>
			<v:textRect cx="13.1967" cy="232.322" width="26.4" height="21.1147"/>
			<rect x="0" y="221.765" width="26.3933" height="21.1147" rx="4.5" ry="4.5" class="st10"/>
			<text x="6.98" y="234.12" class="st9" v:langID="1033"><v:paragraph v:horizAlign="1"/><v:tabList/>VM3</text>		</g>
		<g id="shape29-77" v:mID="29" v:groupContext="shape" transform="translate(358.611,0)">
			<title>Sheet.29</title>
			<desc>X25552-090721</desc>
			<v:userDefs>
				<v:ud v:nameU="Margin" v:prompt="" v:val="VT0(0):26"/>
				<v:ud v:nameU="Class" v:prompt="" v:val="VT4(Xilinx.Visio.XNumberShape)"/>
				<v:ud v:nameU="Comment" v:prompt="" v:val="VT4(X-Number: X25552-090721)"/>
			</v:userDefs>
			<v:textBlock v:margins="rect(0,0,0,0)"/>
			<v:textRect cx="18.3193" cy="239.878" width="36.64" height="6.00345"/>
			<path d="M0 242.88 L36.64 242.88 L36.64 236.88 L0 236.88 L0 242.88 Z" class="st13"/>
			<path d="M0 242.88 L36.64 242.88 L36.64 236.88 L0 236.88 L0 242.88" class="st14"/>
			<path d="M0 244.38 L36.64 244.38" class="st14"/>
			<text x="1.24" y="241.38" class="st15" v:langID="1033"><v:paragraph v:horizAlign="2"/><v:tabList/>X25552-090721</text>		</g>
		<g id="shape6-82" v:mID="6" v:groupContext="shape" v:layerMember="0" transform="translate(12.24,-184.35)">
			<title>Standard Arrow.6</title>
			<path d="M0 242.35 L0 242.71 L0 391.87 A4.5 4.5 -180 0 0 4.5 396.37 L178.18 396.37 A4.5 4.5 -180 0 0 182.68 391.87 L182.68
						 386.11 A4.5 4.5 -180 0 0 178.18 381.61 L11.7 381.61 A4.5 4.5 0 0 1 7.2 377.11 L7.2 258.78 A4.5 4.5 0 0 1
						 11.7 254.28 L46.86 254.28 A4.5 4.5 -180 0 0 51.36 249.78 L51.36 242.45" class="st16"/>
		</g>
		<g id="shape32-91" v:mID="32" v:groupContext="shape" v:layerMember="0" transform="translate(102.003,-183.988)">
			<title>Standard Arrow.32</title>
			<path d="M0 242.22 L0 242.58 L0 256.62 A4.5 4.5 0 0 1 -4.5 261.12 L-71.22 261.12 A4.5 4.5 -180 0 0 -75.72 265.62 L-75.72
						 336.54 A4.5 4.5 -180 0 0 -71.22 341.04 L86.9 341.04 A4.5 4.5 -180 0 0 91.4 336.54 L91.4 331.14 A4.5 4.5
						 -180 0 0 86.9 326.64 L-64.38 326.64 A4.5 4.5 0 0 1 -68.88 322.14 L-68.88 276.42 A4.5 4.5 0 0 1 -64.38 271.92
						 L28.98 271.92 A4.5 4.5 -180 0 0 33.48 267.42 L33.48 242.58" class="st16"/>
		</g>
	</g>
</svg>
