<?xml version="1.0" encoding="UTF-8" standalone="no"?>
<!DOCTYPE svg PUBLIC "-//W3C//DTD SVG 1.1//EN" "http://www.w3.org/Graphics/SVG/1.1/DTD/svg11.dtd">
<!-- Generated by Microsoft Visio, SVG Export idz1631575855541_HiRes.svg Page-1 -->
<svg xmlns="http://www.w3.org/2000/svg" xmlns:xlink="http://www.w3.org/1999/xlink" xmlns:ev="http://www.w3.org/2001/xml-events"
		xmlns:v="http://schemas.microsoft.com/visio/2003/SVGExtensions/" width="6.59138in" height="5.13199in"
		viewBox="0 0 474.58 369.503" xml:space="preserve" color-interpolation-filters="sRGB" class="st20">
	<v:documentProperties v:langID="1033" v:viewMarkup="false">
		<v:userDefs>
			<v:ud v:nameU="msvConvertTheme"/>
		</v:userDefs>
	</v:documentProperties>

	<style type="text/css">
	<![CDATA[
		.st1 {fill:#f2f2f2;stroke:#000000;stroke-linecap:butt;stroke-width:1}
		.st2 {fill:#d8d8d8;stroke:#000000;stroke-linecap:butt;stroke-width:1}
		.st3 {fill:#000000;font-family:Roboto;font-size:0.499992em;font-weight:bold}
		.st4 {fill:#ffffff;stroke:#000000;stroke-width:1}
		.st5 {fill:#000000;font-family:Roboto;font-size:0.499992em}
		.st6 {font-size:1em}
		.st7 {fill:#ffffff;stroke:#000000;stroke-linecap:butt;stroke-width:1}
		.st8 {marker-end:url(#mrkr13-29);marker-start:url(#mrkr13-27);stroke:#000000;stroke-linecap:butt;stroke-width:0.5}
		.st9 {fill:#000000;fill-opacity:1;stroke:#000000;stroke-opacity:1;stroke-width:0.21739130434783}
		.st10 {fill:none;stroke:#000000;stroke-dasharray:1,2;stroke-linecap:butt;stroke-width:1}
		.st11 {stroke:#000000;stroke-dasharray:1,2;stroke-linecap:butt;stroke-width:1}
		.st12 {fill:none;stroke:none;stroke-linecap:butt;stroke-width:1}
		.st13 {fill:#000000;font-family:Roboto;font-size:0.666664em;font-weight:bold}
		.st14 {fill:#000000;font-family:Roboto;font-size:0.666664em}
		.st15 {fill:none}
		.st16 {stroke:#000000;stroke-linecap:butt;stroke-width:1}
		.st17 {fill:#ffffff}
		.st18 {stroke:none;stroke-linecap:round;stroke-linejoin:round;stroke-width:0.75}
		.st19 {fill:#000000;font-family:Roboto;font-size:0.416656em}
		.st20 {fill:none;fill-rule:evenodd;font-size:12px;overflow:visible;stroke-linecap:square;stroke-miterlimit:3}
	]]>
	</style>

	<defs id="Markers">
		<g id="lend13">
			<path d="M 3 1 L 0 0 L 3 -1 L 3 1 " style="stroke:none"/>
		</g>
		<marker id="mrkr13-27" class="st9" v:arrowType="13" v:arrowSize="1" v:setback="13.08" refX="13.08" orient="auto"
				markerUnits="strokeWidth" overflow="visible">
			<use xlink:href="#lend13" transform="scale(4.6) "/>
		</marker>
		<marker id="mrkr13-29" class="st9" v:arrowType="13" v:arrowSize="1" v:setback="13.8" refX="-13.8" orient="auto"
				markerUnits="strokeWidth" overflow="visible">
			<use xlink:href="#lend13" transform="scale(-4.6,-4.6) "/>
		</marker>
	</defs>
	<g v:mID="0" v:index="1" v:groupContext="foregroundPage">
		<title>Page-1</title>
		<v:pageProperties v:drawingScale="1" v:pageScale="1" v:drawingUnits="0" v:shadowOffsetX="0" v:shadowOffsetY="0"/>
		<v:layer v:name="Connector" v:index="0"/>
		<g id="shape26-1" v:mID="26" v:groupContext="shape" transform="translate(328.642,-216.628)">
			<title>Rounded rectangle.26</title>
			<v:userDefs>
				<v:ud v:nameU="visVersion" v:val="VT0(14):26"/>
			</v:userDefs>
			<rect x="0" y="217.628" width="143.438" height="151.875" rx="4.5" ry="4.5" class="st1"/>
		</g>
		<g id="shape19-3" v:mID="19" v:groupContext="shape" transform="translate(1.26711,-216.628)">
			<title>Rounded rectangle.19</title>
			<v:userDefs>
				<v:ud v:nameU="visVersion" v:val="VT0(14):26"/>
			</v:userDefs>
			<rect x="0" y="217.628" width="143.438" height="151.875" rx="4.5" ry="4.5" class="st1"/>
		</g>
		<g id="shape7-5" v:mID="7" v:groupContext="shape" transform="translate(6.32961,-216.628)">
			<title>Rounded rectangle.7</title>
			<desc>U25N</desc>
			<v:userDefs>
				<v:ud v:nameU="visVersion" v:val="VT0(14):26"/>
			</v:userDefs>
			<v:textBlock v:margins="rect(4,4,4,4)"/>
			<v:textRect cx="66.375" cy="341.941" width="132.75" height="55.125"/>
			<rect x="0" y="314.378" width="132.75" height="55.125" rx="4.5" ry="4.5" class="st2"/>
			<text x="113.68" y="343.74" class="st3" v:langID="1033"><v:paragraph v:horizAlign="2"/><v:tabList/>U25N</text>		</g>
		<g id="shape2-8" v:mID="2" v:groupContext="shape" transform="translate(56.9546,-224.503)">
			<title>Rectangle.533</title>
			<desc>FPGA OVS</desc>
			<v:userDefs>
				<v:ud v:nameU="visVersion" v:val="VT0(14):26"/>
			</v:userDefs>
			<v:textBlock v:margins="rect(8,4,4,4)"/>
			<v:textRect cx="15.75" cy="357.128" width="31.5" height="24.75"/>
			<rect x="0" y="344.753" width="31.5" height="24.75" class="st4"/>
			<text x="8.2" y="357.33" class="st5" v:langID="1033"><v:paragraph v:horizAlign="1"/><v:tabList/>FPGA <tspan x="10"
						dy="1.2em" class="st6">OVS</tspan></text>		</g>
		<g id="shape3-12" v:mID="3" v:groupContext="shape" transform="translate(16.4546,-212.503)">
			<title>Rounded rectangle.6</title>
			<desc>25G</desc>
			<v:userDefs>
				<v:ud v:nameU="visVersion" v:val="VT0(14):26"/>
			</v:userDefs>
			<v:textBlock v:margins="rect(0,0,0,0)"/>
			<v:textRect cx="10.6875" cy="365.191" width="21.38" height="8.625"/>
			<rect x="0" y="360.878" width="21.375" height="8.625" rx="2.7" ry="2.7" class="st7"/>
			<text x="5.28" y="366.99" class="st5" v:langID="1033"><v:paragraph v:horizAlign="1"/><v:tabList/>25G</text>		</g>
		<g id="shape4-15" v:mID="4" v:groupContext="shape" transform="translate(108.705,-212.503)">
			<title>Rounded rectangle.4</title>
			<desc>25G</desc>
			<v:userDefs>
				<v:ud v:nameU="visVersion" v:val="VT0(14):26"/>
			</v:userDefs>
			<v:textBlock v:margins="rect(0,0,0,0)"/>
			<v:textRect cx="10.6875" cy="365.191" width="21.38" height="8.625"/>
			<rect x="0" y="360.878" width="21.375" height="8.625" rx="2.7" ry="2.7" class="st7"/>
			<text x="5.28" y="366.99" class="st5" v:langID="1033"><v:paragraph v:horizAlign="1"/><v:tabList/>25G</text>		</g>
		<g id="shape5-18" v:mID="5" v:groupContext="shape" transform="translate(11.3921,-253.753)">
			<title>Rounded rectangle.5</title>
			<desc>X2</desc>
			<v:userDefs>
				<v:ud v:nameU="visVersion" v:val="VT0(14):26"/>
			</v:userDefs>
			<v:textBlock v:margins="rect(0,0,0,0)"/>
			<v:textRect cx="61.0313" cy="362.753" width="122.07" height="13.5"/>
			<rect x="0" y="356.003" width="122.063" height="13.5" rx="2.7" ry="2.7" class="st7"/>
			<text x="57.47" y="364.55" class="st5" v:langID="1033"><v:paragraph v:horizAlign="1"/><v:tabList/>X2</text>		</g>
		<g id="shape6-21" v:mID="6" v:groupContext="shape" v:layerMember="0" transform="translate(119.392,-213.928)">
			<title>Standard Arrow.530</title>
			<path d="M0 355.76 L0 355.4 L0 342.05 A4.5 4.5 -180 0 0 -4.5 337.55 L-87.75 337.55 A4.5 4.5 -180 0 0 -92.25 342.05 L-92.25
						 355.4" class="st8"/>
		</g>
		<g id="shape8-30" v:mID="8" v:groupContext="shape" transform="translate(13.6421,-295.378)">
			<title>Rounded rectangle.8</title>
			<desc>eth1</desc>
			<v:userDefs>
				<v:ud v:nameU="visVersion" v:val="VT0(14):26"/>
			</v:userDefs>
			<v:textBlock v:margins="rect(0,0,0,0)"/>
			<v:textRect cx="13.2187" cy="365.191" width="26.44" height="8.625"/>
			<rect x="0" y="360.878" width="26.4375" height="8.625" rx="2.7" ry="2.7" class="st7"/>
			<text x="7.31" y="366.99" class="st5" v:langID="1033"><v:paragraph v:horizAlign="1"/><v:tabList/>eth1</text>		</g>
		<g id="shape9-33" v:mID="9" v:groupContext="shape" transform="translate(108.142,-295.378)">
			<title>Rounded rectangle.9</title>
			<desc>eth0</desc>
			<v:userDefs>
				<v:ud v:nameU="visVersion" v:val="VT0(14):26"/>
			</v:userDefs>
			<v:textBlock v:margins="rect(0,0,0,0)"/>
			<v:textRect cx="13.2188" cy="365.191" width="26.44" height="8.625"/>
			<rect x="0" y="360.878" width="26.4375" height="8.625" rx="2.7" ry="2.7" class="st7"/>
			<text x="7.31" y="366.99" class="st5" v:langID="1033"><v:paragraph v:horizAlign="1"/><v:tabList/>eth0</text>		</g>
		<g id="shape10-36" v:mID="10" v:groupContext="shape" transform="translate(11.3921,-281.128)">
			<title>Rounded rectangle.10</title>
			<desc>sfc.ko</desc>
			<v:userDefs>
				<v:ud v:nameU="visVersion" v:val="VT0(14):26"/>
			</v:userDefs>
			<v:textBlock v:margins="rect(0,0,0,0)"/>
			<v:textRect cx="61.0313" cy="365.191" width="122.07" height="8.625"/>
			<rect x="0" y="360.878" width="122.063" height="8.625" rx="2.7" ry="2.7" class="st7"/>
			<text x="52.85" y="366.99" class="st5" v:langID="1033"><v:paragraph v:horizAlign="1"/><v:tabList/>sfc.ko</text>		</g>
		<g id="shape11-39" v:mID="11" v:groupContext="shape" transform="translate(57.5171,-318.253)">
			<title>Rounded rectangle.11</title>
			<desc>gre_sys</desc>
			<v:userDefs>
				<v:ud v:nameU="visVersion" v:val="VT0(14):26"/>
			</v:userDefs>
			<v:textBlock v:margins="rect(0,0,0,0)"/>
			<v:textRect cx="17.1563" cy="365.191" width="34.32" height="8.625"/>
			<rect x="0" y="360.878" width="34.3125" height="8.625" rx="2.7" ry="2.7" class="st7"/>
			<text x="7" y="366.99" class="st5" v:langID="1033"><v:paragraph v:horizAlign="1"/><v:tabList/>gre_sys</text>		</g>
		<g id="shape12-42" v:mID="12" v:groupContext="shape" transform="translate(29.6734,-331.378)">
			<title>Rounded rectangle.12</title>
			<desc>openvswitch.ko</desc>
			<v:userDefs>
				<v:ud v:nameU="visVersion" v:val="VT0(14):26"/>
			</v:userDefs>
			<v:textBlock v:margins="rect(0,0,0,0)"/>
			<v:textRect cx="26.5781" cy="365.191" width="53.16" height="8.625"/>
			<rect x="0" y="360.878" width="53.1563" height="8.625" rx="2.7" ry="2.7" class="st7"/>
			<text x="5.73" y="366.99" class="st5" v:langID="1033"><v:paragraph v:horizAlign="1"/><v:tabList/>openvswitch.ko</text>		</g>
		<g id="shape15-45" v:mID="15" v:groupContext="shape" transform="translate(53.0171,-355.378)">
			<title>Rounded rectangle.15</title>
			<desc>vswitchd</desc>
			<v:userDefs>
				<v:ud v:nameU="visVersion" v:val="VT0(14):26"/>
			</v:userDefs>
			<v:textBlock v:margins="rect(0,0,0,0)"/>
			<v:textRect cx="17.1563" cy="365.191" width="34.32" height="8.625"/>
			<rect x="0" y="360.878" width="34.3125" height="8.625" rx="2.7" ry="2.7" class="st7"/>
			<text x="5.28" y="366.99" class="st5" v:langID="1033"><v:paragraph v:horizAlign="1"/><v:tabList/>vswitchd</text>		</g>
		<g id="shape16-48" v:mID="16" v:groupContext="shape" transform="translate(6.32961,-293.128)">
			<title>Rounded rectangle.16</title>
			<v:userDefs>
				<v:ud v:nameU="visVersion" v:val="VT0(14):26"/>
			</v:userDefs>
			<rect x="0" y="295.816" width="91.125" height="73.6875" rx="4.5" ry="4.5" class="st10"/>
		</g>
		<g id="shape17-50" v:mID="17" v:groupContext="shape" v:layerMember="0" transform="translate(144.705,-337.678)">
			<title>Sheet.17</title>
			<path d="M0 362.3 L-143.7 362.3" class="st11"/>
		</g>
		<g id="shape18-53" v:mID="18" v:groupContext="shape" v:layerMember="0" transform="translate(144.705,-270.178)">
			<title>Sheet.18</title>
			<path d="M0 362.3 L-143.7 362.3" class="st11"/>
		</g>
		<g id="shape20-56" v:mID="20" v:groupContext="shape" transform="translate(20.0692,-344.878)">
			<title>Rounded rectangle.20</title>
			<desc>OVS-Bridge</desc>
			<v:userDefs>
				<v:ud v:nameU="visVersion" v:val="VT0(14):26"/>
			</v:userDefs>
			<v:textBlock v:margins="rect(4,4,4,4)"/>
			<v:textRect cx="33.5104" cy="366.128" width="67.03" height="6.75"/>
			<rect x="0" y="362.753" width="67.0208" height="6.75" rx="3.375" ry="3.375" class="st12"/>
			<text x="12.35" y="368.53" class="st13" v:langID="1033"><v:paragraph v:horizAlign="1"/><v:tabList/>OVS-Bridge</text>		</g>
		<g id="shape21-59" v:mID="21" v:groupContext="shape" transform="translate(40.0796,-296.503)">
			<title>Rounded rectangle.21</title>
			<desc>SERVER 1</desc>
			<v:userDefs>
				<v:ud v:nameU="visVersion" v:val="VT0(14):26"/>
			</v:userDefs>
			<v:textBlock v:margins="rect(4,4,4,4)"/>
			<v:textRect cx="26.1979" cy="366.128" width="52.4" height="6.75"/>
			<rect x="0" y="362.753" width="52.3958" height="6.75" rx="3.375" ry="3.375" class="st12"/>
			<text x="12.45" y="368.53" class="st13" v:langID="1033"><v:paragraph v:horizAlign="2"/><v:tabList/>SERVER 1</text>		</g>
		<g id="shape22-62" v:mID="22" v:groupContext="shape" transform="translate(104.205,-349.378)">
			<title>Rounded rectangle.22</title>
			<desc>userspace</desc>
			<v:userDefs>
				<v:ud v:nameU="visVersion" v:val="VT0(14):26"/>
			</v:userDefs>
			<v:textBlock v:margins="rect(4,4,4,4)"/>
			<v:textRect cx="19.6875" cy="366.128" width="39.38" height="6.75"/>
			<rect x="0" y="362.753" width="39.375" height="6.75" rx="3.375" ry="3.375" class="st12"/>
			<text x="7.72" y="367.93" class="st5" v:langID="1033"><v:paragraph v:horizAlign="2"/><v:tabList/>userspace</text>		</g>
		<g id="shape24-65" v:mID="24" v:groupContext="shape" transform="translate(99.7046,-334.753)">
			<title>Rounded rectangle.24</title>
			<desc>kernelspace</desc>
			<v:userDefs>
				<v:ud v:nameU="visVersion" v:val="VT0(14):26"/>
			</v:userDefs>
			<v:textBlock v:margins="rect(4,4,4,4)"/>
			<v:textRect cx="21.9375" cy="366.128" width="43.88" height="6.75"/>
			<rect x="0" y="362.753" width="43.875" height="6.75" rx="3.375" ry="3.375" class="st12"/>
			<text x="7.64" y="367.93" class="st5" v:langID="1033"><v:paragraph v:horizAlign="2"/><v:tabList/>kernelspace</text>		</g>
		<g id="shape25-68" v:mID="25" v:groupContext="shape" transform="translate(104.205,-308.878)">
			<title>Rounded rectangle.25</title>
			<desc>10.16.0.2</desc>
			<v:userDefs>
				<v:ud v:nameU="visVersion" v:val="VT0(14):26"/>
			</v:userDefs>
			<v:textBlock v:margins="rect(4,4,4,4)"/>
			<v:textRect cx="16.875" cy="366.128" width="33.75" height="6.75"/>
			<rect x="0" y="362.753" width="33.75" height="6.75" rx="3.375" ry="3.375" class="st12"/>
			<text x="4.8" y="367.93" class="st5" v:langID="1033"><v:paragraph v:horizAlign="2"/><v:tabList/>10.16.0.2</text>		</g>
		<g id="shape27-71" v:mID="27" v:groupContext="shape" transform="translate(333.705,-216.628)">
			<title>Rounded rectangle.27</title>
			<desc>U25N</desc>
			<v:userDefs>
				<v:ud v:nameU="visVersion" v:val="VT0(14):26"/>
			</v:userDefs>
			<v:textBlock v:margins="rect(4,4,4,4)"/>
			<v:textRect cx="66.375" cy="341.941" width="132.75" height="55.125"/>
			<rect x="0" y="314.378" width="132.75" height="55.125" rx="4.5" ry="4.5" class="st2"/>
			<text x="113.68" y="343.74" class="st3" v:langID="1033"><v:paragraph v:horizAlign="2"/><v:tabList/>U25N</text>		</g>
		<g id="shape28-74" v:mID="28" v:groupContext="shape" transform="translate(384.33,-224.503)">
			<title>Rectangle.28</title>
			<desc>FPGA OVS</desc>
			<v:userDefs>
				<v:ud v:nameU="visVersion" v:val="VT0(14):26"/>
			</v:userDefs>
			<v:textBlock v:margins="rect(8,4,4,4)"/>
			<v:textRect cx="15.75" cy="357.128" width="31.5" height="24.75"/>
			<rect x="0" y="344.753" width="31.5" height="24.75" class="st4"/>
			<text x="8.2" y="357.33" class="st5" v:langID="1033"><v:paragraph v:horizAlign="1"/><v:tabList/>FPGA <tspan x="10"
						dy="1.2em" class="st6">OVS</tspan></text>		</g>
		<g id="shape29-78" v:mID="29" v:groupContext="shape" transform="translate(343.83,-212.503)">
			<title>Rounded rectangle.29</title>
			<desc>25G</desc>
			<v:userDefs>
				<v:ud v:nameU="visVersion" v:val="VT0(14):26"/>
			</v:userDefs>
			<v:textBlock v:margins="rect(0,0,0,0)"/>
			<v:textRect cx="10.6875" cy="365.191" width="21.38" height="8.625"/>
			<rect x="0" y="360.878" width="21.375" height="8.625" rx="2.7" ry="2.7" class="st7"/>
			<text x="5.28" y="366.99" class="st5" v:langID="1033"><v:paragraph v:horizAlign="1"/><v:tabList/>25G</text>		</g>
		<g id="shape30-81" v:mID="30" v:groupContext="shape" transform="translate(436.08,-212.503)">
			<title>Rounded rectangle.30</title>
			<desc>25G</desc>
			<v:userDefs>
				<v:ud v:nameU="visVersion" v:val="VT0(14):26"/>
			</v:userDefs>
			<v:textBlock v:margins="rect(0,0,0,0)"/>
			<v:textRect cx="10.6875" cy="365.191" width="21.38" height="8.625"/>
			<rect x="0" y="360.878" width="21.375" height="8.625" rx="2.7" ry="2.7" class="st7"/>
			<text x="5.28" y="366.99" class="st5" v:langID="1033"><v:paragraph v:horizAlign="1"/><v:tabList/>25G</text>		</g>
		<g id="shape31-84" v:mID="31" v:groupContext="shape" transform="translate(338.767,-253.753)">
			<title>Rounded rectangle.31</title>
			<desc>X2</desc>
			<v:userDefs>
				<v:ud v:nameU="visVersion" v:val="VT0(14):26"/>
			</v:userDefs>
			<v:textBlock v:margins="rect(0,0,0,0)"/>
			<v:textRect cx="61.0313" cy="362.753" width="122.07" height="13.5"/>
			<rect x="0" y="356.003" width="122.063" height="13.5" rx="2.7" ry="2.7" class="st7"/>
			<text x="57.47" y="364.55" class="st5" v:langID="1033"><v:paragraph v:horizAlign="1"/><v:tabList/>X2</text>		</g>
		<g id="shape32-87" v:mID="32" v:groupContext="shape" v:layerMember="0" transform="translate(446.767,-213.928)">
			<title>Standard Arrow.32</title>
			<path d="M0 355.76 L0 355.4 L0 342.05 A4.5 4.5 -180 0 0 -4.5 337.55 L-87.75 337.55 A4.5 4.5 -180 0 0 -92.25 342.05 L-92.25
						 355.4" class="st8"/>
		</g>
		<g id="shape33-94" v:mID="33" v:groupContext="shape" transform="translate(341.017,-295.378)">
			<title>Rounded rectangle.33</title>
			<desc>eth0</desc>
			<v:userDefs>
				<v:ud v:nameU="visVersion" v:val="VT0(14):26"/>
			</v:userDefs>
			<v:textBlock v:margins="rect(0,0,0,0)"/>
			<v:textRect cx="13.2188" cy="365.191" width="26.44" height="8.625"/>
			<rect x="0" y="360.878" width="26.4375" height="8.625" rx="2.7" ry="2.7" class="st7"/>
			<text x="7.31" y="366.99" class="st5" v:langID="1033"><v:paragraph v:horizAlign="1"/><v:tabList/>eth0</text>		</g>
		<g id="shape34-97" v:mID="34" v:groupContext="shape" transform="translate(435.517,-295.378)">
			<title>Rounded rectangle.34</title>
			<desc>eth1</desc>
			<v:userDefs>
				<v:ud v:nameU="visVersion" v:val="VT0(14):26"/>
			</v:userDefs>
			<v:textBlock v:margins="rect(0,0,0,0)"/>
			<v:textRect cx="13.2188" cy="365.191" width="26.44" height="8.625"/>
			<rect x="0" y="360.878" width="26.4375" height="8.625" rx="2.7" ry="2.7" class="st7"/>
			<text x="7.31" y="366.99" class="st5" v:langID="1033"><v:paragraph v:horizAlign="1"/><v:tabList/>eth1</text>		</g>
		<g id="shape35-100" v:mID="35" v:groupContext="shape" transform="translate(338.767,-281.128)">
			<title>Rounded rectangle.35</title>
			<desc>sfc.ko</desc>
			<v:userDefs>
				<v:ud v:nameU="visVersion" v:val="VT0(14):26"/>
			</v:userDefs>
			<v:textBlock v:margins="rect(0,0,0,0)"/>
			<v:textRect cx="61.0313" cy="365.191" width="122.07" height="8.625"/>
			<rect x="0" y="360.878" width="122.063" height="8.625" rx="2.7" ry="2.7" class="st7"/>
			<text x="52.85" y="366.99" class="st5" v:langID="1033"><v:paragraph v:horizAlign="1"/><v:tabList/>sfc.ko</text>		</g>
		<g id="shape36-103" v:mID="36" v:groupContext="shape" transform="translate(384.892,-318.253)">
			<title>Rounded rectangle.36</title>
			<desc>gre_sys</desc>
			<v:userDefs>
				<v:ud v:nameU="visVersion" v:val="VT0(14):26"/>
			</v:userDefs>
			<v:textBlock v:margins="rect(0,0,0,0)"/>
			<v:textRect cx="17.1563" cy="365.191" width="34.32" height="8.625"/>
			<rect x="0" y="360.878" width="34.3125" height="8.625" rx="2.7" ry="2.7" class="st7"/>
			<text x="7" y="366.99" class="st5" v:langID="1033"><v:paragraph v:horizAlign="1"/><v:tabList/>gre_sys</text>		</g>
		<g id="shape37-106" v:mID="37" v:groupContext="shape" transform="translate(396.423,-331.378)">
			<title>Rounded rectangle.37</title>
			<desc>openvswitch.ko</desc>
			<v:userDefs>
				<v:ud v:nameU="visVersion" v:val="VT0(14):26"/>
			</v:userDefs>
			<v:textBlock v:margins="rect(0,0,0,0)"/>
			<v:textRect cx="26.5781" cy="365.191" width="53.16" height="8.625"/>
			<rect x="0" y="360.878" width="53.1563" height="8.625" rx="2.7" ry="2.7" class="st7"/>
			<text x="5.73" y="366.99" class="st5" v:langID="1033"><v:paragraph v:horizAlign="1"/><v:tabList/>openvswitch.ko</text>		</g>
		<g id="shape38-109" v:mID="38" v:groupContext="shape" transform="translate(380.392,-355.378)">
			<title>Rounded rectangle.527.38</title>
			<desc>vswitchd</desc>
			<v:userDefs>
				<v:ud v:nameU="visVersion" v:val="VT0(14):26"/>
			</v:userDefs>
			<v:textBlock v:margins="rect(0,0,0,0)"/>
			<v:textRect cx="17.1563" cy="365.191" width="34.32" height="8.625"/>
			<rect x="0" y="360.878" width="34.3125" height="8.625" rx="2.7" ry="2.7" class="st7"/>
			<text x="5.28" y="366.99" class="st5" v:langID="1033"><v:paragraph v:horizAlign="1"/><v:tabList/>vswitchd</text>		</g>
		<g id="shape39-112" v:mID="39" v:groupContext="shape" transform="translate(373.642,-293.128)">
			<title>Rounded rectangle.39</title>
			<v:userDefs>
				<v:ud v:nameU="visVersion" v:val="VT0(14):26"/>
			</v:userDefs>
			<rect x="0" y="295.816" width="91.125" height="73.6875" rx="4.5" ry="4.5" class="st10"/>
		</g>
		<g id="shape40-114" v:mID="40" v:groupContext="shape" v:layerMember="0" transform="translate(472.08,-337.678)">
			<title>Sheet.40</title>
			<path d="M0 362.3 L-143.7 362.3" class="st11"/>
		</g>
		<g id="shape41-117" v:mID="41" v:groupContext="shape" v:layerMember="0" transform="translate(472.08,-270.178)">
			<title>Sheet.41</title>
			<path d="M0 362.3 L-143.7 362.3" class="st11"/>
		</g>
		<g id="shape42-120" v:mID="42" v:groupContext="shape" transform="translate(394.455,-344.878)">
			<title>Rounded rectangle.42</title>
			<desc>OVS-Bridge</desc>
			<v:userDefs>
				<v:ud v:nameU="visVersion" v:val="VT0(14):26"/>
			</v:userDefs>
			<v:textBlock v:margins="rect(4,4,4,4)"/>
			<v:textRect cx="26.4375" cy="366.128" width="52.88" height="6.75"/>
			<rect x="0" y="362.753" width="52.875" height="6.75" rx="3.375" ry="3.375" class="st12"/>
			<text x="4" y="368.53" class="st13" v:langID="1033"><v:paragraph/><v:tabList/>OVS-Bridge</text>		</g>
		<g id="shape43-123" v:mID="43" v:groupContext="shape" transform="translate(367.455,-296.503)">
			<title>Rounded rectangle.43</title>
			<desc>SERVER 2</desc>
			<v:userDefs>
				<v:ud v:nameU="visVersion" v:val="VT0(14):26"/>
			</v:userDefs>
			<v:textBlock v:margins="rect(4,4,4,4)"/>
			<v:textRect cx="26.1979" cy="366.128" width="52.4" height="6.75"/>
			<rect x="0" y="362.753" width="52.3958" height="6.75" rx="3.375" ry="3.375" class="st12"/>
			<text x="12.45" y="368.53" class="st13" v:langID="1033"><v:paragraph v:horizAlign="2"/><v:tabList/>SERVER 2</text>		</g>
		<g id="shape44-126" v:mID="44" v:groupContext="shape" transform="translate(328.642,-349.378)">
			<title>Rounded rectangle.44</title>
			<desc>userspace</desc>
			<v:userDefs>
				<v:ud v:nameU="visVersion" v:val="VT0(14):26"/>
			</v:userDefs>
			<v:textBlock v:margins="rect(4,4,4,4)"/>
			<v:textRect cx="19.6875" cy="366.128" width="39.38" height="6.75"/>
			<rect x="0" y="362.753" width="39.375" height="6.75" rx="3.375" ry="3.375" class="st12"/>
			<text x="4" y="367.93" class="st5" v:langID="1033"><v:paragraph/><v:tabList/>userspace</text>		</g>
		<g id="shape45-129" v:mID="45" v:groupContext="shape" transform="translate(328.642,-334.753)">
			<title>Rounded rectangle.45</title>
			<desc>kernelspace</desc>
			<v:userDefs>
				<v:ud v:nameU="visVersion" v:val="VT0(14):26"/>
			</v:userDefs>
			<v:textBlock v:margins="rect(4,4,4,4)"/>
			<v:textRect cx="21.9375" cy="366.128" width="43.88" height="6.75"/>
			<rect x="0" y="362.753" width="43.875" height="6.75" rx="3.375" ry="3.375" class="st12"/>
			<text x="4" y="367.93" class="st5" v:langID="1033"><v:paragraph/><v:tabList/>kernelspace</text>		</g>
		<g id="shape46-132" v:mID="46" v:groupContext="shape" transform="translate(333.705,-313.378)">
			<title>Rounded rectangle.46</title>
			<desc>10.16.0.1</desc>
			<v:userDefs>
				<v:ud v:nameU="visVersion" v:val="VT0(14):26"/>
			</v:userDefs>
			<v:textBlock v:margins="rect(4,4,4,4)"/>
			<v:textRect cx="16.875" cy="366.128" width="33.75" height="6.75"/>
			<rect x="0" y="362.753" width="33.75" height="6.75" rx="3.375" ry="3.375" class="st12"/>
			<text x="4.8" y="367.93" class="st5" v:langID="1033"><v:paragraph v:horizAlign="2"/><v:tabList/>10.16.0.1</text>		</g>
		<g id="shape47-135" v:mID="47" v:groupContext="shape" transform="translate(136.83,-8.50345)">
			<title>Rounded rectangle.47</title>
			<desc>Traffic Generator</desc>
			<v:userDefs>
				<v:ud v:nameU="visVersion" v:val="VT0(14):26"/>
			</v:userDefs>
			<v:textBlock v:margins="rect(0,0,0,0)"/>
			<v:textRect cx="102.375" cy="352.066" width="204.75" height="34.875"/>
			<rect x="0" y="334.628" width="204.75" height="34.875" rx="2.7" ry="2.7" class="st1"/>
			<text x="71.99" y="354.47" class="st14" v:langID="1033"><v:paragraph v:horizAlign="1"/><v:tabList/>Traffic Generator</text>		</g>
		<g id="shape48-138" v:mID="48" v:groupContext="shape" transform="translate(162.142,-41.5035)">
			<title>Rounded rectangle.48</title>
			<desc>25G</desc>
			<v:userDefs>
				<v:ud v:nameU="visVersion" v:val="VT0(14):26"/>
			</v:userDefs>
			<v:textBlock v:margins="rect(0,0,0,0)"/>
			<v:textRect cx="10.6875" cy="365.191" width="21.38" height="8.625"/>
			<rect x="0" y="360.878" width="21.375" height="8.625" rx="2.7" ry="2.7" class="st7"/>
			<text x="5.28" y="366.99" class="st5" v:langID="1033"><v:paragraph v:horizAlign="1"/><v:tabList/>25G</text>		</g>
		<g id="shape49-141" v:mID="49" v:groupContext="shape" transform="translate(290.392,-41.5035)">
			<title>Rounded rectangle.49</title>
			<desc>25G</desc>
			<v:userDefs>
				<v:ud v:nameU="visVersion" v:val="VT0(14):26"/>
			</v:userDefs>
			<v:textBlock v:margins="rect(0,0,0,0)"/>
			<v:textRect cx="10.6875" cy="365.191" width="21.38" height="8.625"/>
			<rect x="0" y="360.878" width="21.375" height="8.625" rx="2.7" ry="2.7" class="st7"/>
			<text x="5.28" y="366.99" class="st5" v:langID="1033"><v:paragraph v:horizAlign="1"/><v:tabList/>25G</text>		</g>
		<g id="shape50-144" v:mID="50" v:groupContext="shape" v:layerMember="0" transform="translate(69.3296,-80.5035)">
			<title>Elbow 1.534</title>
			<v:userDefs>
				<v:ud v:nameU="Scale" v:val="VT0(1):26"/>
				<v:ud v:nameU="AntiScale" v:val="VT0(1):26"/>
				<v:ud v:nameU="visVersion" v:val="VT0(14):26"/>
			</v:userDefs>
			<path d="M0 372.2 L100.8 372.2 L100.8 395.38 L99 395.38 L103.5 399.88 L108 395.38 L106.2 395.38 L106.2 366.8 L0 366.8
						 L0 372.2 Z" class="st15"/>
			<path d="M0 372.2 L100.8 372.2 L100.8 395.38 L99 395.38 L103.5 399.88 L108 395.38 L106.2 395.38 L106.2 366.8 L0 366.8"
					class="st16"/>
		</g>
		<g id="shape52-147" v:mID="52" v:groupContext="shape" v:layerMember="0" transform="translate(71.0171,-80.5035)">
			<title>Elbow 1.52</title>
			<v:userDefs>
				<v:ud v:nameU="Scale" v:val="VT0(1):26"/>
				<v:ud v:nameU="AntiScale" v:val="VT0(1):26"/>
				<v:ud v:nameU="visVersion" v:val="VT0(14):26"/>
			</v:userDefs>
			<path d="M0 366.8 L-41.17 366.8 L-41.17 242 L-39.37 242 L-43.87 237.5 L-48.37 242 L-46.57 242 L-46.57 372.2 L0 372.2
						 L0 366.8 Z" class="st15"/>
			<path d="M0 366.8 L-41.17 366.8 L-41.17 242 L-39.37 242 L-43.87 237.5 L-48.37 242 L-46.57 242 L-46.57 372.2 L0 372.2"
					class="st16"/>
		</g>
		<g id="shape55-150" v:mID="55" v:groupContext="shape" v:layerMember="0" transform="translate(391.642,-80.5034)">
			<title>Elbow 1.55</title>
			<v:userDefs>
				<v:ud v:nameU="Scale" v:val="VT0(1):26"/>
				<v:ud v:nameU="AntiScale" v:val="VT0(1):26"/>
				<v:ud v:nameU="visVersion" v:val="VT0(14):26"/>
			</v:userDefs>
			<path d="M0 372.2 L-87.86 372.2 L-87.86 395.38 L-86.06 395.38 L-90.56 399.88 L-95.06 395.38 L-93.26 395.38 L-93.26 366.8
						 L0 366.8 L0 372.2 Z" class="st15"/>
			<path d="M0 372.2 L-87.86 372.2 L-87.86 395.38 L-86.06 395.38 L-90.56 399.88 L-95.06 395.38 L-93.26 395.38 L-93.26 366.8
						 L0 366.8" class="st16"/>
		</g>
		<g id="shape56-153" v:mID="56" v:groupContext="shape" v:layerMember="0" transform="translate(390.517,-80.5035)">
			<title>Elbow 1.56</title>
			<v:userDefs>
				<v:ud v:nameU="Scale" v:val="VT0(1):26"/>
				<v:ud v:nameU="AntiScale" v:val="VT0(1):26"/>
				<v:ud v:nameU="visVersion" v:val="VT0(14):26"/>
			</v:userDefs>
			<path d="M0 366.8 L53.55 366.8 L53.55 242 L51.75 242 L56.25 237.5 L60.75 242 L58.95 242 L58.95 372.2 L0 372.2 L0 366.8
						 Z" class="st15"/>
			<path d="M0 366.8 L53.55 366.8 L53.55 242 L51.75 242 L56.25 237.5 L60.75 242 L58.95 242 L58.95 372.2 L0 372.2"
					class="st16"/>
		</g>
		<g id="shape57-156" v:mID="57" v:groupContext="shape" v:layerMember="0" transform="translate(235.83,-152.503)">
			<title>Elbow 1.57</title>
			<v:userDefs>
				<v:ud v:nameU="Scale" v:val="VT0(1):26"/>
				<v:ud v:nameU="AntiScale" v:val="VT0(1):26"/>
				<v:ud v:nameU="visVersion" v:val="VT0(14):26"/>
			</v:userDefs>
			<path d="M0 366.8 L-113.74 366.8 L-113.74 314 L-111.94 314 L-116.44 309.5 L-120.94 314 L-119.14 314 L-119.14 372.2 L0
						 372.2 L0 366.8 Z" class="st15"/>
			<path d="M0 366.8 L-113.74 366.8 L-113.74 314 L-111.94 314 L-116.44 309.5 L-120.94 314 L-119.14 314 L-119.14 372.2 L0
						 372.2" class="st16"/>
		</g>
		<g id="shape58-159" v:mID="58" v:groupContext="shape" v:layerMember="0" transform="translate(233.58,-152.503)">
			<title>Elbow 1.58</title>
			<v:userDefs>
				<v:ud v:nameU="Scale" v:val="VT0(1):26"/>
				<v:ud v:nameU="AntiScale" v:val="VT0(1):26"/>
				<v:ud v:nameU="visVersion" v:val="VT0(14):26"/>
			</v:userDefs>
			<path d="M0 366.8 L118.24 366.8 L118.24 314 L116.44 314 L120.94 309.5 L125.44 314 L123.64 314 L123.64 372.2 L0 372.2
						 L0 366.8 Z" class="st15"/>
			<path d="M0 366.8 L118.24 366.8 L118.24 314 L116.44 314 L120.94 309.5 L125.44 314 L123.64 314 L123.64 372.2 L0 372.2"
					class="st16"/>
		</g>
		<g id="shape59-162" v:mID="59" v:groupContext="shape" transform="translate(34.6992,-199.753)">
			<title>Rounded rectangle.59</title>
			<desc>Port 1</desc>
			<v:userDefs>
				<v:ud v:nameU="visVersion" v:val="VT0(14):26"/>
			</v:userDefs>
			<v:textBlock v:margins="rect(4,4,4,4)"/>
			<v:textRect cx="16.875" cy="366.128" width="33.75" height="6.75"/>
			<rect x="0" y="362.753" width="33.75" height="6.75" rx="3.375" ry="3.375" class="st12"/>
			<text x="4" y="367.93" class="st5" v:langID="1033"><v:paragraph/><v:tabList/>Port 1</text>		</g>
		<g id="shape60-165" v:mID="60" v:groupContext="shape" transform="translate(125.482,-199.753)">
			<title>Rounded rectangle.60</title>
			<desc>Port 0</desc>
			<v:userDefs>
				<v:ud v:nameU="visVersion" v:val="VT0(14):26"/>
			</v:userDefs>
			<v:textBlock v:margins="rect(4,4,4,4)"/>
			<v:textRect cx="16.875" cy="366.128" width="33.75" height="6.75"/>
			<rect x="0" y="362.753" width="33.75" height="6.75" rx="3.375" ry="3.375" class="st12"/>
			<text x="4" y="367.93" class="st5" v:langID="1033"><v:paragraph/><v:tabList/>Port 0</text>		</g>
		<g id="shape61-168" v:mID="61" v:groupContext="shape" transform="translate(37.8296,-87.9382)">
			<title>Rounded rectangle.61</title>
			<desc>Plaintext</desc>
			<v:userDefs>
				<v:ud v:nameU="visVersion" v:val="VT0(14):26"/>
			</v:userDefs>
			<v:textBlock v:margins="rect(4,4,4,4)"/>
			<v:textRect cx="16.875" cy="366.128" width="33.75" height="6.75"/>
			<rect x="0" y="362.753" width="33.75" height="6.75" rx="3.375" ry="3.375" class="st12"/>
			<text x="4" y="367.93" class="st5" v:langID="1033"><v:paragraph/><v:tabList/>Plaintext</text>		</g>
		<g id="shape62-171" v:mID="62" v:groupContext="shape" transform="translate(398.955,-87.9382)">
			<title>Rounded rectangle.62</title>
			<desc>Plaintext</desc>
			<v:userDefs>
				<v:ud v:nameU="visVersion" v:val="VT0(14):26"/>
			</v:userDefs>
			<v:textBlock v:margins="rect(4,4,4,4)"/>
			<v:textRect cx="16.875" cy="366.128" width="33.75" height="6.75"/>
			<rect x="0" y="362.753" width="33.75" height="6.75" rx="3.375" ry="3.375" class="st12"/>
			<text x="4" y="367.93" class="st5" v:langID="1033"><v:paragraph/><v:tabList/>Plaintext</text>		</g>
		<g id="shape63-174" v:mID="63" v:groupContext="shape" transform="translate(415.83,-199.753)">
			<title>Rounded rectangle.63</title>
			<desc>Port 1</desc>
			<v:userDefs>
				<v:ud v:nameU="visVersion" v:val="VT0(14):26"/>
			</v:userDefs>
			<v:textBlock v:margins="rect(4,4,4,4)"/>
			<v:textRect cx="16.875" cy="366.128" width="33.75" height="6.75"/>
			<rect x="0" y="362.753" width="33.75" height="6.75" rx="3.375" ry="3.375" class="st12"/>
			<text x="4" y="367.93" class="st5" v:langID="1033"><v:paragraph/><v:tabList/>Port 1</text>		</g>
		<g id="shape64-177" v:mID="64" v:groupContext="shape" transform="translate(319.08,-199.753)">
			<title>Rounded rectangle.64</title>
			<desc>Port 0</desc>
			<v:userDefs>
				<v:ud v:nameU="visVersion" v:val="VT0(14):26"/>
			</v:userDefs>
			<v:textBlock v:margins="rect(4,4,4,4)"/>
			<v:textRect cx="16.875" cy="366.128" width="33.75" height="6.75"/>
			<rect x="0" y="362.753" width="33.75" height="6.75" rx="3.375" ry="3.375" class="st12"/>
			<text x="4" y="367.93" class="st5" v:langID="1033"><v:paragraph/><v:tabList/>Port 0</text>		</g>
		<g id="shape65-180" v:mID="65" v:groupContext="shape" transform="translate(216.264,-155.927)">
			<title>Rounded rectangle.65</title>
			<desc>Tunnel</desc>
			<v:userDefs>
				<v:ud v:nameU="visVersion" v:val="VT0(14):26"/>
			</v:userDefs>
			<v:textBlock v:margins="rect(4,4,4,4)"/>
			<v:textRect cx="16.875" cy="366.128" width="33.75" height="6.75"/>
			<rect x="0" y="362.753" width="33.75" height="6.75" rx="3.375" ry="3.375" class="st12"/>
			<text x="7.8" y="367.93" class="st5" v:langID="1033"><v:paragraph v:horizAlign="1"/><v:tabList/>Tunnel</text>		</g>
		<g id="shape66-183" v:mID="66" v:groupContext="shape" transform="translate(437.941,0)">
			<title>Sheet.66</title>
			<desc>X25553-091321</desc>
			<v:userDefs>
				<v:ud v:nameU="Margin" v:prompt="" v:val="VT0(0):26"/>
				<v:ud v:nameU="Class" v:prompt="" v:val="VT4(Xilinx.Visio.XNumberShape)"/>
				<v:ud v:nameU="Comment" v:prompt="" v:val="VT4(X-Number: X25553-091321)"/>
			</v:userDefs>
			<v:textBlock v:margins="rect(0,0,0,0)"/>
			<v:textRect cx="18.3193" cy="366.502" width="36.64" height="6.00345"/>
			<path d="M0 369.5 L36.64 369.5 L36.64 363.5 L0 363.5 L0 369.5 Z" class="st17"/>
			<path d="M0 369.5 L36.64 369.5 L36.64 363.5 L0 363.5 L0 369.5" class="st18"/>
			<path d="M0 371 L36.64 371" class="st18"/>
			<text x="1.24" y="368" class="st19" v:langID="1033"><v:paragraph v:horizAlign="2"/><v:tabList/>X25553-091321</text>		</g>
	</g>
</svg>
