<?xml version="1.0" encoding="UTF-8" standalone="no"?>
<!DOCTYPE svg PUBLIC "-//W3C//DTD SVG 1.1//EN" "http://www.w3.org/Graphics/SVG/1.1/DTD/svg11.dtd">
<!-- Generated by Microsoft Visio, SVG Export jqc1631057326904_HiRes.svg Page-1 -->
<svg xmlns="http://www.w3.org/2000/svg" xmlns:xlink="http://www.w3.org/1999/xlink" xmlns:ev="http://www.w3.org/2001/xml-events"
		xmlns:v="http://schemas.microsoft.com/visio/2003/SVGExtensions/" width="6.2309in" height="2.21535in"
		viewBox="0 0 448.625 159.505" xml:space="preserve" color-interpolation-filters="sRGB" class="st15">
	<v:documentProperties v:langID="1033" v:viewMarkup="false">
		<v:userDefs>
			<v:ud v:nameU="msvConvertTheme"/>
		</v:userDefs>
	</v:documentProperties>

	<style type="text/css">
	<![CDATA[
		.st1 {fill:#ffffff;stroke:#000000;stroke-linecap:butt;stroke-width:1}
		.st2 {fill:#000000;font-family:Roboto;font-size:0.833336em;font-weight:bold}
		.st3 {fill:#d8d8d8;stroke:#000000;stroke-linecap:butt;stroke-width:1}
		.st4 {fill:#a5a5a5;stroke:#000000;stroke-linecap:butt;stroke-width:1}
		.st5 {fill:#000000;font-family:Roboto;font-size:0.499992em}
		.st6 {fill:#262626;stroke:#000000;stroke-linecap:butt;stroke-width:1}
		.st7 {fill:#ffffff;font-family:Roboto;font-size:0.499992em}
		.st8 {fill:#595959;stroke:#000000;stroke-linecap:butt;stroke-width:1}
		.st9 {fill:#a5a5a5;stroke:#000000;stroke-width:1}
		.st10 {fill:none;stroke:none;stroke-linecap:butt;stroke-width:1}
		.st11 {fill:#000000;font-family:Roboto;font-size:0.666664em}
		.st12 {fill:#ffffff}
		.st13 {stroke:none;stroke-linecap:round;stroke-linejoin:round;stroke-width:0.75}
		.st14 {fill:#000000;font-family:Roboto;font-size:0.416656em}
		.st15 {fill:none;fill-rule:evenodd;font-size:12px;overflow:visible;stroke-linecap:square;stroke-miterlimit:3}
	]]>
	</style>

	<g v:mID="0" v:index="1" v:groupContext="foregroundPage">
		<title>Page-1</title>
		<v:pageProperties v:drawingScale="1" v:pageScale="1" v:drawingUnits="0" v:shadowOffsetX="0" v:shadowOffsetY="0"/>
		<v:layer v:name="Connector" v:index="0"/>
		<g id="shape21-1" v:mID="21" v:groupContext="shape" transform="translate(1,-12.2552)">
			<title>Rounded rectangle.21</title>
			<desc>U25N</desc>
			<v:userDefs>
				<v:ud v:nameU="visVersion" v:val="VT0(14):26"/>
			</v:userDefs>
			<v:textBlock v:margins="rect(4,4,4,4)" v:verticalAlign="0"/>
			<v:textRect cx="196.594" cy="86.3802" width="393.19" height="146.25"/>
			<rect x="0" y="13.2552" width="393.188" height="146.25" rx="9" ry="9" class="st1"/>
			<text x="4" y="26.26" class="st2" v:langID="1033"><v:paragraph/><v:tabList/>U25N</text>		</g>
		<g id="shape11-4" v:mID="11" v:groupContext="shape" transform="translate(13.9375,-27.4427)">
			<title>Rounded rectangle.11</title>
			<desc>X2 Ethernet Controller</desc>
			<v:userDefs>
				<v:ud v:nameU="visVersion" v:val="VT0(14):26"/>
			</v:userDefs>
			<v:textBlock v:margins="rect(4,4,4,4)"/>
			<v:textRect cx="75.6563" cy="116.474" width="151.32" height="86.0625"/>
			<rect x="0" y="73.4427" width="151.313" height="86.0625" rx="9" ry="9" class="st3"/>
			<text x="25.69" y="119.47" class="st2" v:langID="1033"><v:paragraph v:horizAlign="1"/><v:tabList/>X2 Ethernet Controller</text>		</g>
		<g id="shape10-7" v:mID="10" v:groupContext="shape" transform="translate(224.875,-27.4427)">
			<title>Rounded rectangle.10</title>
			<desc>XCU25 FPGA</desc>
			<v:userDefs>
				<v:ud v:nameU="visVersion" v:val="VT0(14):26"/>
			</v:userDefs>
			<v:textBlock v:margins="rect(4,4,4,4)"/>
			<v:textRect cx="77.625" cy="116.474" width="155.25" height="86.0625"/>
			<rect x="0" y="73.4427" width="155.25" height="86.0625" rx="9" ry="9" class="st4"/>
			<text x="48.17" y="119.47" class="st2" v:langID="1033"><v:paragraph v:horizAlign="1"/><v:tabList/>XCU25 FPGA</text>		</g>
		<g id="shape2-10" v:mID="2" v:groupContext="shape" transform="translate(79.75,-32.5052)">
			<title>Rounded rectangle.527</title>
			<desc>L2 Switch</desc>
			<v:userDefs>
				<v:ud v:nameU="visVersion" v:val="VT0(14):26"/>
			</v:userDefs>
			<v:textBlock v:margins="rect(4,4,4,4)"/>
			<v:textRect cx="19.125" cy="146.005" width="38.25" height="27"/>
			<rect x="0" y="132.505" width="38.25" height="27" rx="4.5" ry="4.5" class="st4"/>
			<text x="6.12" y="147.81" class="st5" v:langID="1033"><v:paragraph v:horizAlign="1"/><v:tabList/>L2 Switch</text>		</g>
		<g id="shape3-13" v:mID="3" v:groupContext="shape" transform="translate(58.375,-38.1302)">
			<title>Rounded rectangle.3</title>
			<desc>RSS</desc>
			<v:userDefs>
				<v:ud v:nameU="visVersion" v:val="VT0(14):26"/>
			</v:userDefs>
			<v:textBlock v:margins="rect(4,4,4,4)"/>
			<v:textRect cx="10.7946" cy="151.63" width="21.59" height="15.75"/>
			<rect x="0" y="143.755" width="21.5893" height="15.75" rx="4.5" ry="4.5" class="st4"/>
			<text x="5.39" y="153.43" class="st5" v:langID="1033"><v:paragraph v:horizAlign="1"/><v:tabList/>RSS</text>		</g>
		<g id="shape4-16" v:mID="4" v:groupContext="shape" transform="translate(150.411,-92.1302)">
			<title>Rounded rectangle.4</title>
			<desc>Port 1</desc>
			<v:userDefs>
				<v:ud v:nameU="visVersion" v:val="VT0(14):26"/>
			</v:userDefs>
			<v:textBlock v:margins="rect(0,0,0,0)"/>
			<v:textRect cx="10.7946" cy="155.193" width="21.59" height="8.625"/>
			<rect x="0" y="150.88" width="21.5893" height="8.625" rx="2.7" ry="2.7" class="st6"/>
			<text x="2.77" y="156.99" class="st7" v:langID="1033"><v:paragraph v:horizAlign="1"/><v:tabList/>Port 1</text>		</g>
		<g id="shape5-19" v:mID="5" v:groupContext="shape" transform="translate(150.411,-35.7779)">
			<title>Rounded rectangle.5</title>
			<desc>Port 0</desc>
			<v:userDefs>
				<v:ud v:nameU="visVersion" v:val="VT0(14):26"/>
			</v:userDefs>
			<v:textBlock v:margins="rect(0,0,0,0)"/>
			<v:textRect cx="10.7946" cy="155.193" width="21.59" height="8.625"/>
			<rect x="0" y="150.88" width="21.5893" height="8.625" rx="2.7" ry="2.7" class="st6"/>
			<text x="2.77" y="156.99" class="st7" v:langID="1033"><v:paragraph v:horizAlign="1"/><v:tabList/>Port 0</text>		</g>
		<g id="shape6-22" v:mID="6" v:groupContext="shape" transform="translate(209.125,-92.1302)">
			<title>Rounded rectangle.6</title>
			<desc>MAC 3</desc>
			<v:userDefs>
				<v:ud v:nameU="visVersion" v:val="VT0(14):26"/>
			</v:userDefs>
			<v:textBlock v:margins="rect(0,0,0,0)"/>
			<v:textRect cx="12.9375" cy="155.193" width="25.88" height="8.625"/>
			<rect x="0" y="150.88" width="25.875" height="8.625" rx="2.7" ry="2.7" class="st8"/>
			<text x="3.98" y="156.99" class="st7" v:langID="1033"><v:paragraph v:horizAlign="1"/><v:tabList/>MAC 3</text>		</g>
		<g id="shape7-25" v:mID="7" v:groupContext="shape" transform="translate(209.125,-35.7779)">
			<title>Rounded rectangle.7</title>
			<desc>MAC 2</desc>
			<v:userDefs>
				<v:ud v:nameU="visVersion" v:val="VT0(14):26"/>
			</v:userDefs>
			<v:textBlock v:margins="rect(0,0,0,0)"/>
			<v:textRect cx="12.9375" cy="155.193" width="25.88" height="8.625"/>
			<rect x="0" y="150.88" width="25.875" height="8.625" rx="2.7" ry="2.7" class="st8"/>
			<text x="3.98" y="156.99" class="st7" v:langID="1033"><v:paragraph v:horizAlign="1"/><v:tabList/>MAC 2</text>		</g>
		<g id="shape8-28" v:mID="8" v:groupContext="shape" transform="translate(368.091,-92.1302)">
			<title>Rounded rectangle.8</title>
			<desc>MAC 1</desc>
			<v:userDefs>
				<v:ud v:nameU="visVersion" v:val="VT0(14):26"/>
			</v:userDefs>
			<v:textBlock v:margins="rect(0,0,0,0)"/>
			<v:textRect cx="12.9375" cy="155.193" width="25.88" height="8.625"/>
			<rect x="0" y="150.88" width="25.875" height="8.625" rx="2.7" ry="2.7" class="st8"/>
			<text x="3.98" y="156.99" class="st7" v:langID="1033"><v:paragraph v:horizAlign="1"/><v:tabList/>MAC 1</text>		</g>
		<g id="shape9-31" v:mID="9" v:groupContext="shape" transform="translate(368.091,-35.7779)">
			<title>Rounded rectangle.9</title>
			<desc>MAC 0</desc>
			<v:userDefs>
				<v:ud v:nameU="visVersion" v:val="VT0(14):26"/>
			</v:userDefs>
			<v:textBlock v:margins="rect(0,0,0,0)"/>
			<v:textRect cx="12.9375" cy="155.193" width="25.88" height="8.625"/>
			<rect x="0" y="150.88" width="25.875" height="8.625" rx="2.7" ry="2.7" class="st8"/>
			<text x="3.98" y="156.99" class="st7" v:langID="1033"><v:paragraph v:horizAlign="1"/><v:tabList/>MAC 0</text>		</g>
		<g id="shape13-34" v:mID="13" v:groupContext="shape" v:layerMember="0" transform="translate(172,-90.0677)">
			<title>1-D double.528</title>
			<v:userDefs>
				<v:ud v:nameU="visVersion" v:val="VT0(14):26"/>
			</v:userDefs>
			<path d="M6.38 149.31 L6.38 146.76 L0 153.13 L6.38 159.51 L6.38 156.96 L30.75 156.96 L30.75 159.51 L37.13 153.13 L30.75
						 146.76 L30.75 149.31 L6.38 149.31 Z" class="st9"/>
		</g>
		<g id="shape15-36" v:mID="15" v:groupContext="shape" v:layerMember="0" transform="translate(172,-33.7154)">
			<title>1-D double.15</title>
			<v:userDefs>
				<v:ud v:nameU="visVersion" v:val="VT0(14):26"/>
			</v:userDefs>
			<path d="M6.38 149.31 L6.38 146.76 L0 153.13 L6.38 159.51 L6.38 156.96 L30.75 156.96 L30.75 159.51 L37.12 153.13 L30.75
						 146.76 L30.75 149.31 L6.38 149.31 Z" class="st9"/>
		</g>
		<g id="shape16-38" v:mID="16" v:groupContext="shape" transform="translate(170.875,-55.0052)">
			<title>Rounded rectangle.16</title>
			<desc>2x 10/25G</desc>
			<v:userDefs>
				<v:ud v:nameU="visVersion" v:val="VT0(14):26"/>
			</v:userDefs>
			<v:textBlock v:margins="rect(4,4,4,4)"/>
			<v:textRect cx="24.1875" cy="146.005" width="48.38" height="27"/>
			<rect x="0" y="132.505" width="48.375" height="27" rx="4.5" ry="4.5" class="st10"/>
			<text x="5.61" y="148.41" class="st11" v:langID="1033"><v:paragraph v:horizAlign="1"/><v:tabList/>2x 10/25G</text>		</g>
		<g id="shape18-41" v:mID="18" v:groupContext="shape" v:layerMember="0" transform="translate(393.966,-90.0677)">
			<title>1-D double.18</title>
			<v:userDefs>
				<v:ud v:nameU="visVersion" v:val="VT0(14):26"/>
			</v:userDefs>
			<path d="M6.38 149.31 L6.38 146.76 L0 153.13 L6.38 159.51 L6.38 156.96 L30.75 156.96 L30.75 159.51 L37.12 153.13 L30.75
						 146.76 L30.75 149.31 L6.38 149.31 Z" class="st9"/>
		</g>
		<g id="shape19-43" v:mID="19" v:groupContext="shape" v:layerMember="0" transform="translate(393.966,-33.7154)">
			<title>1-D double.19</title>
			<v:userDefs>
				<v:ud v:nameU="visVersion" v:val="VT0(14):26"/>
			</v:userDefs>
			<path d="M6.38 149.31 L6.38 146.76 L0 153.13 L6.38 159.51 L6.38 156.96 L30.75 156.96 L30.75 159.51 L37.12 153.13 L30.75
						 146.76 L30.75 149.31 L6.38 149.31 Z" class="st9"/>
		</g>
		<g id="shape20-45" v:mID="20" v:groupContext="shape" transform="translate(397,-59.5052)">
			<title>Rounded rectangle.20</title>
			<desc>2x 10/25G</desc>
			<v:userDefs>
				<v:ud v:nameU="visVersion" v:val="VT0(14):26"/>
			</v:userDefs>
			<v:textBlock v:margins="rect(4,4,4,4)"/>
			<v:textRect cx="24.1875" cy="146.005" width="48.38" height="27"/>
			<rect x="0" y="132.505" width="48.375" height="27" rx="4.5" ry="4.5" class="st10"/>
			<text x="5.61" y="148.41" class="st11" v:langID="1033"><v:paragraph v:horizAlign="1"/><v:tabList/>2x 10/25G</text>		</g>
		<g id="shape22-48" v:mID="22" v:groupContext="shape" transform="translate(411.986,0)">
			<title>Sheet.22</title>
			<desc>X25546-091321</desc>
			<v:userDefs>
				<v:ud v:nameU="Margin" v:prompt="" v:val="VT0(0):26"/>
				<v:ud v:nameU="Class" v:prompt="" v:val="VT4(Xilinx.Visio.XNumberShape)"/>
				<v:ud v:nameU="Comment" v:prompt="" v:val="VT4(X-Number: X25546-091321)"/>
			</v:userDefs>
			<v:textBlock v:margins="rect(0,0,0,0)"/>
			<v:textRect cx="18.3193" cy="156.503" width="36.64" height="6.00345"/>
			<path d="M0 159.51 L36.64 159.51 L36.64 153.5 L0 153.5 L0 159.51 Z" class="st12"/>
			<path d="M0 159.51 L36.64 159.51 L36.64 153.5 L0 153.5 L0 159.51" class="st13"/>
			<path d="M0 161.01 L36.64 161.01" class="st13"/>
			<text x="1.24" y="158" class="st14" v:langID="1033"><v:paragraph v:horizAlign="2"/><v:tabList/>X25546-091321</text>		</g>
	</g>
</svg>
