<?xml version="1.0" encoding="UTF-8" standalone="no"?>
<!DOCTYPE svg PUBLIC "-//W3C//DTD SVG 1.1//EN" "http://www.w3.org/Graphics/SVG/1.1/DTD/svg11.dtd">
<!-- Generated by Microsoft Visio, SVG Export X25555-IPsec_OVS.svg Page-1 -->
<svg xmlns="http://www.w3.org/2000/svg" xmlns:xlink="http://www.w3.org/1999/xlink" xmlns:ev="http://www.w3.org/2001/xml-events"
		xmlns:v="http://schemas.microsoft.com/visio/2003/SVGExtensions/" width="6.59659in" height="5.15805in"
		viewBox="0 0 474.955 371.379" xml:space="preserve" color-interpolation-filters="sRGB" class="st19">
	<v:documentProperties v:langID="1033" v:viewMarkup="false">
		<v:userDefs>
			<v:ud v:nameU="msvConvertTheme"/>
		</v:userDefs>
	</v:documentProperties>

	<style type="text/css">
	<![CDATA[
		.st1 {fill:#f2f2f2;stroke:#000000;stroke-linecap:butt;stroke-width:1}
		.st2 {fill:#d8d8d8;stroke:#000000;stroke-linecap:butt;stroke-width:1}
		.st3 {fill:#000000;font-family:Roboto;font-size:0.499992em;font-weight:bold}
		.st4 {fill:#ffffff;stroke:#000000;stroke-width:1}
		.st5 {fill:#000000;font-family:Roboto;font-size:0.499992em}
		.st6 {fill:#ffffff;stroke:#000000;stroke-linecap:butt;stroke-width:1}
		.st7 {fill:none;stroke:#000000;stroke-dasharray:1,2;stroke-linecap:butt;stroke-width:1}
		.st8 {stroke:#000000;stroke-dasharray:1,2;stroke-linecap:butt;stroke-width:1}
		.st9 {fill:none;stroke:none;stroke-linecap:butt;stroke-width:1}
		.st10 {fill:#000000;font-family:Roboto;font-size:0.666664em;font-weight:bold}
		.st11 {fill:#000000;font-family:Roboto;font-size:0.666664em}
		.st12 {fill:none}
		.st13 {stroke:#000000;stroke-linecap:butt;stroke-width:1}
		.st14 {marker-end:url(#mrkr13-185);marker-start:url(#mrkr13-183);stroke:#000000;stroke-linecap:butt;stroke-width:0.5}
		.st15 {fill:#000000;fill-opacity:1;stroke:#000000;stroke-opacity:1;stroke-width:0.21739130434783}
		.st16 {fill:#ffffff}
		.st17 {stroke:none;stroke-linecap:round;stroke-linejoin:round;stroke-width:0.75}
		.st18 {fill:#000000;font-family:Roboto;font-size:0.416656em}
		.st19 {fill:none;fill-rule:evenodd;font-size:12px;overflow:visible;stroke-linecap:square;stroke-miterlimit:3}
	]]>
	</style>

	<defs id="Markers">
		<g id="lend13">
			<path d="M 3 1 L 0 0 L 3 -1 L 3 1 " style="stroke:none"/>
		</g>
		<marker id="mrkr13-183" class="st15" v:arrowType="13" v:arrowSize="1" v:setback="13.08" refX="13.08" orient="auto"
				markerUnits="strokeWidth" overflow="visible">
			<use xlink:href="#lend13" transform="scale(4.6) "/>
		</marker>
		<marker id="mrkr13-185" class="st15" v:arrowType="13" v:arrowSize="1" v:setback="13.8" refX="-13.8" orient="auto"
				markerUnits="strokeWidth" overflow="visible">
			<use xlink:href="#lend13" transform="scale(-4.6,-4.6) "/>
		</marker>
	</defs>
	<g v:mID="0" v:index="1" v:groupContext="foregroundPage">
		<title>Page-1</title>
		<v:pageProperties v:drawingScale="1" v:pageScale="1" v:drawingUnits="0" v:shadowOffsetX="0" v:shadowOffsetY="0"/>
		<v:layer v:name="Connector" v:index="0"/>
		<g id="shape3-1" v:mID="3" v:groupContext="shape" transform="translate(328.642,-218.504)">
			<title>Rounded rectangle.26</title>
			<v:userDefs>
				<v:ud v:nameU="visVersion" v:val="VT0(14):26"/>
			</v:userDefs>
			<rect x="0" y="219.504" width="143.438" height="151.875" rx="4.5" ry="4.5" class="st1"/>
		</g>
		<g id="shape4-3" v:mID="4" v:groupContext="shape" transform="translate(1.26711,-218.504)">
			<title>Rounded rectangle.19</title>
			<v:userDefs>
				<v:ud v:nameU="visVersion" v:val="VT0(14):26"/>
			</v:userDefs>
			<rect x="0" y="219.504" width="143.438" height="151.875" rx="4.5" ry="4.5" class="st1"/>
		</g>
		<g id="shape5-5" v:mID="5" v:groupContext="shape" transform="translate(6.32961,-218.504)">
			<title>Rounded rectangle.5</title>
			<desc>U25N</desc>
			<v:userDefs>
				<v:ud v:nameU="visVersion" v:val="VT0(14):26"/>
			</v:userDefs>
			<v:textBlock v:margins="rect(4,4,4,4)"/>
			<v:textRect cx="66.375" cy="343.817" width="132.75" height="55.125"/>
			<rect x="0" y="316.254" width="132.75" height="55.125" rx="4.5" ry="4.5" class="st2"/>
			<text x="113.68" y="345.62" class="st3" v:langID="1033"><v:paragraph v:horizAlign="2"/><v:tabList/>U25N</text>		</g>
		<g id="shape6-8" v:mID="6" v:groupContext="shape" transform="translate(37.9943,-230.197)">
			<title>Rectangle.533</title>
			<desc>OVS</desc>
			<v:userDefs>
				<v:ud v:nameU="visVersion" v:val="VT0(14):26"/>
			</v:userDefs>
			<v:textBlock v:margins="rect(8,4,4,4)"/>
			<v:textRect cx="15.75" cy="360.913" width="31.5" height="20.9318"/>
			<rect x="0" y="350.447" width="31.5" height="20.9318" rx="2.7" ry="2.7" class="st4"/>
			<text x="10" y="364.71" class="st5" v:langID="1033"><v:paragraph v:horizAlign="1"/><v:tabList/>OVS</text>		</g>
		<g id="shape7-11" v:mID="7" v:groupContext="shape" transform="translate(16.4546,-214.379)">
			<title>Rounded rectangle.6</title>
			<desc>25G</desc>
			<v:userDefs>
				<v:ud v:nameU="visVersion" v:val="VT0(14):26"/>
			</v:userDefs>
			<v:textBlock v:margins="rect(0,0,0,0)"/>
			<v:textRect cx="10.6875" cy="367.067" width="21.38" height="8.625"/>
			<rect x="0" y="362.754" width="21.375" height="8.625" rx="2.7" ry="2.7" class="st6"/>
			<text x="5.28" y="368.87" class="st5" v:langID="1033"><v:paragraph v:horizAlign="1"/><v:tabList/>25G</text>		</g>
		<g id="shape8-14" v:mID="8" v:groupContext="shape" transform="translate(108.705,-214.379)">
			<title>Rounded rectangle.4</title>
			<desc>25G</desc>
			<v:userDefs>
				<v:ud v:nameU="visVersion" v:val="VT0(14):26"/>
			</v:userDefs>
			<v:textBlock v:margins="rect(0,0,0,0)"/>
			<v:textRect cx="10.6875" cy="367.067" width="21.38" height="8.625"/>
			<rect x="0" y="362.754" width="21.375" height="8.625" rx="2.7" ry="2.7" class="st6"/>
			<text x="5.28" y="368.87" class="st5" v:langID="1033"><v:paragraph v:horizAlign="1"/><v:tabList/>25G</text>		</g>
		<g id="shape9-17" v:mID="9" v:groupContext="shape" transform="translate(11.3921,-255.629)">
			<title>Rounded rectangle.9</title>
			<desc>X2</desc>
			<v:userDefs>
				<v:ud v:nameU="visVersion" v:val="VT0(14):26"/>
			</v:userDefs>
			<v:textBlock v:margins="rect(0,0,0,0)"/>
			<v:textRect cx="61.0313" cy="364.629" width="122.07" height="13.5"/>
			<rect x="0" y="357.879" width="122.063" height="13.5" rx="2.7" ry="2.7" class="st6"/>
			<text x="57.47" y="366.43" class="st5" v:langID="1033"><v:paragraph v:horizAlign="1"/><v:tabList/>X2</text>		</g>
		<g id="shape11-20" v:mID="11" v:groupContext="shape" transform="translate(13.6421,-297.254)">
			<title>Rounded rectangle.8</title>
			<desc>eth1</desc>
			<v:userDefs>
				<v:ud v:nameU="visVersion" v:val="VT0(14):26"/>
			</v:userDefs>
			<v:textBlock v:margins="rect(0,0,0,0)"/>
			<v:textRect cx="13.2187" cy="367.067" width="26.44" height="8.625"/>
			<rect x="0" y="362.754" width="26.4375" height="8.625" rx="2.7" ry="2.7" class="st6"/>
			<text x="7.31" y="368.87" class="st5" v:langID="1033"><v:paragraph v:horizAlign="1"/><v:tabList/>eth1</text>		</g>
		<g id="shape12-23" v:mID="12" v:groupContext="shape" transform="translate(108.142,-297.254)">
			<title>Rounded rectangle.12</title>
			<desc>eth0</desc>
			<v:userDefs>
				<v:ud v:nameU="visVersion" v:val="VT0(14):26"/>
			</v:userDefs>
			<v:textBlock v:margins="rect(0,0,0,0)"/>
			<v:textRect cx="13.2188" cy="367.067" width="26.44" height="8.625"/>
			<rect x="0" y="362.754" width="26.4375" height="8.625" rx="2.7" ry="2.7" class="st6"/>
			<text x="7.31" y="368.87" class="st5" v:langID="1033"><v:paragraph v:horizAlign="1"/><v:tabList/>eth0</text>		</g>
		<g id="shape13-26" v:mID="13" v:groupContext="shape" transform="translate(11.3921,-283.004)">
			<title>Rounded rectangle.10</title>
			<desc>sfc.ko</desc>
			<v:userDefs>
				<v:ud v:nameU="visVersion" v:val="VT0(14):26"/>
			</v:userDefs>
			<v:textBlock v:margins="rect(0,0,0,0)"/>
			<v:textRect cx="61.0313" cy="367.067" width="122.07" height="8.625"/>
			<rect x="0" y="362.754" width="122.063" height="8.625" rx="2.7" ry="2.7" class="st6"/>
			<text x="52.85" y="368.87" class="st5" v:langID="1033"><v:paragraph v:horizAlign="1"/><v:tabList/>sfc.ko</text>		</g>
		<g id="shape14-29" v:mID="14" v:groupContext="shape" transform="translate(57.5171,-320.129)">
			<title>Rounded rectangle.11</title>
			<desc>gre_sys</desc>
			<v:userDefs>
				<v:ud v:nameU="visVersion" v:val="VT0(14):26"/>
			</v:userDefs>
			<v:textBlock v:margins="rect(0,0,0,0)"/>
			<v:textRect cx="17.1563" cy="367.067" width="34.32" height="8.625"/>
			<rect x="0" y="362.754" width="34.3125" height="8.625" rx="2.7" ry="2.7" class="st6"/>
			<text x="7" y="368.87" class="st5" v:langID="1033"><v:paragraph v:horizAlign="1"/><v:tabList/>gre_sys</text>		</g>
		<g id="shape15-32" v:mID="15" v:groupContext="shape" transform="translate(29.6734,-333.254)">
			<title>Rounded rectangle.15</title>
			<desc>openvswitch.ko</desc>
			<v:userDefs>
				<v:ud v:nameU="visVersion" v:val="VT0(14):26"/>
			</v:userDefs>
			<v:textBlock v:margins="rect(0,0,0,0)"/>
			<v:textRect cx="26.5781" cy="367.067" width="53.16" height="8.625"/>
			<rect x="0" y="362.754" width="53.1563" height="8.625" rx="2.7" ry="2.7" class="st6"/>
			<text x="5.73" y="368.87" class="st5" v:langID="1033"><v:paragraph v:horizAlign="1"/><v:tabList/>openvswitch.ko</text>		</g>
		<g id="shape16-35" v:mID="16" v:groupContext="shape" transform="translate(53.0171,-357.254)">
			<title>Rounded rectangle.16</title>
			<desc>vswitchd</desc>
			<v:userDefs>
				<v:ud v:nameU="visVersion" v:val="VT0(14):26"/>
			</v:userDefs>
			<v:textBlock v:margins="rect(0,0,0,0)"/>
			<v:textRect cx="17.1563" cy="367.067" width="34.32" height="8.625"/>
			<rect x="0" y="362.754" width="34.3125" height="8.625" rx="2.7" ry="2.7" class="st6"/>
			<text x="5.28" y="368.87" class="st5" v:langID="1033"><v:paragraph v:horizAlign="1"/><v:tabList/>vswitchd</text>		</g>
		<g id="shape17-38" v:mID="17" v:groupContext="shape" transform="translate(6.32961,-295.004)">
			<title>Rounded rectangle.17</title>
			<v:userDefs>
				<v:ud v:nameU="visVersion" v:val="VT0(14):26"/>
			</v:userDefs>
			<rect x="0" y="297.692" width="91.125" height="73.6875" rx="4.5" ry="4.5" class="st7"/>
		</g>
		<g id="shape18-40" v:mID="18" v:groupContext="shape" v:layerMember="0" transform="translate(144.705,-339.554)">
			<title>Sheet.18</title>
			<path d="M0 364.18 L-143.7 364.18" class="st8"/>
		</g>
		<g id="shape19-43" v:mID="19" v:groupContext="shape" v:layerMember="0" transform="translate(144.705,-272.054)">
			<title>Sheet.19</title>
			<path d="M0 364.18 L-143.7 364.18" class="st8"/>
		</g>
		<g id="shape20-46" v:mID="20" v:groupContext="shape" transform="translate(20.0692,-346.754)">
			<title>Rounded rectangle.20</title>
			<desc>OVS-Bridge</desc>
			<v:userDefs>
				<v:ud v:nameU="visVersion" v:val="VT0(14):26"/>
			</v:userDefs>
			<v:textBlock v:margins="rect(4,4,4,4)"/>
			<v:textRect cx="33.5104" cy="368.004" width="67.03" height="6.75"/>
			<rect x="0" y="364.629" width="67.0208" height="6.75" rx="3.375" ry="3.375" class="st9"/>
			<text x="12.35" y="370.4" class="st10" v:langID="1033"><v:paragraph v:horizAlign="1"/><v:tabList/>OVS-Bridge</text>		</g>
		<g id="shape21-49" v:mID="21" v:groupContext="shape" transform="translate(40.0796,-298.379)">
			<title>Rounded rectangle.21</title>
			<desc>SERVER 1</desc>
			<v:userDefs>
				<v:ud v:nameU="visVersion" v:val="VT0(14):26"/>
			</v:userDefs>
			<v:textBlock v:margins="rect(4,4,4,4)"/>
			<v:textRect cx="26.1979" cy="368.004" width="52.4" height="6.75"/>
			<rect x="0" y="364.629" width="52.3958" height="6.75" rx="3.375" ry="3.375" class="st9"/>
			<text x="12.45" y="370.4" class="st10" v:langID="1033"><v:paragraph v:horizAlign="2"/><v:tabList/>SERVER 1</text>		</g>
		<g id="shape22-52" v:mID="22" v:groupContext="shape" transform="translate(104.205,-351.254)">
			<title>Rounded rectangle.22</title>
			<desc>userspace</desc>
			<v:userDefs>
				<v:ud v:nameU="visVersion" v:val="VT0(14):26"/>
			</v:userDefs>
			<v:textBlock v:margins="rect(4,4,4,4)"/>
			<v:textRect cx="19.6875" cy="368.004" width="39.38" height="6.75"/>
			<rect x="0" y="364.629" width="39.375" height="6.75" rx="3.375" ry="3.375" class="st9"/>
			<text x="7.72" y="369.8" class="st5" v:langID="1033"><v:paragraph v:horizAlign="2"/><v:tabList/>userspace</text>		</g>
		<g id="shape23-55" v:mID="23" v:groupContext="shape" transform="translate(99.7046,-336.629)">
			<title>Rounded rectangle.23</title>
			<desc>kernelspace</desc>
			<v:userDefs>
				<v:ud v:nameU="visVersion" v:val="VT0(14):26"/>
			</v:userDefs>
			<v:textBlock v:margins="rect(4,4,4,4)"/>
			<v:textRect cx="21.9375" cy="368.004" width="43.88" height="6.75"/>
			<rect x="0" y="364.629" width="43.875" height="6.75" rx="3.375" ry="3.375" class="st9"/>
			<text x="7.64" y="369.8" class="st5" v:langID="1033"><v:paragraph v:horizAlign="2"/><v:tabList/>kernelspace</text>		</g>
		<g id="shape24-58" v:mID="24" v:groupContext="shape" transform="translate(104.205,-310.754)">
			<title>Rounded rectangle.24</title>
			<desc>10.16.0.2</desc>
			<v:userDefs>
				<v:ud v:nameU="visVersion" v:val="VT0(14):26"/>
			</v:userDefs>
			<v:textBlock v:margins="rect(4,4,4,4)"/>
			<v:textRect cx="16.875" cy="368.004" width="33.75" height="6.75"/>
			<rect x="0" y="364.629" width="33.75" height="6.75" rx="3.375" ry="3.375" class="st9"/>
			<text x="4.8" y="369.8" class="st5" v:langID="1033"><v:paragraph v:horizAlign="2"/><v:tabList/>10.16.0.2</text>		</g>
		<g id="shape25-61" v:mID="25" v:groupContext="shape" transform="translate(333.705,-218.504)">
			<title>Rounded rectangle.25</title>
			<desc>U25N</desc>
			<v:userDefs>
				<v:ud v:nameU="visVersion" v:val="VT0(14):26"/>
			</v:userDefs>
			<v:textBlock v:margins="rect(4,4,4,4)"/>
			<v:textRect cx="66.375" cy="343.817" width="132.75" height="55.125"/>
			<rect x="0" y="316.254" width="132.75" height="55.125" rx="4.5" ry="4.5" class="st2"/>
			<text x="113.68" y="345.62" class="st3" v:langID="1033"><v:paragraph v:horizAlign="2"/><v:tabList/>U25N</text>		</g>
		<g id="shape27-64" v:mID="27" v:groupContext="shape" transform="translate(343.83,-214.379)">
			<title>Rounded rectangle.27</title>
			<desc>25G</desc>
			<v:userDefs>
				<v:ud v:nameU="visVersion" v:val="VT0(14):26"/>
			</v:userDefs>
			<v:textBlock v:margins="rect(0,0,0,0)"/>
			<v:textRect cx="10.6875" cy="367.067" width="21.38" height="8.625"/>
			<rect x="0" y="362.754" width="21.375" height="8.625" rx="2.7" ry="2.7" class="st6"/>
			<text x="5.28" y="368.87" class="st5" v:langID="1033"><v:paragraph v:horizAlign="1"/><v:tabList/>25G</text>		</g>
		<g id="shape28-67" v:mID="28" v:groupContext="shape" transform="translate(436.08,-214.379)">
			<title>Rounded rectangle.30</title>
			<desc>25G</desc>
			<v:userDefs>
				<v:ud v:nameU="visVersion" v:val="VT0(14):26"/>
			</v:userDefs>
			<v:textBlock v:margins="rect(0,0,0,0)"/>
			<v:textRect cx="10.6875" cy="367.067" width="21.38" height="8.625"/>
			<rect x="0" y="362.754" width="21.375" height="8.625" rx="2.7" ry="2.7" class="st6"/>
			<text x="5.28" y="368.87" class="st5" v:langID="1033"><v:paragraph v:horizAlign="1"/><v:tabList/>25G</text>		</g>
		<g id="shape29-70" v:mID="29" v:groupContext="shape" transform="translate(338.767,-255.629)">
			<title>Rounded rectangle.29</title>
			<desc>X2</desc>
			<v:userDefs>
				<v:ud v:nameU="visVersion" v:val="VT0(14):26"/>
			</v:userDefs>
			<v:textBlock v:margins="rect(0,0,0,0)"/>
			<v:textRect cx="61.0313" cy="364.629" width="122.07" height="13.5"/>
			<rect x="0" y="357.879" width="122.063" height="13.5" rx="2.7" ry="2.7" class="st6"/>
			<text x="57.47" y="366.43" class="st5" v:langID="1033"><v:paragraph v:horizAlign="1"/><v:tabList/>X2</text>		</g>
		<g id="shape31-73" v:mID="31" v:groupContext="shape" transform="translate(341.017,-297.254)">
			<title>Rounded rectangle.31</title>
			<desc>eth0</desc>
			<v:userDefs>
				<v:ud v:nameU="visVersion" v:val="VT0(14):26"/>
			</v:userDefs>
			<v:textBlock v:margins="rect(0,0,0,0)"/>
			<v:textRect cx="13.2188" cy="367.067" width="26.44" height="8.625"/>
			<rect x="0" y="362.754" width="26.4375" height="8.625" rx="2.7" ry="2.7" class="st6"/>
			<text x="7.31" y="368.87" class="st5" v:langID="1033"><v:paragraph v:horizAlign="1"/><v:tabList/>eth0</text>		</g>
		<g id="shape32-76" v:mID="32" v:groupContext="shape" transform="translate(435.517,-297.254)">
			<title>Rounded rectangle.32</title>
			<desc>eth1</desc>
			<v:userDefs>
				<v:ud v:nameU="visVersion" v:val="VT0(14):26"/>
			</v:userDefs>
			<v:textBlock v:margins="rect(0,0,0,0)"/>
			<v:textRect cx="13.2188" cy="367.067" width="26.44" height="8.625"/>
			<rect x="0" y="362.754" width="26.4375" height="8.625" rx="2.7" ry="2.7" class="st6"/>
			<text x="7.31" y="368.87" class="st5" v:langID="1033"><v:paragraph v:horizAlign="1"/><v:tabList/>eth1</text>		</g>
		<g id="shape33-79" v:mID="33" v:groupContext="shape" transform="translate(338.767,-283.004)">
			<title>Rounded rectangle.33</title>
			<desc>sfc.ko</desc>
			<v:userDefs>
				<v:ud v:nameU="visVersion" v:val="VT0(14):26"/>
			</v:userDefs>
			<v:textBlock v:margins="rect(0,0,0,0)"/>
			<v:textRect cx="61.0313" cy="367.067" width="122.07" height="8.625"/>
			<rect x="0" y="362.754" width="122.063" height="8.625" rx="2.7" ry="2.7" class="st6"/>
			<text x="52.85" y="368.87" class="st5" v:langID="1033"><v:paragraph v:horizAlign="1"/><v:tabList/>sfc.ko</text>		</g>
		<g id="shape34-82" v:mID="34" v:groupContext="shape" transform="translate(384.892,-320.129)">
			<title>Rounded rectangle.34</title>
			<desc>gre_sys</desc>
			<v:userDefs>
				<v:ud v:nameU="visVersion" v:val="VT0(14):26"/>
			</v:userDefs>
			<v:textBlock v:margins="rect(0,0,0,0)"/>
			<v:textRect cx="17.1563" cy="367.067" width="34.32" height="8.625"/>
			<rect x="0" y="362.754" width="34.3125" height="8.625" rx="2.7" ry="2.7" class="st6"/>
			<text x="7" y="368.87" class="st5" v:langID="1033"><v:paragraph v:horizAlign="1"/><v:tabList/>gre_sys</text>		</g>
		<g id="shape35-85" v:mID="35" v:groupContext="shape" transform="translate(396.423,-333.254)">
			<title>Rounded rectangle.35</title>
			<desc>openvswitch.ko</desc>
			<v:userDefs>
				<v:ud v:nameU="visVersion" v:val="VT0(14):26"/>
			</v:userDefs>
			<v:textBlock v:margins="rect(0,0,0,0)"/>
			<v:textRect cx="26.5781" cy="367.067" width="53.16" height="8.625"/>
			<rect x="0" y="362.754" width="53.1563" height="8.625" rx="2.7" ry="2.7" class="st6"/>
			<text x="5.73" y="368.87" class="st5" v:langID="1033"><v:paragraph v:horizAlign="1"/><v:tabList/>openvswitch.ko</text>		</g>
		<g id="shape36-88" v:mID="36" v:groupContext="shape" transform="translate(380.392,-357.254)">
			<title>Rounded rectangle.38</title>
			<desc>vswitchd</desc>
			<v:userDefs>
				<v:ud v:nameU="visVersion" v:val="VT0(14):26"/>
			</v:userDefs>
			<v:textBlock v:margins="rect(0,0,0,0)"/>
			<v:textRect cx="17.1563" cy="367.067" width="34.32" height="8.625"/>
			<rect x="0" y="362.754" width="34.3125" height="8.625" rx="2.7" ry="2.7" class="st6"/>
			<text x="5.28" y="368.87" class="st5" v:langID="1033"><v:paragraph v:horizAlign="1"/><v:tabList/>vswitchd</text>		</g>
		<g id="shape37-91" v:mID="37" v:groupContext="shape" transform="translate(373.642,-295.004)">
			<title>Rounded rectangle.39</title>
			<v:userDefs>
				<v:ud v:nameU="visVersion" v:val="VT0(14):26"/>
			</v:userDefs>
			<rect x="0" y="297.692" width="91.125" height="73.6875" rx="4.5" ry="4.5" class="st7"/>
		</g>
		<g id="shape38-93" v:mID="38" v:groupContext="shape" v:layerMember="0" transform="translate(472.08,-339.554)">
			<title>Sheet.38</title>
			<path d="M0 364.18 L-143.7 364.18" class="st8"/>
		</g>
		<g id="shape39-96" v:mID="39" v:groupContext="shape" v:layerMember="0" transform="translate(472.08,-272.054)">
			<title>Sheet.39</title>
			<path d="M0 364.18 L-143.7 364.18" class="st8"/>
		</g>
		<g id="shape40-99" v:mID="40" v:groupContext="shape" transform="translate(394.455,-346.754)">
			<title>Rounded rectangle.40</title>
			<desc>OVS-Bridge</desc>
			<v:userDefs>
				<v:ud v:nameU="visVersion" v:val="VT0(14):26"/>
			</v:userDefs>
			<v:textBlock v:margins="rect(4,4,4,4)"/>
			<v:textRect cx="26.4375" cy="368.004" width="52.88" height="6.75"/>
			<rect x="0" y="364.629" width="52.875" height="6.75" rx="3.375" ry="3.375" class="st9"/>
			<text x="4" y="370.4" class="st10" v:langID="1033"><v:paragraph/><v:tabList/>OVS-Bridge</text>		</g>
		<g id="shape41-102" v:mID="41" v:groupContext="shape" transform="translate(367.455,-298.379)">
			<title>Rounded rectangle.41</title>
			<desc>SERVER 2</desc>
			<v:userDefs>
				<v:ud v:nameU="visVersion" v:val="VT0(14):26"/>
			</v:userDefs>
			<v:textBlock v:margins="rect(4,4,4,4)"/>
			<v:textRect cx="26.1979" cy="368.004" width="52.4" height="6.75"/>
			<rect x="0" y="364.629" width="52.3958" height="6.75" rx="3.375" ry="3.375" class="st9"/>
			<text x="12.45" y="370.4" class="st10" v:langID="1033"><v:paragraph v:horizAlign="2"/><v:tabList/>SERVER 2</text>		</g>
		<g id="shape42-105" v:mID="42" v:groupContext="shape" transform="translate(328.642,-351.254)">
			<title>Rounded rectangle.42</title>
			<desc>userspace</desc>
			<v:userDefs>
				<v:ud v:nameU="visVersion" v:val="VT0(14):26"/>
			</v:userDefs>
			<v:textBlock v:margins="rect(4,4,4,4)"/>
			<v:textRect cx="19.6875" cy="368.004" width="39.38" height="6.75"/>
			<rect x="0" y="364.629" width="39.375" height="6.75" rx="3.375" ry="3.375" class="st9"/>
			<text x="4" y="369.8" class="st5" v:langID="1033"><v:paragraph/><v:tabList/>userspace</text>		</g>
		<g id="shape43-108" v:mID="43" v:groupContext="shape" transform="translate(328.642,-336.629)">
			<title>Rounded rectangle.43</title>
			<desc>kernelspace</desc>
			<v:userDefs>
				<v:ud v:nameU="visVersion" v:val="VT0(14):26"/>
			</v:userDefs>
			<v:textBlock v:margins="rect(4,4,4,4)"/>
			<v:textRect cx="21.9375" cy="368.004" width="43.88" height="6.75"/>
			<rect x="0" y="364.629" width="43.875" height="6.75" rx="3.375" ry="3.375" class="st9"/>
			<text x="4" y="369.8" class="st5" v:langID="1033"><v:paragraph/><v:tabList/>kernelspace</text>		</g>
		<g id="shape44-111" v:mID="44" v:groupContext="shape" transform="translate(333.705,-315.254)">
			<title>Rounded rectangle.44</title>
			<desc>10.16.0.1</desc>
			<v:userDefs>
				<v:ud v:nameU="visVersion" v:val="VT0(14):26"/>
			</v:userDefs>
			<v:textBlock v:margins="rect(4,4,4,4)"/>
			<v:textRect cx="16.875" cy="368.004" width="33.75" height="6.75"/>
			<rect x="0" y="364.629" width="33.75" height="6.75" rx="3.375" ry="3.375" class="st9"/>
			<text x="4.8" y="369.8" class="st5" v:langID="1033"><v:paragraph v:horizAlign="2"/><v:tabList/>10.16.0.1</text>		</g>
		<g id="shape45-114" v:mID="45" v:groupContext="shape" transform="translate(136.83,-10.3793)">
			<title>Rounded rectangle.45</title>
			<desc>Traffic Generator</desc>
			<v:userDefs>
				<v:ud v:nameU="visVersion" v:val="VT0(14):26"/>
			</v:userDefs>
			<v:textBlock v:margins="rect(0,0,0,0)"/>
			<v:textRect cx="102.375" cy="353.942" width="204.75" height="34.875"/>
			<rect x="0" y="336.504" width="204.75" height="34.875" rx="2.7" ry="2.7" class="st1"/>
			<text x="71.99" y="356.34" class="st11" v:langID="1033"><v:paragraph v:horizAlign="1"/><v:tabList/>Traffic Generator</text>		</g>
		<g id="shape46-117" v:mID="46" v:groupContext="shape" transform="translate(162.142,-43.3793)">
			<title>Rounded rectangle.48</title>
			<desc>25G</desc>
			<v:userDefs>
				<v:ud v:nameU="visVersion" v:val="VT0(14):26"/>
			</v:userDefs>
			<v:textBlock v:margins="rect(0,0,0,0)"/>
			<v:textRect cx="10.6875" cy="367.067" width="21.38" height="8.625"/>
			<rect x="0" y="362.754" width="21.375" height="8.625" rx="2.7" ry="2.7" class="st6"/>
			<text x="5.28" y="368.87" class="st5" v:langID="1033"><v:paragraph v:horizAlign="1"/><v:tabList/>25G</text>		</g>
		<g id="shape47-120" v:mID="47" v:groupContext="shape" transform="translate(290.392,-43.3793)">
			<title>Rounded rectangle.49</title>
			<desc>25G</desc>
			<v:userDefs>
				<v:ud v:nameU="visVersion" v:val="VT0(14):26"/>
			</v:userDefs>
			<v:textBlock v:margins="rect(0,0,0,0)"/>
			<v:textRect cx="10.6875" cy="367.067" width="21.38" height="8.625"/>
			<rect x="0" y="362.754" width="21.375" height="8.625" rx="2.7" ry="2.7" class="st6"/>
			<text x="5.28" y="368.87" class="st5" v:langID="1033"><v:paragraph v:horizAlign="1"/><v:tabList/>25G</text>		</g>
		<g id="shape48-123" v:mID="48" v:groupContext="shape" v:layerMember="0" transform="translate(69.3296,-82.3793)">
			<title>Elbow 1.534</title>
			<v:userDefs>
				<v:ud v:nameU="Scale" v:val="VT0(1):26"/>
				<v:ud v:nameU="AntiScale" v:val="VT0(1):26"/>
				<v:ud v:nameU="visVersion" v:val="VT0(14):26"/>
			</v:userDefs>
			<path d="M0 374.08 L100.8 374.08 L100.8 397.25 L99 397.25 L103.5 401.75 L108 397.25 L106.2 397.25 L106.2 368.68 L0 368.68
						 L0 374.08 Z" class="st12"/>
			<path d="M0 374.08 L100.8 374.08 L100.8 397.25 L99 397.25 L103.5 401.75 L108 397.25 L106.2 397.25 L106.2 368.68 L0 368.68"
					class="st13"/>
		</g>
		<g id="shape49-126" v:mID="49" v:groupContext="shape" v:layerMember="0" transform="translate(71.0171,-82.3793)">
			<title>Elbow 1.49</title>
			<v:userDefs>
				<v:ud v:nameU="Scale" v:val="VT0(1):26"/>
				<v:ud v:nameU="AntiScale" v:val="VT0(1):26"/>
				<v:ud v:nameU="visVersion" v:val="VT0(14):26"/>
			</v:userDefs>
			<path d="M0 368.68 L-41.17 368.68 L-41.17 243.88 L-39.37 243.88 L-43.87 239.38 L-48.37 243.88 L-46.57 243.88 L-46.57
						 374.08 L0 374.08 L0 368.68 Z" class="st12"/>
			<path d="M0 368.68 L-41.17 368.68 L-41.17 243.88 L-39.37 243.88 L-43.87 239.38 L-48.37 243.88 L-46.57 243.88 L-46.57
						 374.08 L0 374.08" class="st13"/>
		</g>
		<g id="shape50-129" v:mID="50" v:groupContext="shape" v:layerMember="0" transform="translate(391.642,-82.3793)">
			<title>Elbow 1.55</title>
			<v:userDefs>
				<v:ud v:nameU="Scale" v:val="VT0(1):26"/>
				<v:ud v:nameU="AntiScale" v:val="VT0(1):26"/>
				<v:ud v:nameU="visVersion" v:val="VT0(14):26"/>
			</v:userDefs>
			<path d="M0 374.08 L-87.86 374.08 L-87.86 397.25 L-86.06 397.25 L-90.56 401.75 L-95.06 397.25 L-93.26 397.25 L-93.26
						 368.68 L0 368.68 L0 374.08 Z" class="st12"/>
			<path d="M0 374.08 L-87.86 374.08 L-87.86 397.25 L-86.06 397.25 L-90.56 401.75 L-95.06 397.25 L-93.26 397.25 L-93.26
						 368.68 L0 368.68" class="st13"/>
		</g>
		<g id="shape51-132" v:mID="51" v:groupContext="shape" v:layerMember="0" transform="translate(390.517,-82.3793)">
			<title>Elbow 1.56</title>
			<v:userDefs>
				<v:ud v:nameU="Scale" v:val="VT0(1):26"/>
				<v:ud v:nameU="AntiScale" v:val="VT0(1):26"/>
				<v:ud v:nameU="visVersion" v:val="VT0(14):26"/>
			</v:userDefs>
			<path d="M0 368.68 L53.55 368.68 L53.55 243.88 L51.75 243.88 L56.25 239.38 L60.75 243.88 L58.95 243.88 L58.95 374.08
						 L0 374.08 L0 368.68 Z" class="st12"/>
			<path d="M0 368.68 L53.55 368.68 L53.55 243.88 L51.75 243.88 L56.25 239.38 L60.75 243.88 L58.95 243.88 L58.95 374.08
						 L0 374.08" class="st13"/>
		</g>
		<g id="shape52-135" v:mID="52" v:groupContext="shape" v:layerMember="0" transform="translate(235.83,-154.379)">
			<title>Elbow 1.57</title>
			<v:userDefs>
				<v:ud v:nameU="Scale" v:val="VT0(1):26"/>
				<v:ud v:nameU="AntiScale" v:val="VT0(1):26"/>
				<v:ud v:nameU="visVersion" v:val="VT0(14):26"/>
			</v:userDefs>
			<path d="M0 368.68 L-113.74 368.68 L-113.74 315.88 L-111.94 315.88 L-116.44 311.38 L-120.94 315.88 L-119.14 315.88 L-119.14
						 374.08 L0 374.08 L0 368.68 Z" class="st12"/>
			<path d="M0 368.68 L-113.74 368.68 L-113.74 315.88 L-111.94 315.88 L-116.44 311.38 L-120.94 315.88 L-119.14 315.88 L-119.14
						 374.08 L0 374.08" class="st13"/>
		</g>
		<g id="shape53-138" v:mID="53" v:groupContext="shape" v:layerMember="0" transform="translate(233.58,-154.379)">
			<title>Elbow 1.58</title>
			<v:userDefs>
				<v:ud v:nameU="Scale" v:val="VT0(1):26"/>
				<v:ud v:nameU="AntiScale" v:val="VT0(1):26"/>
				<v:ud v:nameU="visVersion" v:val="VT0(14):26"/>
			</v:userDefs>
			<path d="M0 368.68 L118.24 368.68 L118.24 315.88 L116.44 315.88 L120.94 311.38 L125.44 315.88 L123.64 315.88 L123.64
						 374.08 L0 374.08 L0 368.68 Z" class="st12"/>
			<path d="M0 368.68 L118.24 368.68 L118.24 315.88 L116.44 315.88 L120.94 311.38 L125.44 315.88 L123.64 315.88 L123.64
						 374.08 L0 374.08" class="st13"/>
		</g>
		<g id="shape54-141" v:mID="54" v:groupContext="shape" transform="translate(34.6992,-201.629)">
			<title>Rounded rectangle.54</title>
			<desc>Port 1</desc>
			<v:userDefs>
				<v:ud v:nameU="visVersion" v:val="VT0(14):26"/>
			</v:userDefs>
			<v:textBlock v:margins="rect(4,4,4,4)"/>
			<v:textRect cx="16.875" cy="368.004" width="33.75" height="6.75"/>
			<rect x="0" y="364.629" width="33.75" height="6.75" rx="3.375" ry="3.375" class="st9"/>
			<text x="4" y="369.8" class="st5" v:langID="1033"><v:paragraph/><v:tabList/>Port 1</text>		</g>
		<g id="shape55-144" v:mID="55" v:groupContext="shape" transform="translate(125.482,-201.629)">
			<title>Rounded rectangle.55</title>
			<desc>Port 0</desc>
			<v:userDefs>
				<v:ud v:nameU="visVersion" v:val="VT0(14):26"/>
			</v:userDefs>
			<v:textBlock v:margins="rect(4,4,4,4)"/>
			<v:textRect cx="16.875" cy="368.004" width="33.75" height="6.75"/>
			<rect x="0" y="364.629" width="33.75" height="6.75" rx="3.375" ry="3.375" class="st9"/>
			<text x="4" y="369.8" class="st5" v:langID="1033"><v:paragraph/><v:tabList/>Port 0</text>		</g>
		<g id="shape56-147" v:mID="56" v:groupContext="shape" transform="translate(37.8296,-89.8141)">
			<title>Rounded rectangle.56</title>
			<desc>Plaintext</desc>
			<v:userDefs>
				<v:ud v:nameU="visVersion" v:val="VT0(14):26"/>
			</v:userDefs>
			<v:textBlock v:margins="rect(4,4,4,4)"/>
			<v:textRect cx="16.875" cy="368.004" width="33.75" height="6.75"/>
			<rect x="0" y="364.629" width="33.75" height="6.75" rx="3.375" ry="3.375" class="st9"/>
			<text x="4" y="369.8" class="st5" v:langID="1033"><v:paragraph/><v:tabList/>Plaintext</text>		</g>
		<g id="shape57-150" v:mID="57" v:groupContext="shape" transform="translate(398.955,-89.8141)">
			<title>Rounded rectangle.57</title>
			<desc>Plaintext</desc>
			<v:userDefs>
				<v:ud v:nameU="visVersion" v:val="VT0(14):26"/>
			</v:userDefs>
			<v:textBlock v:margins="rect(4,4,4,4)"/>
			<v:textRect cx="16.875" cy="368.004" width="33.75" height="6.75"/>
			<rect x="0" y="364.629" width="33.75" height="6.75" rx="3.375" ry="3.375" class="st9"/>
			<text x="4" y="369.8" class="st5" v:langID="1033"><v:paragraph/><v:tabList/>Plaintext</text>		</g>
		<g id="shape58-153" v:mID="58" v:groupContext="shape" transform="translate(415.83,-201.629)">
			<title>Rounded rectangle.63</title>
			<desc>Port 1</desc>
			<v:userDefs>
				<v:ud v:nameU="visVersion" v:val="VT0(14):26"/>
			</v:userDefs>
			<v:textBlock v:margins="rect(4,4,4,4)"/>
			<v:textRect cx="16.875" cy="368.004" width="33.75" height="6.75"/>
			<rect x="0" y="364.629" width="33.75" height="6.75" rx="3.375" ry="3.375" class="st9"/>
			<text x="4" y="369.8" class="st5" v:langID="1033"><v:paragraph/><v:tabList/>Port 1</text>		</g>
		<g id="shape59-156" v:mID="59" v:groupContext="shape" transform="translate(319.08,-201.629)">
			<title>Rounded rectangle.64</title>
			<desc>Port 0</desc>
			<v:userDefs>
				<v:ud v:nameU="visVersion" v:val="VT0(14):26"/>
			</v:userDefs>
			<v:textBlock v:margins="rect(4,4,4,4)"/>
			<v:textRect cx="16.875" cy="368.004" width="33.75" height="6.75"/>
			<rect x="0" y="364.629" width="33.75" height="6.75" rx="3.375" ry="3.375" class="st9"/>
			<text x="4" y="369.8" class="st5" v:langID="1033"><v:paragraph/><v:tabList/>Port 0</text>		</g>
		<g id="shape60-159" v:mID="60" v:groupContext="shape" transform="translate(216.264,-160.447)">
			<title>Rounded rectangle.65</title>
			<desc>Ciphertext</desc>
			<v:userDefs>
				<v:ud v:nameU="visVersion" v:val="VT0(14):26"/>
			</v:userDefs>
			<v:textBlock v:margins="rect(4,4,4,4)"/>
			<v:textRect cx="18.865" cy="368.004" width="37.73" height="6.75"/>
			<rect x="0" y="364.629" width="37.7299" height="6.75" rx="3.375" ry="3.375" class="st9"/>
			<text x="5.21" y="369.8" class="st5" v:langID="1033"><v:paragraph v:horizAlign="1"/><v:tabList/>Ciphertext</text>		</g>
		<g id="shape61-162" v:mID="61" v:groupContext="shape" transform="translate(106.32,-358.997)">
			<title>Rounded rectangle.527.61</title>
			<desc>strongSwan</desc>
			<v:userDefs>
				<v:ud v:nameU="visVersion" v:val="VT0(14):26"/>
			</v:userDefs>
			<v:textBlock v:margins="rect(0,0,0,0)"/>
			<v:textRect cx="17.1563" cy="367.067" width="34.32" height="8.625"/>
			<rect x="0" y="362.754" width="34.3125" height="8.625" rx="2.7" ry="2.7" class="st6"/>
			<text x="1.24" y="368.87" class="st5" v:langID="1033"><v:paragraph v:horizAlign="1"/><v:tabList/>strongSwan</text>		</g>
		<g id="shape62-165" v:mID="62" v:groupContext="shape" transform="translate(331.679,-358.997)">
			<title>Rounded rectangle.527.62</title>
			<desc>strongSwan</desc>
			<v:userDefs>
				<v:ud v:nameU="visVersion" v:val="VT0(14):26"/>
			</v:userDefs>
			<v:textBlock v:margins="rect(0,0,0,0)"/>
			<v:textRect cx="17.1563" cy="367.067" width="34.32" height="8.625"/>
			<rect x="0" y="362.754" width="34.3125" height="8.625" rx="2.7" ry="2.7" class="st6"/>
			<text x="1.24" y="368.87" class="st5" v:langID="1033"><v:paragraph v:horizAlign="1"/><v:tabList/>strongSwan</text>		</g>
		<g id="shape64-168" v:mID="64" v:groupContext="shape" transform="translate(78.7312,-230.197)">
			<title>Rectangle.64</title>
			<desc>IPsec</desc>
			<v:userDefs>
				<v:ud v:nameU="visVersion" v:val="VT0(14):26"/>
			</v:userDefs>
			<v:textBlock v:margins="rect(8,4,4,4)"/>
			<v:textRect cx="15.75" cy="360.913" width="31.5" height="20.9318"/>
			<rect x="0" y="350.447" width="31.5" height="20.9318" rx="2.7" ry="2.7" class="st4"/>
			<text x="8.34" y="364.71" class="st5" v:langID="1033"><v:paragraph v:horizAlign="1"/><v:tabList/>IPsec</text>		</g>
		<g id="shape65-171" v:mID="65" v:groupContext="shape" transform="translate(364.836,-230.197)">
			<title>Rectangle.65</title>
			<desc>IPsec</desc>
			<v:userDefs>
				<v:ud v:nameU="visVersion" v:val="VT0(14):26"/>
			</v:userDefs>
			<v:textBlock v:margins="rect(8,4,4,4)"/>
			<v:textRect cx="15.75" cy="360.913" width="31.5" height="20.9318"/>
			<rect x="0" y="350.447" width="31.5" height="20.9318" rx="2.7" ry="2.7" class="st4"/>
			<text x="8.34" y="364.71" class="st5" v:langID="1033"><v:paragraph v:horizAlign="1"/><v:tabList/>IPsec</text>		</g>
		<g id="shape66-174" v:mID="66" v:groupContext="shape" transform="translate(405.573,-230.197)">
			<title>Rectangle.66</title>
			<desc>OVS</desc>
			<v:userDefs>
				<v:ud v:nameU="visVersion" v:val="VT0(14):26"/>
			</v:userDefs>
			<v:textBlock v:margins="rect(8,4,4,4)"/>
			<v:textRect cx="15.75" cy="360.913" width="31.5" height="20.9318"/>
			<rect x="0" y="350.447" width="31.5" height="20.9318" rx="2.7" ry="2.7" class="st4"/>
			<text x="10" y="364.71" class="st5" v:langID="1033"><v:paragraph v:horizAlign="1"/><v:tabList/>OVS</text>		</g>
		<g id="shape10-177" v:mID="10" v:groupContext="shape" v:layerMember="0" transform="translate(119.392,-215.804)">
			<title>Standard Arrow.530</title>
			<path d="M0 357.64 L0 357.28 L0 343.93 A4.5 4.5 -180 0 0 -4.5 339.43 L-87.75 339.43 A4.5 4.5 -180 0 0 -92.25 343.93 L-92.25
						 357.28" class="st14"/>
		</g>
		<g id="shape30-186" v:mID="30" v:groupContext="shape" v:layerMember="0" transform="translate(446.767,-215.804)">
			<title>Standard Arrow.32</title>
			<path d="M0 357.64 L0 357.28 L0 343.93 A4.5 4.5 -180 0 0 -4.5 339.43 L-87.75 339.43 A4.5 4.5 -180 0 0 -92.25 343.93 L-92.25
						 357.28" class="st14"/>
		</g>
		<g id="shape67-193" v:mID="67" v:groupContext="shape" transform="translate(438.316,5.68434E-014)">
			<title>Sheet.67</title>
			<desc>X25555-091321</desc>
			<v:userDefs>
				<v:ud v:nameU="Margin" v:prompt="" v:val="VT0(0):26"/>
				<v:ud v:nameU="Class" v:prompt="" v:val="VT4(Xilinx.Visio.XNumberShape)"/>
				<v:ud v:nameU="Comment" v:prompt="" v:val="VT4(X-Number: X25555-091321)"/>
			</v:userDefs>
			<v:textBlock v:margins="rect(0,0,0,0)"/>
			<v:textRect cx="18.3193" cy="368.378" width="36.64" height="6.00345"/>
			<path d="M0 371.38 L36.64 371.38 L36.64 365.38 L0 365.38 L0 371.38 Z" class="st16"/>
			<path d="M0 371.38 L36.64 371.38 L36.64 365.38 L0 365.38 L0 371.38" class="st17"/>
			<path d="M0 372.88 L36.64 372.88" class="st17"/>
			<text x="1.24" y="369.88" class="st18" v:langID="1033"><v:paragraph v:horizAlign="2"/><v:tabList/>X25555-091321</text>		</g>
	</g>
</svg>
