<?xml version="1.0" encoding="UTF-8" standalone="no"?>
<!DOCTYPE svg PUBLIC "-//W3C//DTD SVG 1.1//EN" "http://www.w3.org/Graphics/SVG/1.1/DTD/svg11.dtd">
<!-- Generated by Microsoft Visio, SVG Export lpe1631063727073_HiRes.svg Page-1 -->
<svg xmlns="http://www.w3.org/2000/svg" xmlns:xlink="http://www.w3.org/1999/xlink" xmlns:ev="http://www.w3.org/2001/xml-events"
		xmlns:v="http://schemas.microsoft.com/visio/2003/SVGExtensions/" width="5.89236in" height="4.99655in"
		viewBox="0 0 424.25 359.752" xml:space="preserve" color-interpolation-filters="sRGB" class="st21">
	<v:documentProperties v:langID="1033" v:viewMarkup="false">
		<v:userDefs>
			<v:ud v:nameU="msvConvertTheme"/>
		</v:userDefs>
	</v:documentProperties>

	<style type="text/css">
	<![CDATA[
		.st1 {fill:#ffffff;stroke:#000000;stroke-linecap:butt;stroke-width:1}
		.st2 {fill:#000000;font-family:Roboto;font-size:0.833336em;font-weight:bold}
		.st3 {stroke:#000000;stroke-dasharray:4,2;stroke-linecap:butt;stroke-width:1}
		.st4 {fill:#d8d8d8;stroke:#000000;stroke-linecap:butt;stroke-width:1}
		.st5 {fill:#a5a5a5;stroke:#000000;stroke-linecap:butt;stroke-width:1}
		.st6 {fill:#595959;stroke:#000000;stroke-linecap:butt;stroke-width:1}
		.st7 {fill:#ffffff;font-family:Roboto;font-size:0.499992em}
		.st8 {font-size:1em}
		.st9 {fill:#000000;font-family:Roboto;font-size:0.499992em}
		.st10 {fill:#f2f2f2;stroke:#000000;stroke-linecap:butt;stroke-width:1}
		.st11 {stroke:#7f7f7f;stroke-dasharray:1,2;stroke-linecap:butt;stroke-width:1}
		.st12 {fill:none;stroke:none;stroke-linecap:butt;stroke-width:1}
		.st13 {fill:#000000;font-family:Roboto;font-size:0.666664em}
		.st14 {marker-end:url(#mrkr13-59);marker-start:url(#mrkr13-57);stroke:#ff3399;stroke-linecap:butt;stroke-width:0.5}
		.st15 {fill:#ff3399;fill-opacity:1;stroke:#ff3399;stroke-opacity:1;stroke-width:0.21739130434783}
		.st16 {marker-end:url(#mrkr13-114);marker-start:url(#mrkr13-112);stroke:#ff0000;stroke-linecap:butt;stroke-width:0.5}
		.st17 {fill:#ff0000;fill-opacity:1;stroke:#ff0000;stroke-opacity:1;stroke-width:0.21739130434783}
		.st18 {fill:#ffffff}
		.st19 {stroke:none;stroke-linecap:round;stroke-linejoin:round;stroke-width:0.75}
		.st20 {fill:#000000;font-family:Roboto;font-size:0.416656em}
		.st21 {fill:none;fill-rule:evenodd;font-size:12px;overflow:visible;stroke-linecap:square;stroke-miterlimit:3}
	]]>
	</style>

	<defs id="Markers">
		<g id="lend13">
			<path d="M 3 1 L 0 0 L 3 -1 L 3 1 " style="stroke:none"/>
		</g>
		<marker id="mrkr13-57" class="st15" v:arrowType="13" v:arrowSize="1" v:setback="13.08" refX="13.08" orient="auto"
				markerUnits="strokeWidth" overflow="visible">
			<use xlink:href="#lend13" transform="scale(4.6) "/>
		</marker>
		<marker id="mrkr13-59" class="st15" v:arrowType="13" v:arrowSize="1" v:setback="13.8" refX="-13.8" orient="auto"
				markerUnits="strokeWidth" overflow="visible">
			<use xlink:href="#lend13" transform="scale(-4.6,-4.6) "/>
		</marker>
		<marker id="mrkr13-112" class="st17" v:arrowType="13" v:arrowSize="1" v:setback="13.08" refX="13.08" orient="auto"
				markerUnits="strokeWidth" overflow="visible">
			<use xlink:href="#lend13" transform="scale(4.6) "/>
		</marker>
		<marker id="mrkr13-114" class="st17" v:arrowType="13" v:arrowSize="1" v:setback="13.8" refX="-13.8" orient="auto"
				markerUnits="strokeWidth" overflow="visible">
			<use xlink:href="#lend13" transform="scale(-4.6,-4.6) "/>
		</marker>
	</defs>
	<g v:mID="0" v:index="1" v:groupContext="foregroundPage">
		<title>Page-1</title>
		<v:pageProperties v:drawingScale="1" v:pageScale="1" v:drawingUnits="0" v:shadowOffsetX="0" v:shadowOffsetY="0"/>
		<v:layer v:name="Connector" v:index="0"/>
		<g id="shape2-1" v:mID="2" v:groupContext="shape" transform="translate(12.1562,-43.0017)">
			<title>Rounded rectangle.2</title>
			<desc>U25N</desc>
			<v:userDefs>
				<v:ud v:nameU="visVersion" v:val="VT0(14):26"/>
			</v:userDefs>
			<v:textBlock v:margins="rect(4,4,4,4)" v:verticalAlign="0"/>
			<v:textRect cx="197.297" cy="270.877" width="394.6" height="177.75"/>
			<rect x="0" y="182.002" width="394.594" height="177.75" rx="9" ry="9" class="st1"/>
			<text x="4" y="195" class="st2" v:langID="1033"><v:paragraph/><v:tabList/>U25N</text>		</g>
		<g id="shape3-4" v:mID="3" v:groupContext="shape" v:layerMember="0" transform="translate(202.675,-4.75173)">
			<title>Sheet.3</title>
			<path d="M7.2 359.75 L7.2 39.5" class="st3"/>
		</g>
		<g id="shape4-7" v:mID="4" v:groupContext="shape" transform="translate(38.3125,-161.127)">
			<title>Rounded rectangle.4</title>
			<desc>X2</desc>
			<v:userDefs>
				<v:ud v:nameU="visVersion" v:val="VT0(14):26"/>
			</v:userDefs>
			<v:textBlock v:margins="rect(4,4,4,4)"/>
			<v:textRect cx="171.563" cy="344.986" width="343.13" height="29.5313"/>
			<rect x="0" y="330.22" width="343.125" height="29.5313" rx="4.5" ry="4.5" class="st4"/>
			<text x="165.52" y="347.99" class="st2" v:langID="1033"><v:paragraph v:horizAlign="1"/><v:tabList/>X2</text>		</g>
		<g id="shape5-10" v:mID="5" v:groupContext="shape" transform="translate(32.125,-57.6267)">
			<title>Rounded rectangle.5</title>
			<desc>FPGA</desc>
			<v:userDefs>
				<v:ud v:nameU="visVersion" v:val="VT0(14):26"/>
			</v:userDefs>
			<v:textBlock v:margins="rect(4,4,4,4)"/>
			<v:textRect cx="177.75" cy="316.72" width="355.5" height="86.0625"/>
			<rect x="0" y="273.689" width="355.5" height="86.0625" rx="9" ry="9" class="st5"/>
			<text x="165.02" y="319.72" class="st2" v:langID="1033"><v:paragraph v:horizAlign="1"/><v:tabList/>FPGA</text>		</g>
		<g id="shape6-13" v:mID="6" v:groupContext="shape" transform="translate(95.125,-48.6267)">
			<title>Rounded rectangle.6</title>
			<desc>MAC 0</desc>
			<v:userDefs>
				<v:ud v:nameU="visVersion" v:val="VT0(14):26"/>
			</v:userDefs>
			<v:textBlock v:margins="rect(0,0,0,0)"/>
			<v:textRect cx="7.3125" cy="345.689" width="14.63" height="28.125"/>
			<rect x="0" y="331.627" width="14.625" height="28.125" rx="2.7" ry="2.7" class="st6"/>
			<text x="0.78" y="343.89" class="st7" v:langID="1033"><v:paragraph v:horizAlign="1"/><v:tabList/>MAC <tspan x="5.63"
						dy="1.2em" class="st8">0</tspan></text>		</g>
		<g id="shape7-17" v:mID="7" v:groupContext="shape" transform="translate(308.875,-48.6267)">
			<title>Rounded rectangle.7</title>
			<desc>MAC 1</desc>
			<v:userDefs>
				<v:ud v:nameU="visVersion" v:val="VT0(14):26"/>
			</v:userDefs>
			<v:textBlock v:margins="rect(0,0,0,0)"/>
			<v:textRect cx="7.3125" cy="345.689" width="14.63" height="28.125"/>
			<rect x="0" y="331.627" width="14.625" height="28.125" rx="2.7" ry="2.7" class="st6"/>
			<text x="0.78" y="343.89" class="st7" v:langID="1033"><v:paragraph v:horizAlign="1"/><v:tabList/>MAC <tspan x="5.63"
						dy="1.2em" class="st8">1</tspan></text>		</g>
		<g id="shape8-21" v:mID="8" v:groupContext="shape" transform="translate(95.125,-124.564)">
			<title>Rounded rectangle.21</title>
			<desc>MAC 2</desc>
			<v:userDefs>
				<v:ud v:nameU="visVersion" v:val="VT0(14):26"/>
			</v:userDefs>
			<v:textBlock v:margins="rect(0,0,0,0)"/>
			<v:textRect cx="7.3125" cy="345.689" width="14.63" height="28.125"/>
			<rect x="0" y="331.627" width="14.625" height="28.125" rx="2.7" ry="2.7" class="st6"/>
			<text x="0.78" y="343.89" class="st7" v:langID="1033"><v:paragraph v:horizAlign="1"/><v:tabList/>MAC <tspan x="5.63"
						dy="1.2em" class="st8">2</tspan></text>		</g>
		<g id="shape9-25" v:mID="9" v:groupContext="shape" transform="translate(308.875,-124.564)">
			<title>Rounded rectangle.9</title>
			<desc>MAC 3</desc>
			<v:userDefs>
				<v:ud v:nameU="visVersion" v:val="VT0(14):26"/>
			</v:userDefs>
			<v:textBlock v:margins="rect(0,0,0,0)"/>
			<v:textRect cx="7.3125" cy="345.689" width="14.63" height="28.125"/>
			<rect x="0" y="331.627" width="14.625" height="28.125" rx="2.7" ry="2.7" class="st6"/>
			<text x="0.78" y="343.89" class="st7" v:langID="1033"><v:paragraph v:horizAlign="1"/><v:tabList/>MAC <tspan x="5.63"
						dy="1.2em" class="st8">3</tspan></text>		</g>
		<g id="shape10-29" v:mID="10" v:groupContext="shape" transform="translate(62.1166,-185.877)">
			<title>Rounded rectangle.10</title>
			<desc>PF 0</desc>
			<v:userDefs>
				<v:ud v:nameU="visVersion" v:val="VT0(14):26"/>
			</v:userDefs>
			<v:textBlock v:margins="rect(4,4,4,4)"/>
			<v:textRect cx="18.1071" cy="351.877" width="36.22" height="15.75"/>
			<rect x="0" y="344.002" width="36.2143" height="15.75" rx="4.5" ry="4.5" class="st1"/>
			<text x="12.13" y="353.68" class="st9" v:langID="1033"><v:paragraph v:horizAlign="1"/><v:tabList/>PF 0</text>		</g>
		<g id="shape11-32" v:mID="11" v:groupContext="shape" transform="translate(113.381,-280.377)">
			<title>Rounded rectangle.11</title>
			<desc>eth0_0</desc>
			<v:userDefs>
				<v:ud v:nameU="visVersion" v:val="VT0(14):26"/>
			</v:userDefs>
			<v:textBlock v:margins="rect(4,4,4,4)"/>
			<v:textRect cx="18.1071" cy="351.877" width="36.22" height="15.75"/>
			<rect x="0" y="344.002" width="36.2143" height="15.75" rx="4.5" ry="4.5" class="st1"/>
			<text x="9.16" y="353.68" class="st9" v:langID="1033"><v:paragraph v:horizAlign="1"/><v:tabList/>eth0_0</text>		</g>
		<g id="shape14-35" v:mID="14" v:groupContext="shape" transform="translate(56.3125,-241.002)">
			<title>Rounded rectangle.14</title>
			<desc>sfc.ko</desc>
			<v:userDefs>
				<v:ud v:nameU="visVersion" v:val="VT0(14):26"/>
			</v:userDefs>
			<v:textBlock v:margins="rect(4,4,4,4)"/>
			<v:textRect cx="153.563" cy="347.236" width="307.13" height="25.0313"/>
			<rect x="0" y="334.72" width="307.125" height="25.0313" rx="4.5" ry="4.5" class="st10"/>
			<text x="139.64" y="350.24" class="st2" v:langID="1033"><v:paragraph v:horizAlign="1"/><v:tabList/>sfc.ko</text>		</g>
		<g id="shape15-38" v:mID="15" v:groupContext="shape" v:layerMember="0" transform="translate(422.5,-222.552)">
			<title>Sheet.15</title>
			<path d="M0 352.55 L-421.5 352.55" class="st11"/>
		</g>
		<g id="shape18-41" v:mID="18" v:groupContext="shape" transform="translate(139,-16.0017)">
			<title>Rounded rectangle.18</title>
			<desc>Adapter 0</desc>
			<v:userDefs>
				<v:ud v:nameU="visVersion" v:val="VT0(14):26"/>
			</v:userDefs>
			<v:textBlock v:margins="rect(4,4,4,4)"/>
			<v:textRect cx="25.9167" cy="356.377" width="51.84" height="6.75"/>
			<rect x="0" y="353.002" width="51.8333" height="6.75" rx="3.375" ry="3.375" class="st12"/>
			<text x="8.62" y="358.78" class="st13" v:langID="1033"><v:paragraph v:horizAlign="1"/><v:tabList/>Adapter 0</text>		</g>
		<g id="shape19-44" v:mID="19" v:groupContext="shape" transform="translate(230.008,-16.0017)">
			<title>Rounded rectangle.39</title>
			<desc>Adapter 1</desc>
			<v:userDefs>
				<v:ud v:nameU="visVersion" v:val="VT0(14):26"/>
			</v:userDefs>
			<v:textBlock v:margins="rect(4,4,4,4)"/>
			<v:textRect cx="25.9167" cy="356.377" width="51.84" height="6.75"/>
			<rect x="0" y="353.002" width="51.8333" height="6.75" rx="3.375" ry="3.375" class="st12"/>
			<text x="8.62" y="358.78" class="st13" v:langID="1033"><v:paragraph v:horizAlign="1"/><v:tabList/>Adapter 1</text>		</g>
		<g id="shape20-47" v:mID="20" v:groupContext="shape" transform="translate(146.875,-85.4002)">
			<title>Rounded rectangle.527.20</title>
			<desc>FPGA OVS ENGINE</desc>
			<v:userDefs>
				<v:ud v:nameU="visVersion" v:val="VT0(14):26"/>
			</v:userDefs>
			<v:textBlock v:margins="rect(4,4,4,4)"/>
			<v:textRect cx="63" cy="344.494" width="126" height="30.5156"/>
			<rect x="0" y="329.236" width="126" height="30.5156" rx="4.5" ry="4.5" class="st4"/>
			<text x="50.27" y="341.49" class="st2" v:langID="1033"><v:paragraph v:horizAlign="1"/><v:tabList/>FPGA<v:lf/><tspan
						x="34.41" dy="1.2em" class="st8">OVS ENGINE</tspan></text>		</g>
		<g id="shape16-51" v:mID="16" v:groupContext="shape" v:layerMember="0" transform="translate(95.2375,-124.564)">
			<title>Standard Arrow.20</title>
			<path d="M7.2 366.29 L7.2 366.65 L7.2 373.63 A4.5 4.5 -180 0 0 11.7 378.13 L67.35 378.13 A4.5 4.5 0 0 1 71.85 382.63
						 L71.85 386 A4.5 4.5 0 0 1 67.35 390.5 L11.7 390.5 A4.5 4.5 -180 0 0 7.2 395 L7.2 400.66" class="st14"/>
		</g>
		<g id="shape21-60" v:mID="21" v:groupContext="shape" v:layerMember="0" transform="translate(308.987,-124.564)">
			<title>Standard Arrow.21</title>
			<path d="M7.2 366.29 L7.2 366.65 L7.2 372.5 A4.5 4.5 0 0 1 2.7 377 L-53.02 377 A4.5 4.5 -180 0 0 -57.52 381.5 L-57.52
						 386 A4.5 4.5 -180 0 0 -53.02 390.5 L2.7 390.5 A4.5 4.5 0 0 1 7.2 395 L7.2 400.66" class="st14"/>
		</g>
		<g id="shape22-67" v:mID="22" v:groupContext="shape" transform="translate(113.957,-185.877)">
			<title>Rounded rectangle.527.22</title>
			<desc>VF 0</desc>
			<v:userDefs>
				<v:ud v:nameU="visVersion" v:val="VT0(14):26"/>
			</v:userDefs>
			<v:textBlock v:margins="rect(4,4,4,4)"/>
			<v:textRect cx="18.1071" cy="351.877" width="36.22" height="15.75"/>
			<rect x="0" y="344.002" width="36.2143" height="15.75" rx="4.5" ry="4.5" class="st1"/>
			<text x="12.11" y="353.68" class="st9" v:langID="1033"><v:paragraph v:horizAlign="1"/><v:tabList/>VF 0</text>		</g>
		<g id="shape23-70" v:mID="23" v:groupContext="shape" transform="translate(165.797,-185.877)">
			<title>Rounded rectangle.527.23</title>
			<desc>VF n</desc>
			<v:userDefs>
				<v:ud v:nameU="visVersion" v:val="VT0(14):26"/>
			</v:userDefs>
			<v:textBlock v:margins="rect(4,4,4,4)"/>
			<v:textRect cx="18.1071" cy="351.877" width="36.22" height="15.75"/>
			<rect x="0" y="344.002" width="36.2143" height="15.75" rx="4.5" ry="4.5" class="st1"/>
			<text x="12.14" y="353.68" class="st9" v:langID="1033"><v:paragraph v:horizAlign="1"/><v:tabList/>VF n</text>		</g>
		<g id="shape24-73" v:mID="24" v:groupContext="shape" transform="translate(217.637,-185.877)">
			<title>Rounded rectangle.527.24</title>
			<desc>VF n</desc>
			<v:userDefs>
				<v:ud v:nameU="visVersion" v:val="VT0(14):26"/>
			</v:userDefs>
			<v:textBlock v:margins="rect(4,4,4,4)"/>
			<v:textRect cx="18.1071" cy="351.877" width="36.22" height="15.75"/>
			<rect x="0" y="344.002" width="36.2143" height="15.75" rx="4.5" ry="4.5" class="st1"/>
			<text x="12.14" y="353.68" class="st9" v:langID="1033"><v:paragraph v:horizAlign="1"/><v:tabList/>VF n</text>		</g>
		<g id="shape25-76" v:mID="25" v:groupContext="shape" transform="translate(269.477,-185.877)">
			<title>Rounded rectangle.527.25</title>
			<desc>VF 0</desc>
			<v:userDefs>
				<v:ud v:nameU="visVersion" v:val="VT0(14):26"/>
			</v:userDefs>
			<v:textBlock v:margins="rect(4,4,4,4)"/>
			<v:textRect cx="18.1071" cy="351.877" width="36.22" height="15.75"/>
			<rect x="0" y="344.002" width="36.2143" height="15.75" rx="4.5" ry="4.5" class="st1"/>
			<text x="12.11" y="353.68" class="st9" v:langID="1033"><v:paragraph v:horizAlign="1"/><v:tabList/>VF 0</text>		</g>
		<g id="shape26-79" v:mID="26" v:groupContext="shape" transform="translate(321.317,-185.877)">
			<title>Rounded rectangle.26</title>
			<desc>PF 0</desc>
			<v:userDefs>
				<v:ud v:nameU="visVersion" v:val="VT0(14):26"/>
			</v:userDefs>
			<v:textBlock v:margins="rect(4,4,4,4)"/>
			<v:textRect cx="18.1071" cy="351.877" width="36.22" height="15.75"/>
			<rect x="0" y="344.002" width="36.2143" height="15.75" rx="4.5" ry="4.5" class="st1"/>
			<text x="12.13" y="353.68" class="st9" v:langID="1033"><v:paragraph v:horizAlign="1"/><v:tabList/>PF 0</text>		</g>
		<g id="shape27-82" v:mID="27" v:groupContext="shape" transform="translate(62.2845,-280.377)">
			<title>Rounded rectangle.27</title>
			<desc>eth0</desc>
			<v:userDefs>
				<v:ud v:nameU="visVersion" v:val="VT0(14):26"/>
			</v:userDefs>
			<v:textBlock v:margins="rect(4,4,4,4)"/>
			<v:textRect cx="18.1071" cy="351.877" width="36.22" height="15.75"/>
			<rect x="0" y="344.002" width="36.2143" height="15.75" rx="4.5" ry="4.5" class="st1"/>
			<text x="12.2" y="353.68" class="st9" v:langID="1033"><v:paragraph v:horizAlign="1"/><v:tabList/>eth0</text>		</g>
		<g id="shape28-85" v:mID="28" v:groupContext="shape" transform="translate(164.478,-280.377)">
			<title>Rounded rectangle.28</title>
			<desc>eth0_n</desc>
			<v:userDefs>
				<v:ud v:nameU="visVersion" v:val="VT0(14):26"/>
			</v:userDefs>
			<v:textBlock v:margins="rect(4,4,4,4)"/>
			<v:textRect cx="18.1071" cy="351.877" width="36.22" height="15.75"/>
			<rect x="0" y="344.002" width="36.2143" height="15.75" rx="4.5" ry="4.5" class="st1"/>
			<text x="9.19" y="353.68" class="st9" v:langID="1033"><v:paragraph v:horizAlign="1"/><v:tabList/>eth0_n</text>		</g>
		<g id="shape30-88" v:mID="30" v:groupContext="shape" transform="translate(268.78,-280.377)">
			<title>Rounded rectangle.527.30</title>
			<desc>eth1_0</desc>
			<v:userDefs>
				<v:ud v:nameU="visVersion" v:val="VT0(14):26"/>
			</v:userDefs>
			<v:textBlock v:margins="rect(4,4,4,4)"/>
			<v:textRect cx="18.1071" cy="351.877" width="36.22" height="15.75"/>
			<rect x="0" y="344.002" width="36.2143" height="15.75" rx="4.5" ry="4.5" class="st1"/>
			<text x="9.16" y="353.68" class="st9" v:langID="1033"><v:paragraph v:horizAlign="1"/><v:tabList/>eth1_0</text>		</g>
		<g id="shape31-91" v:mID="31" v:groupContext="shape" transform="translate(217.683,-280.377)">
			<title>Rounded rectangle.527.31</title>
			<desc>eth1_n</desc>
			<v:userDefs>
				<v:ud v:nameU="visVersion" v:val="VT0(14):26"/>
			</v:userDefs>
			<v:textBlock v:margins="rect(4,4,4,4)"/>
			<v:textRect cx="18.1071" cy="351.877" width="36.22" height="15.75"/>
			<rect x="0" y="344.002" width="36.2143" height="15.75" rx="4.5" ry="4.5" class="st1"/>
			<text x="9.19" y="353.68" class="st9" v:langID="1033"><v:paragraph v:horizAlign="1"/><v:tabList/>eth1_n</text>		</g>
		<g id="shape32-94" v:mID="32" v:groupContext="shape" transform="translate(319.877,-280.377)">
			<title>Rounded rectangle.32</title>
			<desc>eth1</desc>
			<v:userDefs>
				<v:ud v:nameU="visVersion" v:val="VT0(14):26"/>
			</v:userDefs>
			<v:textBlock v:margins="rect(4,4,4,4)"/>
			<v:textRect cx="18.1071" cy="351.877" width="36.22" height="15.75"/>
			<rect x="0" y="344.002" width="36.2143" height="15.75" rx="4.5" ry="4.5" class="st1"/>
			<text x="12.2" y="353.68" class="st9" v:langID="1033"><v:paragraph v:horizAlign="1"/><v:tabList/>eth1</text>		</g>
		<g id="shape33-97" v:mID="33" v:groupContext="shape" transform="translate(149.091,-280.002)">
			<title>Rounded rectangle.33</title>
			<desc>….</desc>
			<v:userDefs>
				<v:ud v:nameU="visVersion" v:val="VT0(14):26"/>
			</v:userDefs>
			<v:textBlock v:margins="rect(4,4,4,4)"/>
			<v:textRect cx="8.06868" cy="355.252" width="16.14" height="9"/>
			<rect x="0" y="350.752" width="16.1374" height="9" rx="4.5" ry="4.5" class="st12"/>
			<text x="4.34" y="357.65" class="st13" v:langID="1033"><v:paragraph v:horizAlign="1"/><v:tabList/>….</text>		</g>
		<g id="shape34-100" v:mID="34" v:groupContext="shape" transform="translate(252.591,-280.002)">
			<title>Rounded rectangle.34</title>
			<desc>….</desc>
			<v:userDefs>
				<v:ud v:nameU="visVersion" v:val="VT0(14):26"/>
			</v:userDefs>
			<v:textBlock v:margins="rect(4,4,4,4)"/>
			<v:textRect cx="8.06868" cy="355.252" width="16.14" height="9"/>
			<rect x="0" y="350.752" width="16.1374" height="9" rx="4.5" ry="4.5" class="st12"/>
			<text x="4.34" y="357.65" class="st13" v:langID="1033"><v:paragraph v:horizAlign="1"/><v:tabList/>….</text>		</g>
		<g id="shape38-103" v:mID="38" v:groupContext="shape" transform="translate(169.375,-325.002)">
			<title>Rounded rectangle.527.38</title>
			<desc>ovs.ko</desc>
			<v:userDefs>
				<v:ud v:nameU="visVersion" v:val="VT0(14):26"/>
			</v:userDefs>
			<v:textBlock v:margins="rect(4,4,4,4)"/>
			<v:textRect cx="40.5" cy="342.877" width="81" height="33.75"/>
			<rect x="0" y="326.002" width="81" height="33.75" rx="4.5" ry="4.5" class="st1"/>
			<text x="25.62" y="345.88" class="st2" v:langID="1033"><v:paragraph v:horizAlign="1"/><v:tabList/>ovs.ko</text>		</g>
		<g id="shape39-106" v:mID="39" v:groupContext="shape" v:layerMember="0" transform="translate(185.091,-325.002)">
			<title>Standard Arrow.530</title>
			<path d="M-6.3 361.49 L-6.65 361.59 L-98.05 386.79" class="st16"/>
		</g>
		<g id="shape40-115" v:mID="40" v:groupContext="shape" v:layerMember="0" transform="translate(185.091,-325.002)">
			<title>Standard Arrow.40</title>
			<path d="M-5.76 362.85 L-6.07 363.02 L-47.53 385.35" class="st16"/>
		</g>
		<g id="shape41-122" v:mID="41" v:groupContext="shape" v:layerMember="0" transform="translate(191.038,-325.002)">
			<title>Standard Arrow.41</title>
			<path d="M-6.51 366.27 L-6.54 366.63 L-7.86 381.75" class="st16"/>
		</g>
		<g id="shape42-129" v:mID="42" v:groupContext="shape" v:layerMember="0" transform="translate(226.866,-325.002)">
			<title>Standard Arrow.42</title>
			<path d="M6.25 366.25 L6.29 366.6 L8.11 381.78" class="st16"/>
		</g>
		<g id="shape43-136" v:mID="43" v:groupContext="shape" v:layerMember="0" transform="translate(232.341,-325.002)">
			<title>Standard Arrow.43</title>
			<path d="M5.78 362.81 L6.1 362.98 L48.45 385.4" class="st16"/>
		</g>
		<g id="shape44-143" v:mID="44" v:groupContext="shape" v:layerMember="0" transform="translate(232.341,-325.002)">
			<title>Standard Arrow.44</title>
			<path d="M6.31 361.48 L6.66 361.57 L98.99 386.81" class="st16"/>
		</g>
		<g id="shape45-150" v:mID="45" v:groupContext="shape" transform="translate(141.174,-271.002)">
			<title>Rounded rectangle.45</title>
			<desc>VF reps</desc>
			<v:userDefs>
				<v:ud v:nameU="visVersion" v:val="VT0(14):26"/>
			</v:userDefs>
			<v:textBlock v:margins="rect(4,4,4,4)"/>
			<v:textRect cx="15.2083" cy="356.377" width="30.42" height="6.75"/>
			<rect x="0" y="353.002" width="30.4167" height="6.75" rx="3.375" ry="3.375" class="st12"/>
			<text x="5.06" y="358.18" class="st9" v:langID="1033"><v:paragraph v:horizAlign="1"/><v:tabList/>VF reps</text>		</g>
		<g id="shape46-153" v:mID="46" v:groupContext="shape" transform="translate(246.383,-271.002)">
			<title>Rounded rectangle.46</title>
			<desc>VF reps</desc>
			<v:userDefs>
				<v:ud v:nameU="visVersion" v:val="VT0(14):26"/>
			</v:userDefs>
			<v:textBlock v:margins="rect(4,4,4,4)"/>
			<v:textRect cx="15.2083" cy="356.377" width="30.42" height="6.75"/>
			<rect x="0" y="353.002" width="30.4167" height="6.75" rx="3.375" ry="3.375" class="st12"/>
			<text x="5.06" y="358.18" class="st9" v:langID="1033"><v:paragraph v:horizAlign="1"/><v:tabList/>VF reps</text>		</g>
		<g id="shape47-156" v:mID="47" v:groupContext="shape" transform="translate(387.611,0)">
			<title>Sheet.47</title>
			<desc>X25549-091321</desc>
			<v:userDefs>
				<v:ud v:nameU="Margin" v:prompt="" v:val="VT0(0):26"/>
				<v:ud v:nameU="Class" v:prompt="" v:val="VT4(Xilinx.Visio.XNumberShape)"/>
				<v:ud v:nameU="Comment" v:prompt="" v:val="VT4(X-Number: X25549-091321)"/>
			</v:userDefs>
			<v:textBlock v:margins="rect(0,0,0,0)"/>
			<v:textRect cx="18.3193" cy="356.75" width="36.64" height="6.00345"/>
			<path d="M0 359.75 L36.64 359.75 L36.64 353.75 L0 353.75 L0 359.75 Z" class="st18"/>
			<path d="M0 359.75 L36.64 359.75 L36.64 353.75 L0 353.75 L0 359.75" class="st19"/>
			<path d="M0 361.25 L36.64 361.25" class="st19"/>
			<text x="1.24" y="358.25" class="st20" v:langID="1033"><v:paragraph v:horizAlign="2"/><v:tabList/>X25549-091321</text>		</g>
	</g>
</svg>
