<?xml version="1.0" encoding="UTF-8" standalone="no"?>
<!DOCTYPE svg PUBLIC "-//W3C//DTD SVG 1.1//EN" "http://www.w3.org/Graphics/SVG/1.1/DTD/svg11.dtd">
<!-- Generated by Microsoft Visio, SVG Export nec1631059820936_HiRes.svg Page-1 -->
<svg xmlns="http://www.w3.org/2000/svg" xmlns:xlink="http://www.w3.org/1999/xlink" xmlns:ev="http://www.w3.org/2001/xml-events"
		xmlns:v="http://schemas.microsoft.com/visio/2003/SVGExtensions/" width="7.01389in" height="3.00724in"
		viewBox="0 0 505 216.522" xml:space="preserve" color-interpolation-filters="sRGB" class="st25">
	<v:documentProperties v:langID="1033" v:viewMarkup="false">
		<v:userDefs>
			<v:ud v:nameU="msvConvertTheme"/>
		</v:userDefs>
	</v:documentProperties>

	<style type="text/css">
	<![CDATA[
		.st1 {fill:#ffffff;stroke:#000000;stroke-linecap:butt;stroke-width:1}
		.st2 {fill:#000000;font-family:Roboto;font-size:0.666664em;font-weight:bold}
		.st3 {stroke:#000000;stroke-dasharray:4,2;stroke-linecap:butt;stroke-width:1}
		.st4 {fill:#d8d8d8;stroke:#000000;stroke-linecap:butt;stroke-width:1}
		.st5 {fill:#a5a5a5;stroke:#000000;stroke-linecap:butt;stroke-width:1}
		.st6 {fill:#595959;stroke:#000000;stroke-linecap:butt;stroke-width:1}
		.st7 {fill:#ffffff;font-family:Roboto;font-size:0.416656em}
		.st8 {font-size:1em}
		.st9 {fill:#000000;font-family:Roboto;font-size:0.499992em}
		.st10 {fill:#f2f2f2;stroke:#000000;stroke-linecap:butt;stroke-width:1}
		.st11 {stroke:#7f7f7f;stroke-dasharray:1,2;stroke-linecap:butt;stroke-width:1}
		.st12 {marker-end:url(#mrkr13-55);marker-start:url(#mrkr13-53);stroke:#ff0000;stroke-linecap:butt;stroke-width:0.5}
		.st13 {fill:#ff0000;fill-opacity:1;stroke:#ff0000;stroke-opacity:1;stroke-width:0.21739130434783}
		.st14 {fill:none;stroke:none;stroke-linecap:butt;stroke-width:1}
		.st15 {fill:#000000;font-family:Roboto;font-size:0.583328em}
		.st16 {fill:#000000;font-family:Roboto;font-size:0.833336em;font-weight:bold}
		.st17 {fill:#000000;font-family:Roboto;font-size:0.333344em}
		.st18 {marker-end:url(#mrkr13-127);marker-start:url(#mrkr13-125);stroke:#ff3399;stroke-linecap:butt;stroke-width:0.5}
		.st19 {fill:#ff3399;fill-opacity:1;stroke:#ff3399;stroke-opacity:1;stroke-width:0.21739130434783}
		.st20 {marker-end:url(#mrkr13-127);marker-start:url(#mrkr13-134);stroke:#ff3399;stroke-linecap:butt;stroke-width:0.5}
		.st21 {fill:#000000;font-family:Roboto;font-size:0.666664em}
		.st22 {fill:#000000;font-family:Roboto;font-size:0.416656em}
		.st23 {fill:#ffffff}
		.st24 {stroke:none;stroke-linecap:round;stroke-linejoin:round;stroke-width:0.75}
		.st25 {fill:none;fill-rule:evenodd;font-size:12px;overflow:visible;stroke-linecap:square;stroke-miterlimit:3}
	]]>
	</style>

	<defs id="Markers">
		<g id="lend13">
			<path d="M 3 1 L 0 0 L 3 -1 L 3 1 " style="stroke:none"/>
		</g>
		<marker id="mrkr13-53" class="st13" v:arrowType="13" v:arrowSize="1" v:setback="13.08" refX="13.08" orient="auto"
				markerUnits="strokeWidth" overflow="visible">
			<use xlink:href="#lend13" transform="scale(4.6) "/>
		</marker>
		<marker id="mrkr13-55" class="st13" v:arrowType="13" v:arrowSize="1" v:setback="13.8" refX="-13.8" orient="auto"
				markerUnits="strokeWidth" overflow="visible">
			<use xlink:href="#lend13" transform="scale(-4.6,-4.6) "/>
		</marker>
		<marker id="mrkr13-125" class="st19" v:arrowType="13" v:arrowSize="1" v:setback="0" refX="0" orient="auto"
				markerUnits="strokeWidth" overflow="visible">
			<use xlink:href="#lend13" transform="scale(4.6) "/>
		</marker>
		<marker id="mrkr13-127" class="st19" v:arrowType="13" v:arrowSize="1" v:setback="0" refX="-0" orient="auto"
				markerUnits="strokeWidth" overflow="visible">
			<use xlink:href="#lend13" transform="scale(-4.6,-4.6) "/>
		</marker>
		<marker id="mrkr13-134" class="st19" v:arrowType="13" v:arrowSize="1" v:setback="13.08" refX="13.08" orient="auto"
				markerUnits="strokeWidth" overflow="visible">
			<use xlink:href="#lend13" transform="scale(4.6) "/>
		</marker>
	</defs>
	<g v:mID="0" v:index="1" v:groupContext="foregroundPage">
		<title>Page-1</title>
		<v:pageProperties v:drawingScale="1" v:pageScale="1" v:drawingUnits="0" v:shadowOffsetX="0" v:shadowOffsetY="0"/>
		<v:layer v:name="Connector" v:index="0"/>
		<g id="shape31-1" v:mID="31" v:groupContext="shape" transform="translate(7.64345,-26.997)">
			<title>Rounded rectangle.31</title>
			<desc>U25N</desc>
			<v:userDefs>
				<v:ud v:nameU="visVersion" v:val="VT0(14):26"/>
			</v:userDefs>
			<v:textBlock v:margins="rect(4,4,4,4)" v:verticalAlign="0"/>
			<v:textRect cx="117.489" cy="163.597" width="234.98" height="105.849"/>
			<rect x="0" y="110.673" width="234.978" height="105.849" rx="9" ry="9" class="st1"/>
			<text x="4" y="121.87" class="st2" v:langID="1033"><v:paragraph/><v:tabList/>U25N</text>		</g>
		<g id="shape32-4" v:mID="32" v:groupContext="shape" v:layerMember="0" transform="translate(112.824,-4.21945)">
			<title>Sheet.32</title>
			<path d="M7.2 216.52 L7.2 25.82" class="st3"/>
		</g>
		<g id="shape23-7" v:mID="23" v:groupContext="shape" transform="translate(23.5543,-97.3396)">
			<title>Rounded rectangle.23</title>
			<desc>X2</desc>
			<v:userDefs>
				<v:ud v:nameU="visVersion" v:val="VT0(14):26"/>
			</v:userDefs>
			<v:textBlock v:margins="rect(4,4,4,4)"/>
			<v:textRect cx="102.164" cy="207.729" width="204.33" height="17.5856"/>
			<rect x="0" y="198.936" width="204.328" height="17.5856" rx="4.5" ry="4.5" class="st4"/>
			<text x="97.33" y="210.13" class="st2" v:langID="1033"><v:paragraph v:horizAlign="1"/><v:tabList/>X2</text>		</g>
		<g id="shape4-10" v:mID="4" v:groupContext="shape" transform="translate(19.5347,-35.7061)">
			<title>Rounded rectangle.4</title>
			<desc>FPGA</desc>
			<v:userDefs>
				<v:ud v:nameU="visVersion" v:val="VT0(14):26"/>
			</v:userDefs>
			<v:textBlock v:margins="rect(4,4,4,4)"/>
			<v:textRect cx="105.849" cy="190.897" width="211.7" height="51.2496"/>
			<rect x="0" y="165.272" width="211.698" height="51.2496" rx="9" ry="9" class="st5"/>
			<text x="95.66" y="193.3" class="st2" v:langID="1033"><v:paragraph v:horizAlign="1"/><v:tabList/>FPGA</text>		</g>
		<g id="shape19-13" v:mID="19" v:groupContext="shape" transform="translate(57.0507,-30.3467)">
			<title>Rounded rectangle.19</title>
			<desc>MAC 0</desc>
			<v:userDefs>
				<v:ud v:nameU="visVersion" v:val="VT0(14):26"/>
			</v:userDefs>
			<v:textBlock v:margins="rect(0,0,0,0)"/>
			<v:textRect cx="5.5485" cy="208.147" width="11.1" height="16.7482"/>
			<rect x="0" y="199.773" width="11.097" height="16.7482" rx="2.7" ry="2.7" class="st6"/>
			<text x="0.11" y="206.65" class="st7" v:langID="1033"><v:paragraph v:horizAlign="1"/><v:tabList/>MAC <tspan x="4.14"
						dy="1.2em" class="st8">0</tspan></text>		</g>
		<g id="shape20-17" v:mID="20" v:groupContext="shape" transform="translate(184.337,-30.3467)">
			<title>Rounded rectangle.20</title>
			<desc>MAC 1</desc>
			<v:userDefs>
				<v:ud v:nameU="visVersion" v:val="VT0(14):26"/>
			</v:userDefs>
			<v:textBlock v:margins="rect(0,0,0,0)"/>
			<v:textRect cx="6.11141" cy="208.147" width="12.23" height="16.7482"/>
			<rect x="0" y="199.773" width="12.2228" height="16.7482" rx="2.7" ry="2.7" class="st6"/>
			<text x="0.67" y="206.65" class="st7" v:langID="1033"><v:paragraph v:horizAlign="1"/><v:tabList/>MAC <tspan x="4.71"
						dy="1.2em" class="st8">1</tspan></text>		</g>
		<g id="shape21-21" v:mID="21" v:groupContext="shape" transform="translate(57.0507,-75.5669)">
			<title>Rounded rectangle.21</title>
			<desc>MAC 2</desc>
			<v:userDefs>
				<v:ud v:nameU="visVersion" v:val="VT0(14):26"/>
			</v:userDefs>
			<v:textBlock v:margins="rect(0,0,0,0)"/>
			<v:textRect cx="5.5485" cy="208.147" width="11.1" height="16.7482"/>
			<rect x="0" y="199.773" width="11.097" height="16.7482" rx="2.7" ry="2.7" class="st6"/>
			<text x="0.11" y="206.65" class="st7" v:langID="1033"><v:paragraph v:horizAlign="1"/><v:tabList/>MAC <tspan x="4.14"
						dy="1.2em" class="st8">2</tspan></text>		</g>
		<g id="shape22-25" v:mID="22" v:groupContext="shape" transform="translate(184.337,-75.5669)">
			<title>Rounded rectangle.22</title>
			<desc>MAC 3</desc>
			<v:userDefs>
				<v:ud v:nameU="visVersion" v:val="VT0(14):26"/>
			</v:userDefs>
			<v:textBlock v:margins="rect(0,0,0,0)"/>
			<v:textRect cx="6.11141" cy="208.147" width="12.23" height="16.7482"/>
			<rect x="0" y="199.773" width="12.2228" height="16.7482" rx="2.7" ry="2.7" class="st6"/>
			<text x="0.67" y="206.65" class="st7" v:langID="1033"><v:paragraph v:horizAlign="1"/><v:tabList/>MAC <tspan x="4.71"
						dy="1.2em" class="st8">3</tspan></text>		</g>
		<g id="shape24-29" v:mID="24" v:groupContext="shape" transform="translate(68.3119,-112.078)">
			<title>Rounded rectangle.24</title>
			<desc>PF0</desc>
			<v:userDefs>
				<v:ud v:nameU="visVersion" v:val="VT0(14):26"/>
			</v:userDefs>
			<v:textBlock v:margins="rect(4,4,4,4)"/>
			<v:textRect cx="10.7827" cy="211.832" width="21.57" height="9.379"/>
			<rect x="0" y="207.143" width="21.5653" height="9.379" rx="4.5" ry="4.5" class="st1"/>
			<text x="5.55" y="213.63" class="st9" v:langID="1033"><v:paragraph v:horizAlign="1"/><v:tabList/>PF0</text>		</g>
		<g id="shape25-32" v:mID="25" v:groupContext="shape" transform="translate(68.3119,-168.352)">
			<title>Rounded rectangle.25</title>
			<desc>eth0</desc>
			<v:userDefs>
				<v:ud v:nameU="visVersion" v:val="VT0(14):26"/>
			</v:userDefs>
			<v:textBlock v:margins="rect(4,4,4,4)"/>
			<v:textRect cx="10.7827" cy="211.832" width="21.57" height="9.379"/>
			<rect x="0" y="207.143" width="21.5653" height="9.379" rx="4.5" ry="4.5" class="st1"/>
			<text x="4.88" y="213.63" class="st9" v:langID="1033"><v:paragraph v:horizAlign="1"/><v:tabList/>eth0</text>		</g>
		<g id="shape26-35" v:mID="26" v:groupContext="shape" transform="translate(164.686,-168.352)">
			<title>Rounded rectangle.26</title>
			<desc>eth1</desc>
			<v:userDefs>
				<v:ud v:nameU="visVersion" v:val="VT0(14):26"/>
			</v:userDefs>
			<v:textBlock v:margins="rect(4,4,4,4)"/>
			<v:textRect cx="10.7827" cy="211.832" width="21.57" height="9.379"/>
			<rect x="0" y="207.143" width="21.5653" height="9.379" rx="4.5" ry="4.5" class="st1"/>
			<text x="4.88" y="213.63" class="st9" v:langID="1033"><v:paragraph v:horizAlign="1"/><v:tabList/>eth1</text>		</g>
		<g id="shape29-38" v:mID="29" v:groupContext="shape" transform="translate(164.686,-112.078)">
			<title>Rounded rectangle.29</title>
			<desc>PF0</desc>
			<v:userDefs>
				<v:ud v:nameU="visVersion" v:val="VT0(14):26"/>
			</v:userDefs>
			<v:textBlock v:margins="rect(4,4,4,4)"/>
			<v:textRect cx="10.7827" cy="211.832" width="21.57" height="9.379"/>
			<rect x="0" y="207.143" width="21.5653" height="9.379" rx="4.5" ry="4.5" class="st1"/>
			<text x="5.55" y="213.63" class="st9" v:langID="1033"><v:paragraph v:horizAlign="1"/><v:tabList/>PF0</text>		</g>
		<g id="shape30-41" v:mID="30" v:groupContext="shape" transform="translate(32.2633,-144.905)">
			<title>Rounded rectangle.30</title>
			<desc>sfc.ko</desc>
			<v:userDefs>
				<v:ud v:nameU="visVersion" v:val="VT0(14):26"/>
			</v:userDefs>
			<v:textBlock v:margins="rect(4,4,4,4)"/>
			<v:textRect cx="91.4453" cy="209.069" width="182.9" height="14.9059"/>
			<rect x="0" y="201.616" width="182.891" height="14.9059" rx="4.5" ry="4.5" class="st10"/>
			<text x="80.31" y="211.47" class="st2" v:langID="1033"><v:paragraph v:horizAlign="1"/><v:tabList/>sfc.ko</text>		</g>
		<g id="shape33-44" v:mID="33" v:groupContext="shape" v:layerMember="0" transform="translate(252,-131.005)">
			<title>Sheet.33</title>
			<path d="M0 209.32 L-251 209.32" class="st11"/>
		</g>
		<g id="shape34-47" v:mID="34" v:groupContext="shape" v:layerMember="0" transform="translate(79.0946,-168.352)">
			<title>Standard Arrow.20</title>
			<path d="M0 223.06 L0 223.42 L0 277.7 A4.5 4.5 0 0 1 -4.5 282.2 L-12 282.2 A4.5 4.5 -180 0 0 -16.5 286.7 L-16.5 330.88"
					class="st12"/>
		</g>
		<g id="shape37-56" v:mID="37" v:groupContext="shape" v:layerMember="0" transform="translate(175.469,-168.352)">
			<title>Standard Arrow.37</title>
			<path d="M0 223.06 L0 223.42 L0 275.54 A4.5 4.5 -180 0 0 4.5 280.04 L10.48 280.04 A4.5 4.5 0 0 1 14.98 284.54 L14.98
						 330.88" class="st12"/>
		</g>
		<g id="shape38-63" v:mID="38" v:groupContext="shape" transform="translate(68.4,-10.9187)">
			<title>Rounded rectangle.38</title>
			<desc>Adapter 0</desc>
			<v:userDefs>
				<v:ud v:nameU="visVersion" v:val="VT0(14):26"/>
			</v:userDefs>
			<v:textBlock v:margins="rect(4,4,4,4)"/>
			<v:textRect cx="20.8124" cy="214.512" width="41.63" height="4.01957"/>
			<rect x="0" y="212.502" width="41.6247" height="4.01957" rx="2.00979" ry="2.00979" class="st14"/>
			<text x="5.67" y="216.61" class="st15" v:langID="1033"><v:paragraph v:horizAlign="1"/><v:tabList/>Adapter 0</text>		</g>
		<g id="shape39-66" v:mID="39" v:groupContext="shape" transform="translate(130.743,-10.9187)">
			<title>Rounded rectangle.39</title>
			<desc>Adapter 1</desc>
			<v:userDefs>
				<v:ud v:nameU="visVersion" v:val="VT0(14):26"/>
			</v:userDefs>
			<v:textBlock v:margins="rect(4,4,4,4)"/>
			<v:textRect cx="19.7725" cy="214.512" width="39.55" height="4.01957"/>
			<rect x="0" y="212.502" width="39.545" height="4.01957" rx="2.00979" ry="2.00979" class="st14"/>
			<text x="4.63" y="216.61" class="st15" v:langID="1033"><v:paragraph v:horizAlign="1"/><v:tabList/>Adapter 1</text>		</g>
		<g id="shape41-69" v:mID="41" v:groupContext="shape" transform="translate(259.079,-27.0604)">
			<title>Rounded rectangle.2</title>
			<desc>U25N</desc>
			<v:userDefs>
				<v:ud v:nameU="visVersion" v:val="VT0(14):26"/>
			</v:userDefs>
			<v:textBlock v:margins="rect(4,4,4,4)" v:verticalAlign="0"/>
			<v:textRect cx="117.76" cy="163.475" width="235.53" height="106.093"/>
			<rect x="0" y="110.428" width="235.521" height="106.093" rx="9" ry="9" class="st1"/>
			<text x="4" y="121.63" class="st2" v:langID="1033"><v:paragraph/><v:tabList/>U25N</text>		</g>
		<g id="shape42-72" v:mID="42" v:groupContext="shape" v:layerMember="0" transform="translate(369.891,-4.23017)">
			<title>Sheet.42</title>
			<path d="M7.2 216.52 L7.2 25.37" class="st3"/>
		</g>
		<g id="shape43-75" v:mID="43" v:groupContext="shape" transform="translate(274.691,-97.5655)">
			<title>Rounded rectangle.43</title>
			<desc>X2</desc>
			<v:userDefs>
				<v:ud v:nameU="visVersion" v:val="VT0(14):26"/>
			</v:userDefs>
			<v:textBlock v:margins="rect(4,4,4,4)"/>
			<v:textRect cx="102.4" cy="207.708" width="204.81" height="17.6263"/>
			<rect x="0" y="198.895" width="204.8" height="17.6263" rx="4.5" ry="4.5" class="st4"/>
			<text x="97.56" y="210.11" class="st2" v:langID="1033"><v:paragraph v:horizAlign="1"/><v:tabList/>X2</text>		</g>
		<g id="shape44-78" v:mID="44" v:groupContext="shape" transform="translate(270.998,-35.7896)">
			<title>Rounded rectangle.5</title>
			<desc>FPGA</desc>
			<v:userDefs>
				<v:ud v:nameU="visVersion" v:val="VT0(14):26"/>
			</v:userDefs>
			<v:textBlock v:margins="rect(4,4,4,4)"/>
			<v:textRect cx="106.093" cy="190.838" width="212.19" height="51.368"/>
			<rect x="0" y="165.154" width="212.187" height="51.368" rx="9" ry="9" class="st5"/>
			<text x="93.36" y="193.84" class="st16" v:langID="1033"><v:paragraph v:horizAlign="1"/><v:tabList/>FPGA</text>		</g>
		<g id="shape45-81" v:mID="45" v:groupContext="shape" transform="translate(308.6,-30.4178)">
			<title>Rounded rectangle.6</title>
			<desc>MAC 0</desc>
			<v:userDefs>
				<v:ud v:nameU="visVersion" v:val="VT0(14):26"/>
			</v:userDefs>
			<v:textBlock v:margins="rect(0,0,0,0)"/>
			<v:textRect cx="5.61188" cy="208.128" width="11.23" height="16.7869"/>
			<rect x="0" y="199.735" width="11.2238" height="16.7869" rx="2.7" ry="2.7" class="st6"/>
			<text x="0.17" y="206.63" class="st7" v:langID="1033"><v:paragraph v:horizAlign="1"/><v:tabList/>MAC <tspan x="4.21"
						dy="1.2em" class="st8">0</tspan></text>		</g>
		<g id="shape46-85" v:mID="46" v:groupContext="shape" transform="translate(436.181,-30.4178)">
			<title>Rounded rectangle.7</title>
			<desc>MAC 1</desc>
			<v:userDefs>
				<v:ud v:nameU="visVersion" v:val="VT0(14):26"/>
			</v:userDefs>
			<v:textBlock v:margins="rect(0,0,0,0)"/>
			<v:textRect cx="5.68558" cy="208.128" width="11.38" height="16.7869"/>
			<rect x="0" y="199.735" width="11.3712" height="16.7869" rx="2.7" ry="2.7" class="st6"/>
			<text x="0.24" y="206.63" class="st7" v:langID="1033"><v:paragraph v:horizAlign="1"/><v:tabList/>MAC <tspan x="4.28"
						dy="1.2em" class="st8">1</tspan></text>		</g>
		<g id="shape47-89" v:mID="47" v:groupContext="shape" transform="translate(308.6,-75.7425)">
			<title>Rounded rectangle.47</title>
			<desc>MAC 2</desc>
			<v:userDefs>
				<v:ud v:nameU="visVersion" v:val="VT0(14):26"/>
			</v:userDefs>
			<v:textBlock v:margins="rect(0,0,0,0)"/>
			<v:textRect cx="5.89988" cy="208.128" width="11.8" height="16.7869"/>
			<rect x="0" y="199.735" width="11.7998" height="16.7869" rx="2.7" ry="2.7" class="st6"/>
			<text x="0.46" y="206.63" class="st7" v:langID="1033"><v:paragraph v:horizAlign="1"/><v:tabList/>MAC <tspan x="4.5"
						dy="1.2em" class="st8">2</tspan></text>		</g>
		<g id="shape48-93" v:mID="48" v:groupContext="shape" transform="translate(436.181,-75.7425)">
			<title>Rounded rectangle.9</title>
			<desc>MAC 3</desc>
			<v:userDefs>
				<v:ud v:nameU="visVersion" v:val="VT0(14):26"/>
			</v:userDefs>
			<v:textBlock v:margins="rect(0,0,0,0)"/>
			<v:textRect cx="6.36958" cy="208.128" width="12.74" height="16.7869"/>
			<rect x="0" y="199.735" width="12.7392" height="16.7869" rx="2.7" ry="2.7" class="st6"/>
			<text x="0.93" y="206.63" class="st7" v:langID="1033"><v:paragraph v:horizAlign="1"/><v:tabList/>MAC <tspan x="4.97"
						dy="1.2em" class="st8">3</tspan></text>		</g>
		<g id="shape49-97" v:mID="49" v:groupContext="shape" transform="translate(288.899,-112.338)">
			<title>Rounded rectangle.10</title>
			<desc>PF 0</desc>
			<v:userDefs>
				<v:ud v:nameU="visVersion" v:val="VT0(14):26"/>
			</v:userDefs>
			<v:textBlock v:margins="rect(4,4,4,4)"/>
			<v:textRect cx="10.8076" cy="211.821" width="21.62" height="9.40068"/>
			<rect x="0" y="207.121" width="21.6152" height="9.40068" rx="4.5" ry="4.5" class="st1"/>
			<text x="4.83" y="213.62" class="st9" v:langID="1033"><v:paragraph v:horizAlign="1"/><v:tabList/>PF 0</text>		</g>
		<g id="shape50-100" v:mID="50" v:groupContext="shape" transform="translate(319.497,-168.742)">
			<title>Rounded rectangle.11</title>
			<desc>eth0_0</desc>
			<v:userDefs>
				<v:ud v:nameU="visVersion" v:val="VT0(14):26"/>
			</v:userDefs>
			<v:textBlock v:margins="rect(4,4,4,4)"/>
			<v:textRect cx="10.8076" cy="211.821" width="21.62" height="9.40068"/>
			<rect x="0" y="207.121" width="21.6152" height="9.40068" rx="4.5" ry="4.5" class="st1"/>
			<text x="4.84" y="213.02" class="st17" v:langID="1033"><v:paragraph v:horizAlign="1"/><v:tabList/>eth0_0</text>		</g>
		<g id="shape51-103" v:mID="51" v:groupContext="shape" transform="translate(285.434,-145.24)">
			<title>Rounded rectangle.14</title>
			<desc>sfc.ko</desc>
			<v:userDefs>
				<v:ud v:nameU="visVersion" v:val="VT0(14):26"/>
			</v:userDefs>
			<v:textBlock v:margins="rect(4,4,4,4)"/>
			<v:textRect cx="91.6566" cy="209.051" width="183.32" height="14.9404"/>
			<rect x="0" y="201.581" width="183.313" height="14.9404" rx="4.5" ry="4.5" class="st10"/>
			<text x="80.52" y="211.45" class="st2" v:langID="1033"><v:paragraph v:horizAlign="1"/><v:tabList/>sfc.ko</text>		</g>
		<g id="shape52-106" v:mID="52" v:groupContext="shape" v:layerMember="0" transform="translate(504,-131.326)">
			<title>Sheet.52</title>
			<path d="M0 209.32 L-251.58 209.32" class="st11"/>
		</g>
		<g id="shape53-109" v:mID="53" v:groupContext="shape" transform="translate(322.2,-10.9449)">
			<title>Rounded rectangle.18</title>
			<desc>Adapter 0</desc>
			<v:userDefs>
				<v:ud v:nameU="visVersion" v:val="VT0(14):26"/>
			</v:userDefs>
			<v:textBlock v:margins="rect(4,4,4,4)"/>
			<v:textRect cx="21.7628" cy="214.507" width="43.53" height="4.02886"/>
			<rect x="0" y="212.493" width="43.5255" height="4.02886" rx="2.01443" ry="2.01443" class="st14"/>
			<text x="6.62" y="216.61" class="st15" v:langID="1033"><v:paragraph v:horizAlign="1"/><v:tabList/>Adapter 0</text>		</g>
		<g id="shape54-112" v:mID="54" v:groupContext="shape" transform="translate(389.107,-10.9449)">
			<title>Rounded rectangle.54</title>
			<desc>Adapter 1</desc>
			<v:userDefs>
				<v:ud v:nameU="visVersion" v:val="VT0(14):26"/>
			</v:userDefs>
			<v:textBlock v:margins="rect(4,4,4,4)"/>
			<v:textRect cx="21.4463" cy="214.507" width="42.9" height="4.02886"/>
			<rect x="0" y="212.493" width="42.8926" height="4.02886" rx="2.01443" ry="2.01443" class="st14"/>
			<text x="6.31" y="216.61" class="st15" v:langID="1033"><v:paragraph v:horizAlign="1"/><v:tabList/>Adapter 1</text>		</g>
		<g id="shape55-115" v:mID="55" v:groupContext="shape" transform="translate(339.488,-52.3667)">
			<title>Rounded rectangle.55</title>
			<desc>FPGA OVS ENGINE</desc>
			<v:userDefs>
				<v:ud v:nameU="visVersion" v:val="VT0(14):26"/>
			</v:userDefs>
			<v:textBlock v:margins="rect(4,4,4,4)"/>
			<v:textRect cx="37.6027" cy="207.415" width="75.21" height="18.2138"/>
			<rect x="0" y="198.308" width="75.2054" height="18.2138" rx="4.5" ry="4.5" class="st4"/>
			<text x="27.42" y="205.01" class="st2" v:langID="1033"><v:paragraph v:horizAlign="1"/><v:tabList/>FPGA<v:lf/><tspan
						x="14.73" dy="1.2em" class="st8">OVS ENGINE</tspan></text>		</g>
		<g id="shape56-119" v:mID="56" v:groupContext="shape" v:layerMember="0" transform="translate(321.556,-75.7425)">
			<title>Standard Arrow.56</title>
			<path d="M-7.06 216.52 L-7.06 223.1 A4.5 4.5 -180 0 0 -2.56 227.6 L21.63 227.6 A3.492 3.492 0 0 1 25.12 231.1 L25.12
						 231.1 A3.492 3.492 0 0 1 21.63 234.59 L-2.84 234.59 A4.5 4.5 -180 0 0 -7.34 239.09 L-7.34 245.06"
					class="st18"/>
		</g>
		<g id="shape57-128" v:mID="57" v:groupContext="shape" v:layerMember="0" transform="translate(449.408,-75.7425)">
			<title>Standard Arrow.21</title>
			<path d="M-6.86 223.06 L-6.86 223.42 L-6.86 223.97 A4.5 4.5 0 0 1 -11.36 228.47 L-39.15 228.47 A2.736 2.736 -180 0 0
						 -41.89 231.2 L-41.89 231.2 A2.736 2.736 -180 0 0 -39.15 233.94 L-12.04 233.94 A4.5 4.5 0 0 1 -7.54 238.44
						 L-7.54 245.06" class="st20"/>
		</g>
		<g id="shape58-136" v:mID="58" v:groupContext="shape" transform="translate(319.84,-112.338)">
			<title>Rounded rectangle.58</title>
			<desc>VF 0</desc>
			<v:userDefs>
				<v:ud v:nameU="visVersion" v:val="VT0(14):26"/>
			</v:userDefs>
			<v:textBlock v:margins="rect(4,4,4,4)"/>
			<v:textRect cx="10.8076" cy="211.821" width="21.62" height="9.40068"/>
			<rect x="0" y="207.121" width="21.6152" height="9.40068" rx="4.5" ry="4.5" class="st1"/>
			<text x="4.81" y="213.62" class="st9" v:langID="1033"><v:paragraph v:horizAlign="1"/><v:tabList/>VF 0</text>		</g>
		<g id="shape59-139" v:mID="59" v:groupContext="shape" transform="translate(350.782,-112.338)">
			<title>Rounded rectangle.59</title>
			<desc>VF n</desc>
			<v:userDefs>
				<v:ud v:nameU="visVersion" v:val="VT0(14):26"/>
			</v:userDefs>
			<v:textBlock v:margins="rect(4,4,4,4)"/>
			<v:textRect cx="10.8076" cy="211.821" width="21.62" height="9.40068"/>
			<rect x="0" y="207.121" width="21.6152" height="9.40068" rx="4.5" ry="4.5" class="st1"/>
			<text x="4.84" y="213.62" class="st9" v:langID="1033"><v:paragraph v:horizAlign="1"/><v:tabList/>VF n</text>		</g>
		<g id="shape60-142" v:mID="60" v:groupContext="shape" transform="translate(381.724,-112.338)">
			<title>Rounded rectangle.60</title>
			<desc>VF n</desc>
			<v:userDefs>
				<v:ud v:nameU="visVersion" v:val="VT0(14):26"/>
			</v:userDefs>
			<v:textBlock v:margins="rect(4,4,4,4)"/>
			<v:textRect cx="10.8076" cy="211.821" width="21.62" height="9.40068"/>
			<rect x="0" y="207.121" width="21.6152" height="9.40068" rx="4.5" ry="4.5" class="st1"/>
			<text x="4.84" y="213.62" class="st9" v:langID="1033"><v:paragraph v:horizAlign="1"/><v:tabList/>VF n</text>		</g>
		<g id="shape61-145" v:mID="61" v:groupContext="shape" transform="translate(412.665,-112.338)">
			<title>Rounded rectangle.61</title>
			<desc>VF 0</desc>
			<v:userDefs>
				<v:ud v:nameU="visVersion" v:val="VT0(14):26"/>
			</v:userDefs>
			<v:textBlock v:margins="rect(4,4,4,4)"/>
			<v:textRect cx="10.8076" cy="211.821" width="21.62" height="9.40068"/>
			<rect x="0" y="207.121" width="21.6152" height="9.40068" rx="4.5" ry="4.5" class="st1"/>
			<text x="4.81" y="213.62" class="st9" v:langID="1033"><v:paragraph v:horizAlign="1"/><v:tabList/>VF 0</text>		</g>
		<g id="shape62-148" v:mID="62" v:groupContext="shape" transform="translate(443.607,-112.338)">
			<title>Rounded rectangle.62</title>
			<desc>PF 0</desc>
			<v:userDefs>
				<v:ud v:nameU="visVersion" v:val="VT0(14):26"/>
			</v:userDefs>
			<v:textBlock v:margins="rect(4,4,4,4)"/>
			<v:textRect cx="10.8076" cy="211.821" width="21.62" height="9.40068"/>
			<rect x="0" y="207.121" width="21.6152" height="9.40068" rx="4.5" ry="4.5" class="st1"/>
			<text x="4.83" y="213.62" class="st9" v:langID="1033"><v:paragraph v:horizAlign="1"/><v:tabList/>PF 0</text>		</g>
		<g id="shape63-151" v:mID="63" v:groupContext="shape" transform="translate(288.999,-168.742)">
			<title>Rounded rectangle.27</title>
			<desc>eth0</desc>
			<v:userDefs>
				<v:ud v:nameU="visVersion" v:val="VT0(14):26"/>
			</v:userDefs>
			<v:textBlock v:margins="rect(4,4,4,4)"/>
			<v:textRect cx="10.8076" cy="211.821" width="21.62" height="9.40068"/>
			<rect x="0" y="207.121" width="21.6152" height="9.40068" rx="4.5" ry="4.5" class="st1"/>
			<text x="4.9" y="213.62" class="st9" v:langID="1033"><v:paragraph v:horizAlign="1"/><v:tabList/>eth0</text>		</g>
		<g id="shape64-154" v:mID="64" v:groupContext="shape" transform="translate(349.995,-168.742)">
			<title>Rounded rectangle.28</title>
			<desc>eth0_n</desc>
			<v:userDefs>
				<v:ud v:nameU="visVersion" v:val="VT0(14):26"/>
			</v:userDefs>
			<v:textBlock v:margins="rect(4,4,4,4)"/>
			<v:textRect cx="10.8076" cy="211.821" width="21.62" height="9.40068"/>
			<rect x="0" y="207.121" width="21.6152" height="9.40068" rx="4.5" ry="4.5" class="st1"/>
			<text x="4.86" y="213.02" class="st17" v:langID="1033"><v:paragraph v:horizAlign="1"/><v:tabList/>eth0_n</text>		</g>
		<g id="shape65-157" v:mID="65" v:groupContext="shape" transform="translate(412.249,-168.742)">
			<title>Rounded rectangle.65</title>
			<desc>eth1_0</desc>
			<v:userDefs>
				<v:ud v:nameU="visVersion" v:val="VT0(14):26"/>
			</v:userDefs>
			<v:textBlock v:margins="rect(4,4,4,4)"/>
			<v:textRect cx="10.8076" cy="211.821" width="21.62" height="9.40068"/>
			<rect x="0" y="207.121" width="21.6152" height="9.40068" rx="4.5" ry="4.5" class="st1"/>
			<text x="4.84" y="213.02" class="st17" v:langID="1033"><v:paragraph v:horizAlign="1"/><v:tabList/>eth1_0</text>		</g>
		<g id="shape66-160" v:mID="66" v:groupContext="shape" transform="translate(381.751,-168.742)">
			<title>Rounded rectangle.66</title>
			<desc>eth1_n</desc>
			<v:userDefs>
				<v:ud v:nameU="visVersion" v:val="VT0(14):26"/>
			</v:userDefs>
			<v:textBlock v:margins="rect(4,4,4,4)"/>
			<v:textRect cx="10.8076" cy="211.821" width="21.62" height="9.40068"/>
			<rect x="0" y="207.121" width="21.6152" height="9.40068" rx="4.5" ry="4.5" class="st1"/>
			<text x="4.86" y="213.02" class="st17" v:langID="1033"><v:paragraph v:horizAlign="1"/><v:tabList/>eth1_n</text>		</g>
		<g id="shape67-163" v:mID="67" v:groupContext="shape" transform="translate(442.747,-168.742)">
			<title>Rounded rectangle.32</title>
			<desc>eth1</desc>
			<v:userDefs>
				<v:ud v:nameU="visVersion" v:val="VT0(14):26"/>
			</v:userDefs>
			<v:textBlock v:margins="rect(4,4,4,4)"/>
			<v:textRect cx="10.8076" cy="211.821" width="21.62" height="9.40068"/>
			<rect x="0" y="207.121" width="21.6152" height="9.40068" rx="4.5" ry="4.5" class="st1"/>
			<text x="4.9" y="213.62" class="st9" v:langID="1033"><v:paragraph v:horizAlign="1"/><v:tabList/>eth1</text>		</g>
		<g id="shape68-166" v:mID="68" v:groupContext="shape" transform="translate(338.779,-172.596)">
			<title>Rounded rectangle.33</title>
			<desc>…</desc>
			<v:userDefs>
				<v:ud v:nameU="visVersion" v:val="VT0(14):26"/>
			</v:userDefs>
			<v:textBlock v:margins="rect(4,4,4,4)"/>
			<v:textRect cx="4.73462" cy="213.836" width="9.47" height="5.37181"/>
			<rect x="0" y="211.15" width="9.46923" height="5.37181" rx="2.68591" ry="2.68591" class="st14"/>
			<text x="4" y="216.24" class="st21" v:langID="1033"><v:paragraph v:horizAlign="1"/><v:tabList/>…</text>		</g>
		<g id="shape69-169" v:mID="69" v:groupContext="shape" transform="translate(401.187,-172.49)">
			<title>Rounded rectangle.34</title>
			<desc>…</desc>
			<v:userDefs>
				<v:ud v:nameU="visVersion" v:val="VT0(14):26"/>
			</v:userDefs>
			<v:textBlock v:margins="rect(4,4,4,4)"/>
			<v:textRect cx="4.81594" cy="213.836" width="9.64" height="5.37181"/>
			<rect x="0" y="211.15" width="9.63188" height="5.37181" rx="2.68591" ry="2.68591" class="st14"/>
			<text x="4" y="216.24" class="st21" v:langID="1033"><v:paragraph v:horizAlign="1"/><v:tabList/>…</text>		</g>
		<g id="shape70-172" v:mID="70" v:groupContext="shape" transform="translate(352.918,-195.377)">
			<title>Rounded rectangle.70</title>
			<desc>ovs.ko</desc>
			<v:userDefs>
				<v:ud v:nameU="visVersion" v:val="VT0(14):26"/>
			</v:userDefs>
			<v:textBlock v:margins="rect(4,4,4,4)"/>
			<v:textRect cx="24.1732" cy="206.449" width="48.35" height="20.1443"/>
			<rect x="0" y="196.377" width="48.3463" height="20.1443" rx="4.5" ry="4.5" class="st1"/>
			<text x="12.27" y="208.85" class="st2" v:langID="1033"><v:paragraph v:horizAlign="1"/><v:tabList/>ovs.ko</text>		</g>
		<g id="shape71-175" v:mID="71" v:groupContext="shape" v:layerMember="0" transform="translate(362.298,-195.377)">
			<title>Standard Arrow.530</title>
			<path d="M-6.3 218.26 L-6.65 218.36 L-55.84 231.92" class="st12"/>
		</g>
		<g id="shape72-182" v:mID="72" v:groupContext="shape" v:layerMember="0" transform="translate(362.298,-195.377)">
			<title>Standard Arrow.40</title>
			<path d="M-5.76 219.62 L-6.07 219.79 L-25.92 230.48" class="st12"/>
		</g>
		<g id="shape73-189" v:mID="73" v:groupContext="shape" v:layerMember="0" transform="translate(368.75,-195.377)">
			<title>Standard Arrow.41</title>
			<path d="M-7.02 223.04 L-7.05 223.4 L-7.35 226.88" class="st12"/>
		</g>
		<g id="shape74-196" v:mID="74" v:groupContext="shape" v:layerMember="0" transform="translate(384.329,-195.377)">
			<title>Standard Arrow.42</title>
			<path d="M6.95 223.02 L6.99 223.37 L7.41 226.9" class="st12"/>
		</g>
		<g id="shape75-203" v:mID="75" v:groupContext="shape" v:layerMember="0" transform="translate(390.5,-195.377)">
			<title>Standard Arrow.43</title>
			<path d="M5.78 219.58 L6.1 219.75 L26.46 230.53" class="st12"/>
		</g>
		<g id="shape76-210" v:mID="76" v:groupContext="shape" v:layerMember="0" transform="translate(390.5,-195.377)">
			<title>Standard Arrow.44</title>
			<path d="M6.31 218.25 L6.66 218.34 L56.4 231.94" class="st12"/>
		</g>
		<g id="shape77-217" v:mID="77" v:groupContext="shape" transform="translate(333.103,-163.146)">
			<title>Rounded rectangle.45</title>
			<desc>VF reps</desc>
			<v:userDefs>
				<v:ud v:nameU="visVersion" v:val="VT0(14):26"/>
			</v:userDefs>
			<v:textBlock v:margins="rect(4,4,4,4)"/>
			<v:textRect cx="12.4972" cy="214.507" width="25" height="4.02886"/>
			<rect x="0" y="212.493" width="24.9944" height="4.02886" rx="2.01443" ry="2.01443" class="st14"/>
			<text x="4.04" y="216.01" class="st22" v:langID="1033"><v:paragraph v:horizAlign="1"/><v:tabList/>VF reps</text>		</g>
		<g id="shape78-220" v:mID="78" v:groupContext="shape" transform="translate(392.817,-162.846)">
			<title>Rounded rectangle.46</title>
			<desc>VF reps</desc>
			<v:userDefs>
				<v:ud v:nameU="visVersion" v:val="VT0(14):26"/>
			</v:userDefs>
			<v:textBlock v:margins="rect(4,4,4,4)"/>
			<v:textRect cx="15.1915" cy="214.507" width="30.39" height="4.02886"/>
			<rect x="0" y="212.493" width="30.3829" height="4.02886" rx="2.01443" ry="2.01443" class="st14"/>
			<text x="5.05" y="216.31" class="st9" v:langID="1033"><v:paragraph v:horizAlign="1"/><v:tabList/>VF reps</text>		</g>
		<g id="shape40-223" v:mID="40" v:groupContext="shape" transform="translate(468.361,2.84217E-014)">
			<title>Sheet.40</title>
			<desc>X25548-091321</desc>
			<v:userDefs>
				<v:ud v:nameU="Margin" v:prompt="" v:val="VT0(0):26"/>
				<v:ud v:nameU="Class" v:prompt="" v:val="VT4(Xilinx.Visio.XNumberShape)"/>
				<v:ud v:nameU="Comment" v:prompt="" v:val="VT4(X-Number: X25548-091321)"/>
			</v:userDefs>
			<v:textBlock v:margins="rect(0,0,0,0)"/>
			<v:textRect cx="18.3193" cy="213.52" width="36.64" height="6.00345"/>
			<path d="M0 216.52 L36.64 216.52 L36.64 210.52 L0 210.52 L0 216.52 Z" class="st23"/>
			<path d="M0 216.52 L36.64 216.52 L36.64 210.52 L0 210.52 L0 216.52" class="st24"/>
			<path d="M0 218.02 L36.64 218.02" class="st24"/>
			<text x="1.24" y="215.02" class="st22" v:langID="1033"><v:paragraph v:horizAlign="2"/><v:tabList/>X25548-091321</text>		</g>
	</g>
</svg>
