<?xml version="1.0" encoding="UTF-8" standalone="no"?>
<!DOCTYPE svg PUBLIC "-//W3C//DTD SVG 1.1//EN" "http://www.w3.org/Graphics/SVG/1.1/DTD/svg11.dtd">
<!-- Generated by Microsoft Visio, SVG Export tpu1631061219038_HiRes.svg Page-1 -->
<svg xmlns="http://www.w3.org/2000/svg" xmlns:xlink="http://www.w3.org/1999/xlink" xmlns:ev="http://www.w3.org/2001/xml-events"
		xmlns:v="http://schemas.microsoft.com/visio/2003/SVGExtensions/" width="6.27694in" height="3.74477in"
		viewBox="0 0 451.94 269.623" xml:space="preserve" color-interpolation-filters="sRGB" class="st21">
	<v:documentProperties v:langID="1033" v:viewMarkup="false">
		<v:userDefs>
			<v:ud v:nameU="msvConvertTheme"/>
		</v:userDefs>
	</v:documentProperties>

	<style type="text/css">
	<![CDATA[
		.st1 {fill:none;stroke:#000000;stroke-linecap:butt;stroke-width:1}
		.st2 {fill:#000000;font-family:Roboto;font-size:0.833336em;font-weight:bold}
		.st3 {stroke:#7f7f7f;stroke-dasharray:1,2;stroke-linecap:butt;stroke-width:1}
		.st4 {marker-end:url(#mrkr13-21);marker-start:url(#mrkr13-19);stroke:#ff0000;stroke-linecap:butt;stroke-width:0.5}
		.st5 {fill:#ff0000;fill-opacity:1;stroke:#ff0000;stroke-opacity:1;stroke-width:0.21739130434783}
		.st6 {fill:#262626;stroke:#000000;stroke-linecap:butt;stroke-width:1}
		.st7 {fill:#ffffff;font-family:Roboto;font-size:0.666664em}
		.st8 {fill:#595959;stroke:#000000;stroke-linecap:butt;stroke-width:1}
		.st9 {fill:#a5a5a5;stroke:#000000;stroke-width:1}
		.st10 {fill:none;stroke:none;stroke-linecap:butt;stroke-width:1}
		.st11 {fill:#000000;font-family:Roboto;font-size:0.499992em}
		.st12 {marker-end:url(#mrkr13-61);marker-start:url(#mrkr13-59);stroke:#0000ff;stroke-linecap:butt;stroke-width:0.5}
		.st13 {fill:#0000ff;fill-opacity:1;stroke:#0000ff;stroke-opacity:1;stroke-width:0.21739130434783}
		.st14 {fill:#bfbfbf;stroke:#000000;stroke-linecap:butt;stroke-width:1}
		.st15 {fill:#000000;font-family:Roboto;font-size:0.666664em}
		.st16 {marker-end:url(#mrkr13-88);marker-start:url(#mrkr13-86);stroke:#ff3399;stroke-linecap:butt;stroke-width:0.5}
		.st17 {fill:#ff3399;fill-opacity:1;stroke:#ff3399;stroke-opacity:1;stroke-width:0.21739130434783}
		.st18 {fill:#ffffff}
		.st19 {stroke:none;stroke-linecap:round;stroke-linejoin:round;stroke-width:0.75}
		.st20 {fill:#000000;font-family:Roboto;font-size:0.416656em}
		.st21 {fill:none;fill-rule:evenodd;font-size:12px;overflow:visible;stroke-linecap:square;stroke-miterlimit:3}
	]]>
	</style>

	<defs id="Markers">
		<g id="lend13">
			<path d="M 3 1 L 0 0 L 3 -1 L 3 1 " style="stroke:none"/>
		</g>
		<marker id="mrkr13-19" class="st5" v:arrowType="13" v:arrowSize="1" v:setback="13.08" refX="13.08" orient="auto"
				markerUnits="strokeWidth" overflow="visible">
			<use xlink:href="#lend13" transform="scale(4.6) "/>
		</marker>
		<marker id="mrkr13-21" class="st5" v:arrowType="13" v:arrowSize="1" v:setback="13.8" refX="-13.8" orient="auto"
				markerUnits="strokeWidth" overflow="visible">
			<use xlink:href="#lend13" transform="scale(-4.6,-4.6) "/>
		</marker>
		<marker id="mrkr13-59" class="st13" v:arrowType="13" v:arrowSize="1" v:setback="13.08" refX="13.08" orient="auto"
				markerUnits="strokeWidth" overflow="visible">
			<use xlink:href="#lend13" transform="scale(4.6) "/>
		</marker>
		<marker id="mrkr13-61" class="st13" v:arrowType="13" v:arrowSize="1" v:setback="13.8" refX="-13.8" orient="auto"
				markerUnits="strokeWidth" overflow="visible">
			<use xlink:href="#lend13" transform="scale(-4.6,-4.6) "/>
		</marker>
		<marker id="mrkr13-86" class="st17" v:arrowType="13" v:arrowSize="1" v:setback="13.08" refX="13.08" orient="auto"
				markerUnits="strokeWidth" overflow="visible">
			<use xlink:href="#lend13" transform="scale(4.6) "/>
		</marker>
		<marker id="mrkr13-88" class="st17" v:arrowType="13" v:arrowSize="1" v:setback="13.8" refX="-13.8" orient="auto"
				markerUnits="strokeWidth" overflow="visible">
			<use xlink:href="#lend13" transform="scale(-4.6,-4.6) "/>
		</marker>
	</defs>
	<g v:mID="0" v:index="1" v:groupContext="foregroundPage">
		<title>Page-1</title>
		<v:pageProperties v:drawingScale="1" v:pageScale="1" v:drawingUnits="0" v:shadowOffsetX="0" v:shadowOffsetY="0"/>
		<v:layer v:name="Connector" v:index="0"/>
		<g id="shape34-1" v:mID="34" v:groupContext="shape" transform="translate(3.66666,-8.63586)">
			<title>Rounded rectangle.21</title>
			<desc>U25N</desc>
			<v:userDefs>
				<v:ud v:nameU="visVersion" v:val="VT0(14):26"/>
			</v:userDefs>
			<v:textBlock v:margins="rect(4,4,4,4)" v:verticalAlign="0"/>
			<v:textRect cx="171" cy="209.155" width="342" height="120.938"/>
			<rect x="0" y="148.686" width="342" height="120.938" rx="9" ry="9" class="st1"/>
			<text x="312.88" y="161.69" class="st2" v:langID="1033"><v:paragraph v:horizAlign="2"/><v:tabList/>U25N</text>		</g>
		<g id="shape15-4" v:mID="15" v:groupContext="shape" v:layerMember="0" transform="translate(84.0982,-18.7609)">
			<title>Sheet.15</title>
			<path d="M7.2 269.62 L7.2 174.89" class="st3"/>
		</g>
		<g id="shape21-7" v:mID="21" v:groupContext="shape" v:layerMember="0" transform="translate(363.667,-134.186)">
			<title>Sheet.21</title>
			<path d="M0 262.42 L-362.67 262.42" class="st3"/>
		</g>
		<g id="shape22-10" v:mID="22" v:groupContext="shape" v:layerMember="0" transform="translate(363.667,-167.894)">
			<title>Sheet.22</title>
			<path d="M0 262.42 L-362.67 262.42" class="st3"/>
		</g>
		<g id="shape20-13" v:mID="20" v:groupContext="shape" v:layerMember="0" transform="translate(434.654,-96.9484)">
			<title>Standard Arrow.20</title>
			<path d="M0.66 269.62 L0.3 269.62 L-165.49 269.62 A4.5 4.5 -180 0 0 -169.99 274.12 L-169.99 315.98 A4.5 4.5 -180 0 0
						 -165.49 320.48 L0.3 320.48" class="st4"/>
		</g>
		<g id="shape2-22" v:mID="2" v:groupContext="shape" transform="translate(39.6667,-78.9484)">
			<title>Rounded rectangle.2</title>
			<desc>Port1</desc>
			<v:userDefs>
				<v:ud v:nameU="visVersion" v:val="VT0(14):26"/>
			</v:userDefs>
			<v:textBlock v:margins="rect(0,0,0,0)"/>
			<v:textRect cx="16.3125" cy="257.061" width="32.63" height="25.125"/>
			<rect x="0" y="244.498" width="32.625" height="25.125" rx="2.7" ry="2.7" class="st6"/>
			<text x="6.6" y="259.46" class="st7" v:langID="1033"><v:paragraph v:horizAlign="1"/><v:tabList/>Port1</text>		</g>
		<g id="shape4-25" v:mID="4" v:groupContext="shape" transform="translate(112.792,-78.6671)">
			<title>Rounded rectangle.6</title>
			<desc>MAC3</desc>
			<v:userDefs>
				<v:ud v:nameU="visVersion" v:val="VT0(14):26"/>
			</v:userDefs>
			<v:textBlock v:margins="rect(0,0,0,0)"/>
			<v:textRect cx="21.9375" cy="256.78" width="43.88" height="25.6875"/>
			<rect x="0" y="243.936" width="43.875" height="25.6875" rx="2.7" ry="2.7" class="st8"/>
			<text x="10.99" y="259.18" class="st7" v:langID="1033"><v:paragraph v:horizAlign="1"/><v:tabList/>MAC3</text>		</g>
		<g id="shape6-28" v:mID="6" v:groupContext="shape" v:layerMember="0" transform="translate(72.2917,-85.1359)">
			<title>1-D double.528</title>
			<v:userDefs>
				<v:ud v:nameU="visVersion" v:val="VT0(14):26"/>
			</v:userDefs>
			<path d="M6.38 259.42 L6.38 256.87 L0 263.25 L6.38 269.62 L6.38 267.07 L30.75 267.07 L30.75 269.62 L37.13 263.25 L30.75
						 256.87 L30.75 259.42 L6.38 259.42 Z" class="st9"/>
		</g>
		<g id="shape7-30" v:mID="7" v:groupContext="shape" transform="translate(39.6667,-24.1984)">
			<title>Rounded rectangle.7</title>
			<desc>Port0</desc>
			<v:userDefs>
				<v:ud v:nameU="visVersion" v:val="VT0(14):26"/>
			</v:userDefs>
			<v:textBlock v:margins="rect(0,0,0,0)"/>
			<v:textRect cx="16.3125" cy="257.061" width="32.63" height="25.125"/>
			<rect x="0" y="244.498" width="32.625" height="25.125" rx="2.7" ry="2.7" class="st6"/>
			<text x="6.6" y="259.46" class="st7" v:langID="1033"><v:paragraph v:horizAlign="1"/><v:tabList/>Port0</text>		</g>
		<g id="shape8-33" v:mID="8" v:groupContext="shape" transform="translate(112.792,-23.9171)">
			<title>Rounded rectangle.8</title>
			<desc>MAC2</desc>
			<v:userDefs>
				<v:ud v:nameU="visVersion" v:val="VT0(14):26"/>
			</v:userDefs>
			<v:textBlock v:margins="rect(0,0,0,0)"/>
			<v:textRect cx="21.9375" cy="256.78" width="43.88" height="25.6875"/>
			<rect x="0" y="243.936" width="43.875" height="25.6875" rx="2.7" ry="2.7" class="st8"/>
			<text x="10.99" y="259.18" class="st7" v:langID="1033"><v:paragraph v:horizAlign="1"/><v:tabList/>MAC2</text>		</g>
		<g id="shape9-36" v:mID="9" v:groupContext="shape" v:layerMember="0" transform="translate(72.2917,-30.3859)">
			<title>1-D double.9</title>
			<v:userDefs>
				<v:ud v:nameU="visVersion" v:val="VT0(14):26"/>
			</v:userDefs>
			<path d="M6.38 259.42 L6.38 256.87 L0 263.25 L6.38 269.62 L6.38 267.07 L34.12 267.07 L34.12 269.62 L40.5 263.25 L34.12
						 256.87 L34.12 259.42 L6.38 259.42 Z" class="st9"/>
		</g>
		<g id="shape10-38" v:mID="10" v:groupContext="shape" transform="translate(93.6667,-57.0109)">
			<title>Rounded rectangle.20</title>
			<desc>2x 10/25G</desc>
			<v:userDefs>
				<v:ud v:nameU="visVersion" v:val="VT0(14):26"/>
			</v:userDefs>
			<v:textBlock v:margins="rect(4,4,4,4)"/>
			<v:textRect cx="24.1875" cy="262.873" width="48.38" height="13.5"/>
			<rect x="0" y="256.123" width="48.375" height="13.5" rx="4.5" ry="4.5" class="st10"/>
			<text x="4" y="264.67" class="st11" v:langID="1033"><v:paragraph/><v:tabList/>2x 10/25G</text>		</g>
		<g id="shape11-41" v:mID="11" v:groupContext="shape" transform="translate(33.4792,-57.0109)">
			<title>Rounded rectangle.11</title>
			<desc>X2</desc>
			<v:userDefs>
				<v:ud v:nameU="visVersion" v:val="VT0(14):26"/>
			</v:userDefs>
			<v:textBlock v:margins="rect(4,4,4,4)"/>
			<v:textRect cx="13.7812" cy="262.873" width="27.57" height="13.5"/>
			<rect x="0" y="256.123" width="27.5625" height="13.5" rx="4.5" ry="4.5" class="st10"/>
			<text x="7.74" y="265.87" class="st2" v:langID="1033"><v:paragraph v:horizAlign="1"/><v:tabList/>X2</text>		</g>
		<g id="shape12-44" v:mID="12" v:groupContext="shape" transform="translate(178.042,-24.3859)">
			<title>Rounded rectangle.10</title>
			<desc>FPGA</desc>
			<v:userDefs>
				<v:ud v:nameU="visVersion" v:val="VT0(14):26"/>
			</v:userDefs>
			<v:textBlock v:margins="rect(4,4,4,4)"/>
			<v:textRect cx="53.7187" cy="227.436" width="107.44" height="84.375"/>
			<rect x="0" y="185.248" width="107.437" height="84.375" rx="9" ry="9" class="st1"/>
			<text x="40.98" y="230.44" class="st2" v:langID="1033"><v:paragraph v:horizAlign="1"/><v:tabList/>FPGA</text>		</g>
		<g id="shape13-47" v:mID="13" v:groupContext="shape" transform="translate(337.792,-78.6671)">
			<title>Rounded rectangle.13</title>
			<desc>MAC1</desc>
			<v:userDefs>
				<v:ud v:nameU="visVersion" v:val="VT0(14):26"/>
			</v:userDefs>
			<v:textBlock v:margins="rect(0,0,0,0)"/>
			<v:textRect cx="21.9375" cy="256.78" width="43.88" height="25.6875"/>
			<rect x="0" y="243.936" width="43.875" height="25.6875" rx="2.7" ry="2.7" class="st8"/>
			<text x="10.99" y="259.18" class="st7" v:langID="1033"><v:paragraph v:horizAlign="1"/><v:tabList/>MAC1</text>		</g>
		<g id="shape14-50" v:mID="14" v:groupContext="shape" transform="translate(337.792,-23.9171)">
			<title>Rounded rectangle.14</title>
			<desc>MAC0</desc>
			<v:userDefs>
				<v:ud v:nameU="visVersion" v:val="VT0(14):26"/>
			</v:userDefs>
			<v:textBlock v:margins="rect(0,0,0,0)"/>
			<v:textRect cx="21.9375" cy="256.78" width="43.88" height="25.6875"/>
			<rect x="0" y="243.936" width="43.875" height="25.6875" rx="2.7" ry="2.7" class="st8"/>
			<text x="10.99" y="259.18" class="st7" v:langID="1033"><v:paragraph v:horizAlign="1"/><v:tabList/>MAC0</text>		</g>
		<g id="shape16-53" v:mID="16" v:groupContext="shape" v:layerMember="0" transform="translate(18.6667,-189.461)">
			<title>Standard Arrow.530</title>
			<path d="M0 276.16 L0 276.52 L0 426.82 A4.5 4.5 -180 0 0 4.5 431.32 L419.1 431.32" class="st12"/>
		</g>
		<g id="shape17-62" v:mID="17" v:groupContext="shape" transform="translate(5.61666,-189.461)">
			<title>Rounded rectangle.527</title>
			<desc>VM0</desc>
			<v:userDefs>
				<v:ud v:nameU="visVersion" v:val="VT0(14):26"/>
			</v:userDefs>
			<v:textBlock v:margins="rect(4,4,4,4)"/>
			<v:textRect cx="27" cy="248.023" width="54" height="43.2"/>
			<rect x="0" y="226.423" width="54" height="43.2" rx="4.5" ry="4.5" class="st14"/>
			<text x="20.79" y="249.82" class="st11" v:langID="1033"><v:paragraph v:horizAlign="1"/><v:tabList/>VM0</text>		</g>
		<g id="shape18-65" v:mID="18" v:groupContext="shape" transform="translate(87.3667,-189.461)">
			<title>Rounded rectangle.18</title>
			<desc>VM1</desc>
			<v:userDefs>
				<v:ud v:nameU="visVersion" v:val="VT0(14):26"/>
			</v:userDefs>
			<v:textBlock v:margins="rect(4,4,4,4)"/>
			<v:textRect cx="27" cy="248.023" width="54" height="43.2"/>
			<rect x="0" y="226.423" width="54" height="43.2" rx="4.5" ry="4.5" class="st14"/>
			<text x="20.79" y="249.82" class="st11" v:langID="1033"><v:paragraph v:horizAlign="1"/><v:tabList/>VM1</text>		</g>
		<g id="shape23-68" v:mID="23" v:groupContext="shape" transform="translate(6.47916,-233.386)">
			<title>Rounded rectangle.23</title>
			<desc>SRIOV</desc>
			<v:userDefs>
				<v:ud v:nameU="visVersion" v:val="VT0(14):26"/>
			</v:userDefs>
			<v:textBlock v:margins="rect(4,4,4,4)"/>
			<v:textRect cx="15.1875" cy="266.248" width="30.38" height="6.75"/>
			<rect x="0" y="262.873" width="30.375" height="6.75" rx="3.375" ry="3.375" class="st10"/>
			<text x="4" y="268.05" class="st11" v:langID="1033"><v:paragraph/><v:tabList/>SRIOV</text>		</g>
		<g id="shape24-71" v:mID="24" v:groupContext="shape" transform="translate(311.917,-180.094)">
			<title>Rounded rectangle.24</title>
			<desc>User Space</desc>
			<v:userDefs>
				<v:ud v:nameU="visVersion" v:val="VT0(14):26"/>
			</v:userDefs>
			<v:textBlock v:margins="rect(4,4,4,4)"/>
			<v:textRect cx="25.9167" cy="266.248" width="51.84" height="6.75"/>
			<rect x="0" y="262.873" width="51.8333" height="6.75" rx="3.375" ry="3.375" class="st10"/>
			<text x="7.58" y="268.65" class="st15" v:langID="1033"><v:paragraph v:horizAlign="2"/><v:tabList/>User Space</text>		</g>
		<g id="shape25-74" v:mID="25" v:groupContext="shape" transform="translate(305.729,-147.011)">
			<title>Rounded rectangle.25</title>
			<desc>Kernel Space</desc>
			<v:userDefs>
				<v:ud v:nameU="visVersion" v:val="VT0(14):26"/>
			</v:userDefs>
			<v:textBlock v:margins="rect(4,4,4,4)"/>
			<v:textRect cx="29.0104" cy="266.248" width="58.03" height="6.75"/>
			<rect x="0" y="262.873" width="58.0208" height="6.75" rx="3.375" ry="3.375" class="st10"/>
			<text x="7.47" y="268.65" class="st15" v:langID="1033"><v:paragraph v:horizAlign="2"/><v:tabList/>Kernel Space</text>		</g>
		<g id="shape26-77" v:mID="26" v:groupContext="shape" transform="translate(344,-59.2609)">
			<title>Rounded rectangle.26</title>
			<desc>2x 10/25G</desc>
			<v:userDefs>
				<v:ud v:nameU="visVersion" v:val="VT0(14):26"/>
			</v:userDefs>
			<v:textBlock v:margins="rect(4,4,4,4)"/>
			<v:textRect cx="24.1875" cy="262.873" width="48.38" height="13.5"/>
			<rect x="0" y="256.123" width="48.375" height="13.5" rx="4.5" ry="4.5" class="st10"/>
			<text x="4" y="264.67" class="st11" v:langID="1033"><v:paragraph/><v:tabList/>2x 10/25G</text>		</g>
		<g id="shape28-80" v:mID="28" v:groupContext="shape" v:layerMember="0" transform="translate(266.333,-248.561)">
			<title>Standard Arrow.531</title>
			<path d="M-6.54 262.42 L-6.9 262.42 L-34.81 262.42" class="st16"/>
		</g>
		<g id="shape29-89" v:mID="29" v:groupContext="shape" transform="translate(268.833,-252.761)">
			<title>Rounded rectangle.29</title>
			<desc>VM to VM path</desc>
			<v:userDefs>
				<v:ud v:nameU="visVersion" v:val="VT0(14):26"/>
			</v:userDefs>
			<v:textBlock v:margins="rect(4,4,4,4)"/>
			<v:textRect cx="33.9167" cy="266.248" width="67.84" height="6.75"/>
			<rect x="0" y="262.873" width="67.8333" height="6.75" rx="3.375" ry="3.375" class="st10"/>
			<text x="4" y="268.65" class="st15" v:langID="1033"><v:paragraph/><v:tabList/>VM to VM path</text>		</g>
		<g id="shape30-92" v:mID="30" v:groupContext="shape" v:layerMember="0" transform="translate(266.333,-225.561)">
			<title>Standard Arrow.30</title>
			<path d="M-6.54 262.42 L-6.9 262.42 L-34.81 262.42" class="st12"/>
		</g>
		<g id="shape31-99" v:mID="31" v:groupContext="shape" transform="translate(268.833,-229.761)">
			<title>Rounded rectangle.31</title>
			<desc>Port to VM path and vice versa</desc>
			<v:userDefs>
				<v:ud v:nameU="visVersion" v:val="VT0(14):26"/>
			</v:userDefs>
			<v:textBlock v:margins="rect(4,4,4,4)"/>
			<v:textRect cx="59.7917" cy="266.248" width="119.59" height="6.75"/>
			<rect x="0" y="262.873" width="119.583" height="6.75" rx="3.375" ry="3.375" class="st10"/>
			<text x="4" y="268.65" class="st15" v:langID="1033"><v:paragraph/><v:tabList/>Port to VM path and vice versa</text>		</g>
		<g id="shape32-102" v:mID="32" v:groupContext="shape" v:layerMember="0" transform="translate(266.333,-203.561)">
			<title>Standard Arrow.32</title>
			<path d="M-6.54 262.42 L-6.9 262.42 L-34.81 262.42" class="st4"/>
		</g>
		<g id="shape33-109" v:mID="33" v:groupContext="shape" transform="translate(268.833,-207.761)">
			<title>Rounded rectangle.33</title>
			<desc>Port to Port path</desc>
			<v:userDefs>
				<v:ud v:nameU="visVersion" v:val="VT0(14):26"/>
			</v:userDefs>
			<v:textBlock v:margins="rect(4,4,4,4)"/>
			<v:textRect cx="59.7917" cy="266.248" width="119.59" height="6.75"/>
			<rect x="0" y="262.873" width="119.583" height="6.75" rx="3.375" ry="3.375" class="st10"/>
			<text x="4" y="268.65" class="st15" v:langID="1033"><v:paragraph/><v:tabList/>Port to Port path</text>		</g>
		<g id="shape36-112" v:mID="36" v:groupContext="shape" transform="translate(159.9,-189.461)">
			<title>Rounded rectangle.36</title>
			<desc>VM2</desc>
			<v:userDefs>
				<v:ud v:nameU="visVersion" v:val="VT0(14):26"/>
			</v:userDefs>
			<v:textBlock v:margins="rect(4,4,4,4)"/>
			<v:textRect cx="27" cy="248.023" width="54" height="43.2"/>
			<rect x="0" y="226.423" width="54" height="43.2" rx="4.5" ry="4.5" class="st14"/>
			<text x="20.79" y="249.82" class="st11" v:langID="1033"><v:paragraph v:horizAlign="1"/><v:tabList/>VM2</text>		</g>
		<g id="shape35-115" v:mID="35" v:groupContext="shape" transform="translate(415.301,0)">
			<title>Sheet.35</title>
			<desc>X25547-090821</desc>
			<v:userDefs>
				<v:ud v:nameU="Margin" v:prompt="" v:val="VT0(0):26"/>
				<v:ud v:nameU="Class" v:prompt="" v:val="VT4(Xilinx.Visio.XNumberShape)"/>
				<v:ud v:nameU="Comment" v:prompt="" v:val="VT4(X-Number: X25547-090821)"/>
			</v:userDefs>
			<v:textBlock v:margins="rect(0,0,0,0)"/>
			<v:textRect cx="18.3193" cy="266.622" width="36.64" height="6.00345"/>
			<path d="M0 269.62 L36.64 269.62 L36.64 263.62 L0 263.62 L0 269.62 Z" class="st18"/>
			<path d="M0 269.62 L36.64 269.62 L36.64 263.62 L0 263.62 L0 269.62" class="st19"/>
			<path d="M0 271.12 L36.64 271.12" class="st19"/>
			<text x="1.24" y="268.12" class="st20" v:langID="1033"><v:paragraph v:horizAlign="2"/><v:tabList/>X25547-090821</text>		</g>
		<g id="shape19-120" v:mID="19" v:groupContext="shape" v:layerMember="0" transform="translate(105.15,-182.261)">
			<title>Standard Arrow.19</title>
			<path d="M0 268.96 L0 269.32 L0 280.75 A4.5 4.5 0 0 1 -4.5 285.25 L-71.85 285.25 A4.5 4.5 -180 0 0 -76.35 289.75 L-76.35
						 364.15 A4.5 4.5 -180 0 0 -71.85 368.65 L76.11 368.65 A4.5 4.5 -180 0 0 80.61 364.15 L80.61 356.62 A4.5 4.5
						 -180 0 0 76.11 352.12 L-65.37 352.12 A4.5 4.5 0 0 1 -69.87 347.62 L-69.87 300.37 A4.5 4.5 0 0 1 -65.37 295.87
						 L77.25 295.87 A4.5 4.5 -180 0 0 81.75 291.37 L81.75 269.32" class="st16"/>
		</g>
	</g>
</svg>
