<?xml version="1.0" encoding="UTF-8" standalone="no"?>
<!DOCTYPE svg PUBLIC "-//W3C//DTD SVG 1.1//EN" "http://www.w3.org/Graphics/SVG/1.1/DTD/svg11.dtd">
<!-- Generated by Microsoft Visio, SVG Export X25556-Firewall.svg Page-1 -->
<svg xmlns="http://www.w3.org/2000/svg" xmlns:xlink="http://www.w3.org/1999/xlink" xmlns:ev="http://www.w3.org/2001/xml-events"
		xmlns:v="http://schemas.microsoft.com/visio/2003/SVGExtensions/" width="5.38368in" height="2.95039in"
		viewBox="0 0 387.625 212.428" xml:space="preserve" color-interpolation-filters="sRGB" class="st17">
	<v:documentProperties v:langID="1033" v:viewMarkup="false">
		<v:userDefs>
			<v:ud v:nameU="msvConvertTheme"/>
		</v:userDefs>
	</v:documentProperties>

	<style type="text/css">
	<![CDATA[
		.st1 {fill:#ffffff;stroke:#000000;stroke-linecap:butt;stroke-width:1}
		.st2 {fill:#000000;font-family:Roboto;font-size:0.833336em;font-weight:bold}
		.st3 {stroke:#7f7f7f;stroke-dasharray:1,2;stroke-linecap:butt;stroke-width:1}
		.st4 {fill:#262626;stroke:#000000;stroke-linecap:butt;stroke-width:1}
		.st5 {fill:#ffffff;font-family:Roboto;font-size:0.666664em}
		.st6 {fill:#595959;stroke:#000000;stroke-linecap:butt;stroke-width:1}
		.st7 {fill:#a5a5a5;stroke:#000000;stroke-width:1}
		.st8 {fill:none;stroke:none;stroke-linecap:butt;stroke-width:1}
		.st9 {fill:#000000;font-family:Roboto;font-size:0.499992em}
		.st10 {fill:#f2f2f2;stroke:#000000;stroke-linecap:butt;stroke-width:1}
		.st11 {font-size:1em}
		.st12 {fill:#000000;font-family:Roboto;font-size:0.666664em}
		.st13 {fill:#000000;font-family:Roboto;font-size:0.666664em;font-weight:bold}
		.st14 {fill:#ffffff}
		.st15 {stroke:none;stroke-linecap:round;stroke-linejoin:round;stroke-width:0.75}
		.st16 {fill:#000000;font-family:Roboto;font-size:0.416656em}
		.st17 {fill:none;fill-rule:evenodd;font-size:12px;overflow:visible;stroke-linecap:square;stroke-miterlimit:3}
	]]>
	</style>

	<g v:mID="0" v:index="1" v:groupContext="foregroundPage">
		<title>Page-1</title>
		<v:pageProperties v:drawingScale="1" v:pageScale="1" v:drawingUnits="0" v:shadowOffsetX="0" v:shadowOffsetY="0"/>
		<v:layer v:name="Connector" v:index="0"/>
		<g id="shape2-1" v:mID="2" v:groupContext="shape" transform="translate(2.35037,-8.50345)">
			<title>Rounded rectangle.2</title>
			<desc>U25N</desc>
			<v:userDefs>
				<v:ud v:nameU="visVersion" v:val="VT0(14):26"/>
			</v:userDefs>
			<v:textBlock v:margins="rect(4,4,4,4)" v:verticalAlign="0"/>
			<v:textRect cx="171" cy="147.111" width="342" height="130.635"/>
			<rect x="0" y="81.793" width="342" height="130.635" rx="9" ry="9" class="st1"/>
			<text x="312.88" y="94.79" class="st2" v:langID="1033"><v:paragraph v:horizAlign="2"/><v:tabList/>U25N</text>		</g>
		<g id="shape3-4" v:mID="3" v:groupContext="shape" v:layerMember="0" transform="translate(91.5533,-21.2535)">
			<title>Sheet.3</title>
			<path d="M7.2 212.43 L7.2 110.62" class="st3"/>
		</g>
		<g id="shape4-7" v:mID="4" v:groupContext="shape" transform="translate(38.3504,-88.5139)">
			<title>Rounded rectangle.4</title>
			<desc>Port1</desc>
			<v:userDefs>
				<v:ud v:nameU="visVersion" v:val="VT0(14):26"/>
			</v:userDefs>
			<v:textBlock v:margins="rect(0,0,0,0)"/>
			<v:textRect cx="18.1373" cy="199.866" width="36.28" height="25.125"/>
			<rect x="0" y="187.303" width="36.2746" height="25.125" rx="2.7" ry="2.7" class="st4"/>
			<text x="8.43" y="202.27" class="st5" v:langID="1033"><v:paragraph v:horizAlign="1"/><v:tabList/>Port1</text>		</g>
		<g id="shape5-10" v:mID="5" v:groupContext="shape" transform="translate(132.667,-88.2326)">
			<title>Rounded rectangle.6</title>
			<desc>MAC3</desc>
			<v:userDefs>
				<v:ud v:nameU="visVersion" v:val="VT0(14):26"/>
			</v:userDefs>
			<v:textBlock v:margins="rect(0,0,0,0)"/>
			<v:textRect cx="21.9375" cy="199.585" width="43.88" height="25.6875"/>
			<rect x="0" y="186.741" width="43.875" height="25.6875" rx="2.7" ry="2.7" class="st6"/>
			<text x="10.99" y="201.98" class="st5" v:langID="1033"><v:paragraph v:horizAlign="1"/><v:tabList/>MAC3</text>		</g>
		<g id="shape6-13" v:mID="6" v:groupContext="shape" v:layerMember="0" transform="translate(74.625,-94.7014)">
			<title>1-D double.528</title>
			<v:userDefs>
				<v:ud v:nameU="visVersion" v:val="VT0(14):26"/>
			</v:userDefs>
			<path d="M6.38 202.23 L6.38 199.68 L0 206.05 L6.38 212.43 L6.38 209.88 L51.67 209.88 L51.67 212.43 L58.04 206.05 L51.67
						 199.68 L51.67 202.23 L6.38 202.23 Z" class="st7"/>
		</g>
		<g id="shape7-15" v:mID="7" v:groupContext="shape" transform="translate(38.3504,-27.4409)">
			<title>Rounded rectangle.7</title>
			<desc>Port0</desc>
			<v:userDefs>
				<v:ud v:nameU="visVersion" v:val="VT0(14):26"/>
			</v:userDefs>
			<v:textBlock v:margins="rect(0,0,0,0)"/>
			<v:textRect cx="18.1373" cy="199.866" width="36.28" height="25.125"/>
			<rect x="0" y="187.303" width="36.2746" height="25.125" rx="2.7" ry="2.7" class="st4"/>
			<text x="8.43" y="202.27" class="st5" v:langID="1033"><v:paragraph v:horizAlign="1"/><v:tabList/>Port0</text>		</g>
		<g id="shape8-18" v:mID="8" v:groupContext="shape" transform="translate(132.583,-27.1597)">
			<title>Rounded rectangle.8</title>
			<desc>MAC2</desc>
			<v:userDefs>
				<v:ud v:nameU="visVersion" v:val="VT0(14):26"/>
			</v:userDefs>
			<v:textBlock v:margins="rect(0,0,0,0)"/>
			<v:textRect cx="21.9375" cy="199.585" width="43.88" height="25.6875"/>
			<rect x="0" y="186.741" width="43.875" height="25.6875" rx="2.7" ry="2.7" class="st6"/>
			<text x="10.99" y="201.98" class="st5" v:langID="1033"><v:paragraph v:horizAlign="1"/><v:tabList/>MAC2</text>		</g>
		<g id="shape9-21" v:mID="9" v:groupContext="shape" v:layerMember="0" transform="translate(74.625,-33.6285)">
			<title>1-D double.9</title>
			<v:userDefs>
				<v:ud v:nameU="visVersion" v:val="VT0(14):26"/>
			</v:userDefs>
			<path d="M6.38 202.23 L6.38 199.68 L0 206.05 L6.38 212.43 L6.38 209.88 L51.58 209.88 L51.58 212.43 L57.96 206.05 L51.58
						 199.68 L51.58 202.23 L6.38 202.23 Z" class="st7"/>
		</g>
		<g id="shape10-23" v:mID="10" v:groupContext="shape" transform="translate(101.122,-66.5764)">
			<title>Rounded rectangle.10</title>
			<desc>2x 10/25G</desc>
			<v:userDefs>
				<v:ud v:nameU="visVersion" v:val="VT0(14):26"/>
			</v:userDefs>
			<v:textBlock v:margins="rect(4,4,4,4)"/>
			<v:textRect cx="24.1875" cy="205.678" width="48.38" height="13.5"/>
			<rect x="0" y="198.928" width="48.375" height="13.5" rx="4.5" ry="4.5" class="st8"/>
			<text x="4" y="207.48" class="st9" v:langID="1033"><v:paragraph/><v:tabList/>2x 10/25G</text>		</g>
		<g id="shape11-26" v:mID="11" v:groupContext="shape" transform="translate(34.6875,-60.2535)">
			<title>Rounded rectangle.11</title>
			<desc>X2</desc>
			<v:userDefs>
				<v:ud v:nameU="visVersion" v:val="VT0(14):26"/>
			</v:userDefs>
			<v:textBlock v:margins="rect(4,4,4,4)"/>
			<v:textRect cx="13.7812" cy="205.678" width="27.57" height="13.5"/>
			<rect x="0" y="198.928" width="27.5625" height="13.5" rx="4.5" ry="4.5" class="st8"/>
			<text x="7.74" y="208.68" class="st2" v:langID="1033"><v:paragraph v:horizAlign="1"/><v:tabList/>X2</text>		</g>
		<g id="shape12-29" v:mID="12" v:groupContext="shape" transform="translate(176.725,-17.5035)">
			<title>Rounded rectangle.12</title>
			<desc>FPGA Firewall</desc>
			<v:userDefs>
				<v:ud v:nameU="visVersion" v:val="VT0(14):26"/>
			</v:userDefs>
			<v:textBlock v:margins="rect(4,4,4,4)"/>
			<v:textRect cx="53.7187" cy="162.017" width="107.44" height="100.823"/>
			<rect x="0" y="111.605" width="107.437" height="100.823" rx="9" ry="9" class="st10"/>
			<text x="40.98" y="153.02" class="st2" v:langID="1033"><v:paragraph v:horizAlign="1"/><v:tabList/>FPGA<v:newlineChar/><v:newlineChar/><tspan
						x="36.12" dy="2.4em" class="st11">Firewall</tspan></text>		</g>
		<g id="shape13-33" v:mID="13" v:groupContext="shape" transform="translate(336.475,-88.2326)">
			<title>Rounded rectangle.13</title>
			<desc>MAC1</desc>
			<v:userDefs>
				<v:ud v:nameU="visVersion" v:val="VT0(14):26"/>
			</v:userDefs>
			<v:textBlock v:margins="rect(0,0,0,0)"/>
			<v:textRect cx="21.9375" cy="199.585" width="43.88" height="25.6875"/>
			<rect x="0" y="186.741" width="43.875" height="25.6875" rx="2.7" ry="2.7" class="st6"/>
			<text x="10.99" y="201.98" class="st5" v:langID="1033"><v:paragraph v:horizAlign="1"/><v:tabList/>MAC1</text>		</g>
		<g id="shape14-36" v:mID="14" v:groupContext="shape" transform="translate(336.475,-33.4826)">
			<title>Rounded rectangle.14</title>
			<desc>MAC0</desc>
			<v:userDefs>
				<v:ud v:nameU="visVersion" v:val="VT0(14):26"/>
			</v:userDefs>
			<v:textBlock v:margins="rect(0,0,0,0)"/>
			<v:textRect cx="21.9375" cy="199.585" width="43.88" height="25.6875"/>
			<rect x="0" y="186.741" width="43.875" height="25.6875" rx="2.7" ry="2.7" class="st6"/>
			<text x="10.99" y="201.98" class="st5" v:langID="1033"><v:paragraph v:horizAlign="1"/><v:tabList/>MAC0</text>		</g>
		<g id="shape15-39" v:mID="15" v:groupContext="shape" transform="translate(346.312,-63.6285)">
			<title>Rounded rectangle.26</title>
			<desc>2x 10/25G</desc>
			<v:userDefs>
				<v:ud v:nameU="visVersion" v:val="VT0(14):26"/>
			</v:userDefs>
			<v:textBlock v:margins="rect(4,4,4,4)"/>
			<v:textRect cx="19.4063" cy="205.678" width="38.82" height="13.5"/>
			<rect x="0" y="198.928" width="38.8125" height="13.5" rx="4.5" ry="4.5" class="st8"/>
			<text x="4" y="207.48" class="st9" v:langID="1033"><v:paragraph/><v:tabList/>2x 10/25G</text>		</g>
		<g id="shape16-42" v:mID="16" v:groupContext="shape" v:layerMember="0" transform="translate(284.25,-94.7014)">
			<title>1-D double.16</title>
			<v:userDefs>
				<v:ud v:nameU="visVersion" v:val="VT0(14):26"/>
			</v:userDefs>
			<path d="M6.38 202.23 L6.38 199.68 L0 206.05 L6.38 212.43 L6.38 209.88 L45.85 209.88 L45.85 212.43 L52.23 206.05 L45.85
						 199.68 L45.85 202.23 L6.38 202.23 Z" class="st7"/>
		</g>
		<g id="shape17-44" v:mID="17" v:groupContext="shape" v:layerMember="0" transform="translate(284.25,-39.9514)">
			<title>1-D double.17</title>
			<v:userDefs>
				<v:ud v:nameU="visVersion" v:val="VT0(14):26"/>
			</v:userDefs>
			<path d="M6.38 202.23 L6.38 199.68 L0 206.05 L6.38 212.43 L6.38 209.88 L45.85 209.88 L45.85 212.43 L52.23 206.05 L45.85
						 199.68 L45.85 202.23 L6.38 202.23 Z" class="st7"/>
		</g>
		<g id="shape18-46" v:mID="18" v:groupContext="shape" v:layerMember="0" transform="translate(363.667,-144.735)">
			<title>Sheet.18</title>
			<path d="M0 205.23 L-362.67 205.23" class="st3"/>
		</g>
		<g id="shape19-49" v:mID="19" v:groupContext="shape" transform="translate(311.917,-190.644)">
			<title>Rounded rectangle.19</title>
			<desc>User Space</desc>
			<v:userDefs>
				<v:ud v:nameU="visVersion" v:val="VT0(14):26"/>
			</v:userDefs>
			<v:textBlock v:margins="rect(4,4,4,4)"/>
			<v:textRect cx="25.9167" cy="209.053" width="51.84" height="6.75"/>
			<rect x="0" y="205.678" width="51.8333" height="6.75" rx="3.375" ry="3.375" class="st8"/>
			<text x="7.58" y="211.45" class="st12" v:langID="1033"><v:paragraph v:horizAlign="2"/><v:tabList/>User Space</text>		</g>
		<g id="shape20-52" v:mID="20" v:groupContext="shape" transform="translate(305.729,-157.56)">
			<title>Rounded rectangle.24</title>
			<desc>Kernel Space</desc>
			<v:userDefs>
				<v:ud v:nameU="visVersion" v:val="VT0(14):26"/>
			</v:userDefs>
			<v:textBlock v:margins="rect(4,4,4,4)"/>
			<v:textRect cx="29.0104" cy="209.053" width="58.03" height="6.75"/>
			<rect x="0" y="205.678" width="58.0208" height="6.75" rx="3.375" ry="3.375" class="st8"/>
			<text x="7.47" y="211.45" class="st12" v:langID="1033"><v:paragraph v:horizAlign="2"/><v:tabList/>Kernel Space</text>		</g>
		<g id="shape21-55" v:mID="21" v:groupContext="shape" transform="translate(19.5,-155.663)">
			<title>Rounded rectangle.36</title>
			<desc>sfc.ko</desc>
			<v:userDefs>
				<v:ud v:nameU="visVersion" v:val="VT0(14):26"/>
			</v:userDefs>
			<v:textBlock v:margins="rect(4,4,4,4)"/>
			<v:textRect cx="29.0104" cy="209.053" width="58.03" height="6.75"/>
			<rect x="0" y="205.678" width="58.0208" height="6.75" rx="3.375" ry="3.375" class="st8"/>
			<text x="4" y="211.45" class="st12" v:langID="1033"><v:paragraph/><v:tabList/>sfc.ko</text>		</g>
		<g id="shape22-58" v:mID="22" v:groupContext="shape" transform="translate(134.729,-173.878)">
			<title>Rounded rectangle.37</title>
			<desc>Netfilter</desc>
			<v:userDefs>
				<v:ud v:nameU="visVersion" v:val="VT0(14):26"/>
			</v:userDefs>
			<v:textBlock v:margins="rect(4,4,4,4)"/>
			<v:textRect cx="33.5104" cy="209.053" width="67.03" height="6.75"/>
			<rect x="0" y="205.678" width="67.0208" height="6.75" rx="3.375" ry="3.375" class="st8"/>
			<text x="18.65" y="211.45" class="st13" v:langID="1033"><v:paragraph v:horizAlign="1"/><v:tabList/>Netfilter</text>		</g>
		<g id="shape23-61" v:mID="23" v:groupContext="shape" transform="translate(45.375,-204.253)">
			<title>Rounded rectangle.38</title>
			<desc>nftables</desc>
			<v:userDefs>
				<v:ud v:nameU="visVersion" v:val="VT0(14):26"/>
			</v:userDefs>
			<v:textBlock v:margins="rect(4,4,4,4)"/>
			<v:textRect cx="33.5104" cy="209.053" width="67.03" height="6.75"/>
			<rect x="0" y="205.678" width="67.0208" height="6.75" rx="3.375" ry="3.375" class="st8"/>
			<text x="18.81" y="211.45" class="st13" v:langID="1033"><v:paragraph v:horizAlign="1"/><v:tabList/>nftables</text>		</g>
		<g id="shape24-64" v:mID="24" v:groupContext="shape" v:layerMember="0" transform="translate(363.667,-182.428)">
			<title>Sheet.24</title>
			<path d="M0 205.23 L-362.67 205.23" class="st3"/>
		</g>
		<g id="shape25-67" v:mID="25" v:groupContext="shape" transform="translate(350.986,0)">
			<title>Sheet.25</title>
			<desc>X25556-091321</desc>
			<v:userDefs>
				<v:ud v:nameU="Margin" v:prompt="" v:val="VT0(0):26"/>
				<v:ud v:nameU="Class" v:prompt="" v:val="VT4(Xilinx.Visio.XNumberShape)"/>
				<v:ud v:nameU="Comment" v:prompt="" v:val="VT4(X-Number: X25556-091321)"/>
			</v:userDefs>
			<v:textBlock v:margins="rect(0,0,0,0)"/>
			<v:textRect cx="18.3193" cy="209.427" width="36.64" height="6.00345"/>
			<path d="M0 212.43 L36.64 212.43 L36.64 206.42 L0 206.42 L0 212.43 Z" class="st14"/>
			<path d="M0 212.43 L36.64 212.43 L36.64 206.42 L0 206.42 L0 212.43" class="st15"/>
			<path d="M0 213.93 L36.64 213.93" class="st15"/>
			<text x="1.24" y="210.93" class="st16" v:langID="1033"><v:paragraph v:horizAlign="2"/><v:tabList/>X25556-091321</text>		</g>
	</g>
</svg>
